<svg width="686" height="701" viewBox="0 0 686 701" fill="none" xmlns="http://www.w3.org/2000/svg">
<path d="M612.654 195.55C557.166 103.716 456.382 42.3204 341.259 42.3204C226.135 42.3204 125.351 103.716 69.8625 195.552C107.83 82.0614 214.993 0.270508 341.259 0.270508C467.524 0.270508 574.686 82.0604 612.654 195.55Z" fill="#02C3BF"/>
<path d="M59.8621 336.562C62.676 336.562 66.1653 335.999 70.33 334.873C73.3899 333.987 75.8738 333.073 77.7816 332.129C78.5405 331.754 79.2083 331.374 79.7849 330.99L114.673 392.324L135.36 428.692L137.696 432.799H161.633H193.582L167.225 389.354L161.665 380.189L149.177 359.604L138.709 342.35L128.954 326.271L116.76 306.171C120.025 303.807 124.865 298.798 131.281 291.144C137.809 283.378 143.437 275.78 148.164 268.351L187.841 205.037H136.346L106.63 254.675C93.3019 277.035 80.8958 290.686 69.4119 295.627C66.1544 297.028 62.9711 297.729 59.8621 297.729V205.037H10.2237V432.799H59.8621V336.562Z" fill="#02C3BF"/>
<path d="M397.881 218.899C391.419 207.763 342.907 124.166 341.239 123.138C339.222 126.21 337.4 129.418 335.581 132.622L335.575 132.632C334.773 134.045 333.971 135.457 333.152 136.857L317.906 162.757L297.691 197.548C295.94 200.53 294.18 203.509 292.42 206.489C286.287 216.871 280.145 227.268 274.371 237.836C270.431 240.148 266.588 242.689 262.744 245.232L262.743 245.232L262.742 245.233C257.496 248.702 252.246 252.175 246.737 255.071C241.034 247.106 235.581 238.98 230.128 230.854L230.127 230.853C226.22 225.031 222.313 219.208 218.314 213.446C208.935 232.193 199.415 250.869 189.755 269.474C187.845 273.188 185.992 276.936 184.138 280.684C181.284 286.457 178.429 292.231 175.365 297.886C172.824 295.96 170.155 294.225 167.484 292.489C166.079 291.576 164.673 290.662 163.287 289.721C157.443 296.698 150.982 303.337 144.574 309.922L144.572 309.923L144.571 309.925C142.392 312.164 140.22 314.396 138.079 316.633C137.306 317.447 136.533 318.262 135.76 319.076L145.495 335.124C152.341 327.783 159.112 320.37 165.807 312.886C167.062 313.638 168.338 314.43 169.631 315.231C174.269 318.108 179.126 321.121 184.033 322.954C188.738 312.734 193.764 302.636 198.785 292.547L198.786 292.545L198.787 292.542C200.892 288.314 202.995 284.088 205.074 279.854C206.582 276.784 208.063 273.671 209.548 270.55C212.992 263.31 216.459 256.023 220.336 249.107C223.245 252.757 226.065 256.466 228.885 260.176L228.886 260.177L228.887 260.179L228.889 260.181C230.421 262.197 231.954 264.213 233.502 266.22C234.501 267.517 235.527 268.799 236.553 270.082L236.555 270.084C238.214 272.159 239.875 274.235 241.429 276.375C247.636 273.004 253.947 269.816 260.257 266.628L260.258 266.628C264.742 264.362 269.227 262.097 273.674 259.766C274.674 259.242 275.76 258.718 276.876 258.179L276.878 258.179C279.881 256.73 283.098 255.177 285.417 253.248C287.643 251.397 297.052 235.559 302.038 227.167L302.038 227.165C303.099 225.381 303.959 223.933 304.507 223.028C307.83 217.545 311.143 212.053 314.456 206.56L314.457 206.559L314.464 206.547C323.435 191.673 332.411 176.792 341.611 162.073C346.344 180.218 350.796 198.441 355.249 216.662L355.252 216.674L355.257 216.698C357.077 224.145 358.897 231.592 360.735 239.033C362.026 244.256 363.398 249.454 364.769 254.652C366.604 261.607 368.439 268.561 370.08 275.574C371.771 268.92 373.011 262.007 374.253 255.079C375.688 247.074 377.127 239.049 379.271 231.384C384.873 245.032 390.563 258.644 396.343 272.218C396.819 273.352 397.389 274.81 398.012 276.404C399.734 280.809 401.861 286.25 403.534 288.734C404.94 290.82 407.114 292.643 409.159 294.358C409.801 294.896 410.43 295.424 411.019 295.946C412.731 297.464 414.424 299.003 416.117 300.542L416.121 300.545L416.124 300.548L416.128 300.551C418.018 302.27 419.909 303.989 421.827 305.678C422.585 306.345 423.365 307.006 424.148 307.67L424.149 307.671C426.143 309.363 428.16 311.073 429.907 312.955C432.171 315.395 434.022 318.381 435.823 321.285L435.824 321.287L435.826 321.291C436.383 322.19 436.936 323.082 437.495 323.947C438.936 326.179 440.367 328.42 441.798 330.661L441.801 330.666C444.893 335.508 447.986 340.352 451.192 345.114C455.623 351.647 460.127 358.131 464.701 364.566C465.4 365.552 466.124 366.532 466.851 367.515L466.853 367.518C468.915 370.309 470.996 373.127 472.582 376.176C470.168 373.998 467.814 371.757 465.46 369.516L465.458 369.515L465.456 369.513L465.453 369.51L465.451 369.508C463.584 367.731 461.717 365.953 459.819 364.207C453.284 358.242 446.634 352.408 439.868 346.706C435.074 342.663 430.146 338.775 425.219 334.887L425.217 334.886L425.214 334.883C419.748 330.571 414.284 326.259 409.003 321.737C412.559 331.934 415.896 342.212 419.233 352.49L419.234 352.493L419.235 352.494C423.455 365.49 427.675 378.488 432.339 391.327C425.2 385.419 417.893 379.692 410.588 373.967L410.585 373.965L410.578 373.959L410.574 373.956L410.565 373.949C406.1 370.45 401.636 366.951 397.212 363.412C365.762 338.59 334.599 313.413 303.722 287.881C277.761 319.876 252.038 352.062 226.555 384.438C228.567 375.656 230.321 366.812 232.074 357.968L232.075 357.965C233.174 352.422 234.274 346.879 235.436 341.351C230.424 344.997 225.336 348.537 220.248 352.076L220.244 352.078L220.234 352.085C217.134 354.242 214.034 356.398 210.952 358.578L175.053 383.845L208.821 439.507C212.962 438.613 217.111 437.308 221.278 435.594C243.647 426.391 266.318 426.391 288.686 435.594C306.109 442.762 323.229 442.762 340.652 435.594C363.02 426.391 385.691 426.391 408.06 435.594C423.676 442.019 439.05 442.685 454.616 437.592L484.801 352.405C477.484 338.201 470.246 323.957 463.087 309.671C458.927 301.472 454.823 293.246 450.774 284.991C450.166 283.754 449.536 282.519 448.905 281.281L448.904 281.279C447.628 278.775 446.346 276.261 445.232 273.708C450.359 266.222 448.859 268.567 453.579 260.806C454.073 259.994 454.566 259.183 455.06 258.372C458.681 265.206 462.077 272.15 465.472 279.094L465.473 279.096L465.474 279.098C467.122 282.469 468.771 285.84 470.445 289.198C472.287 292.895 474.189 296.564 476.091 300.234L476.092 300.235L476.095 300.24L476.098 300.247L476.099 300.249C477.679 303.297 479.259 306.345 480.805 309.409C481.552 310.89 482.298 312.38 483.045 313.873L483.062 313.907L483.074 313.932L483.087 313.956L483.096 313.975L483.097 313.977L483.099 313.982L483.101 313.985C484.57 316.92 488.382 323.86 492.376 331.028L498.34 314.198C494.78 309.668 491.385 304.361 488.125 298.37L488.085 298.297L488.047 298.223C483.683 289.86 480.135 280.884 477.382 271.317L470.811 248.998L463.224 234.071C462.761 233.155 462.305 232.221 461.845 231.281L461.84 231.269L461.833 231.255C460.453 228.429 459.047 225.551 457.359 222.977C453.027 229.465 448.85 236.048 444.672 242.631L444.671 242.633L444.669 242.636C441.143 248.192 443.861 243.604 440.241 249.105C439.512 250.212 438.792 251.329 438.07 252.447L438.068 252.45L438.066 252.453C436.289 255.207 434.507 257.967 432.593 260.608C428.477 257.385 424.399 254.117 420.359 250.802C419.732 250.295 419.074 249.793 418.41 249.285C416.46 247.796 414.448 246.259 412.962 244.417C411.376 242.452 410.074 240.092 408.808 237.799L408.807 237.798L408.807 237.796C408.352 236.972 407.902 236.156 407.445 235.371L397.881 218.899Z" fill="#02C3BF"/>
<path d="M526.16 457.049C526.227 456.974 526.295 456.899 526.362 456.824C524.143 456.093 521.926 455.272 519.711 454.361C502.289 447.193 485.168 447.193 467.746 454.361C445.377 463.564 422.707 463.564 400.338 454.361C382.916 447.193 365.795 447.193 348.373 454.361C326.004 463.564 303.334 463.564 280.965 454.361C263.543 447.193 246.422 447.193 229 454.361C206.631 463.564 183.961 463.564 161.592 454.361C158.177 452.956 154.775 451.827 151.379 450.973C152.381 452.169 153.394 453.356 154.418 454.534C155.443 455.711 156.478 456.878 157.524 458.036C158.571 459.194 159.628 460.342 160.696 461.48C161.764 462.617 162.843 463.745 163.933 464.862C165.022 465.98 166.122 467.087 167.232 468.184C168.342 469.28 169.463 470.366 170.594 471.442C171.724 472.517 172.865 473.582 174.016 474.636C175.167 475.69 176.327 476.733 177.498 477.765C178.668 478.797 179.849 479.818 181.038 480.828C182.228 481.838 183.427 482.836 184.636 483.823C185.845 484.811 187.062 485.787 188.289 486.751C189.517 487.715 190.753 488.667 191.998 489.608C192.499 489.987 193.001 490.364 193.505 490.738C202.738 491.003 211.965 489.22 221.278 485.388C243.647 476.185 266.318 476.185 288.686 485.388C306.109 492.556 323.229 492.556 340.652 485.388C363.02 476.185 385.691 476.185 408.06 485.388C425.482 492.556 442.602 492.556 460.025 485.388C474.516 479.426 489.133 477.326 503.713 479.089C503.902 478.926 504.09 478.762 504.278 478.599C505.823 477.253 507.352 475.889 508.863 474.506C510.375 473.123 511.869 471.722 513.347 470.302C514.824 468.883 516.284 467.445 517.726 465.99C519.168 464.535 520.592 463.062 521.998 461.571C523.404 460.081 524.791 458.574 526.16 457.049Z" fill="#02C3BF"/>
<path d="M469.569 503.931C470.252 503.518 470.933 503.101 471.612 502.681C470.325 503.133 469.036 503.624 467.746 504.155C445.377 513.358 422.707 513.358 400.338 504.155C382.916 496.987 365.795 496.987 348.373 504.155C326.004 513.358 303.334 513.358 280.965 504.155C263.543 496.987 246.422 496.987 229 504.155C225.78 505.48 222.554 506.614 219.324 507.557C219.339 507.566 219.355 507.575 219.371 507.584C220.728 508.352 222.094 509.108 223.466 509.851C224.839 510.594 226.218 511.324 227.604 512.041C229.374 512.962 231.155 513.863 232.948 514.741C234.74 515.62 236.543 516.476 238.356 517.311C240.169 518.146 241.992 518.958 243.824 519.748C245.657 520.539 247.499 521.307 249.351 522.053C251.202 522.798 253.062 523.521 254.931 524.222C256.8 524.922 258.678 525.599 260.563 526.254C262.449 526.909 264.342 527.54 266.243 528.149C268.143 528.758 270.051 529.344 271.967 529.906C273.882 530.468 275.803 531.007 277.732 531.523C279.66 532.038 281.594 532.53 283.534 532.999C285.474 533.468 287.42 533.913 289.371 534.334C291.322 534.755 293.278 535.152 295.239 535.526C297.199 535.9 299.164 536.249 301.133 536.575C303.102 536.901 305.075 537.203 307.052 537.481C309.028 537.759 311.008 538.013 312.99 538.243C314.973 538.473 316.958 538.679 318.946 538.86C320.934 539.042 322.923 539.199 324.915 539.332C326.906 539.466 328.899 539.574 330.893 539.659C332.887 539.744 334.882 539.805 336.878 539.841C338.873 539.877 340.869 539.889 342.865 539.877C344.861 539.865 346.856 539.828 348.851 539.767C350.846 539.706 352.84 539.621 354.833 539.512C356.827 539.403 358.818 539.269 360.807 539.111C362.797 538.954 364.784 538.772 366.77 538.566C368.755 538.36 370.738 538.13 372.718 537.876C374.697 537.621 376.673 537.343 378.646 537.041C380.619 536.739 382.588 536.413 384.553 536.062C386.518 535.713 388.479 535.339 390.435 534.941C392.391 534.543 394.341 534.122 396.287 533.676C398.233 533.231 400.172 532.762 402.107 532.27C404.041 531.777 405.969 531.262 407.891 530.722C409.812 530.183 411.727 529.621 413.635 529.035C415.593 528.431 417.543 527.803 419.486 527.151C421.428 526.5 423.362 525.825 425.288 525.125C427.214 524.426 429.131 523.703 431.039 522.957C432.948 522.211 434.846 521.441 436.735 520.649C438.625 519.856 440.504 519.04 442.373 518.201C444.242 517.362 446.101 516.5 447.949 515.616C449.797 514.731 451.634 513.824 453.46 512.894C455.286 511.965 457.1 511.013 458.902 510.039C460.704 509.065 462.495 508.069 464.273 507.051C466.051 506.033 467.816 504.993 469.569 503.931Z" fill="#02C3BF"/>
<path d="M69.8625 442.244C107.83 555.735 214.993 637.526 341.259 637.526C442.285 637.526 531.082 585.165 581.992 506.102C594.711 486.35 605.065 464.931 612.654 442.246C597.259 467.726 578.377 490.862 556.67 510.993C500.138 563.423 424.442 595.476 341.259 595.476C253.297 595.476 173.707 559.634 116.296 501.757C111.571 496.994 106.997 492.082 102.58 487.028C90.4245 473.119 79.4652 458.137 69.8625 442.244Z" fill="#02C3BF"/>
<path d="M166.848 366.343C172.043 352.367 178.023 336.28 181.385 329.32L156.289 352.916L165.931 368.81C166.234 367.996 166.54 367.173 166.848 366.343Z" fill="#02C3BF"/>
<path d="M642.052 293.806C638 301.46 633.835 307.594 629.558 312.209L672.274 432.759H629.051L598.829 331.119C594.896 333.086 591.946 334.336 589.982 334.871C589.248 335.071 588.651 335.171 588.192 335.171V432.759H550.541V335.171C550.257 335.171 549.669 335.041 548.779 334.782C547.91 334.528 546.753 334.152 545.307 333.651C542.381 332.638 540.58 331.794 539.905 331.119L509.683 432.759H506.081H466.46L490.813 364.031L498.583 342.105L507.119 318.014L509.176 312.209C504.899 307.594 500.678 301.46 496.513 293.806C492.461 286.039 489.141 277.653 486.552 268.649L467.811 204.997H508.332L523.19 258.012C527.242 272.307 531.238 282.662 535.177 289.078C536.918 291.834 538.856 294.165 540.992 296.069C543.827 298.598 547.01 300.376 550.541 301.403V204.997H588.192V301.403C591.716 300.359 594.899 298.559 597.742 296.001C599.803 294.147 601.685 291.896 603.388 289.247C607.44 282.944 611.492 272.532 615.544 258.012L630.402 204.997H670.923L652.182 268.649C649.593 277.766 646.216 286.152 642.052 293.806Z" fill="#02C3BF"/>
<path d="M40.8353 529.94L36.4819 521.949L46.7452 500.753L29.9265 509.915L26.1046 502.9L59.2773 484.828L63.0992 491.844L47.0239 500.601L69.5787 503.738L73.6537 511.218L51.137 507.819L40.8353 529.94Z" fill="#02C3BF"/>
<path d="M89.6363 565.923C87.2952 567.681 84.9644 569.012 82.644 569.916C80.3518 570.799 78.0911 571.195 75.8619 571.105C73.6539 571.043 71.5479 570.44 69.5438 569.299C67.5398 568.157 65.6801 566.444 63.9647 564.159C61.8469 561.338 60.618 558.556 60.278 555.812C59.9873 553.075 60.4515 550.433 61.6706 547.886C62.939 545.346 64.8425 542.946 67.3808 540.688L63.0288 534.891L49.9975 544.675L45.2008 538.287L75.4096 515.605L80.2064 521.994L68.3598 530.889L72.8071 536.812C75.5504 535.237 78.2305 534.284 80.8475 533.951C83.5139 533.625 86.0395 534.022 88.4245 535.142C90.8376 536.242 93.0607 538.145 95.0938 540.853C97.381 543.899 98.617 546.897 98.802 549.845C99.0363 552.801 98.343 555.637 96.7219 558.354C95.129 561.049 92.7672 563.573 89.6363 565.923ZM74.4201 545.657C72.3046 547.246 70.6654 548.851 69.5022 550.474C68.3391 552.097 67.7298 553.724 67.6742 555.353C67.6186 556.983 68.1732 558.573 69.338 560.125C70.5451 561.732 71.9389 562.737 73.5193 563.138C75.0996 563.54 76.8208 563.394 78.6828 562.702C80.5659 562.038 82.5652 560.911 84.6807 559.323C86.7962 557.735 88.4355 556.129 89.5986 554.506C90.7829 552.911 91.4028 551.299 91.4584 549.669C91.5351 548.068 90.9805 546.477 89.7946 544.898C88.6086 543.318 87.2149 542.314 85.6133 541.884C84.0329 541.483 82.3012 541.614 80.418 542.279C78.5349 542.943 76.5356 544.069 74.4201 545.657Z" fill="#02C3BF"/>
<path d="M118.611 568.508C122.036 571.968 123.777 575.231 123.837 578.299C123.946 581.368 122.697 584.192 120.09 586.773C118.912 587.939 117.61 588.88 116.185 589.596C114.785 590.288 113.249 590.641 111.578 590.658C109.957 590.675 108.25 590.254 106.459 589.397C104.667 588.54 102.804 587.134 100.868 585.179L98.4491 582.735L88.8986 592.189L83.2782 586.511L110.125 559.936L118.611 568.508ZM113.651 572.823L111.083 570.229L103.112 578.119L104.973 579.999C106.04 581.077 107.096 581.868 108.141 582.372C109.186 582.877 110.22 583.044 111.243 582.875C112.267 582.705 113.255 582.149 114.207 581.206C115.536 579.891 116.154 578.56 116.061 577.212C115.993 575.84 115.19 574.377 113.651 572.823Z" fill="#02C3BF"/>
<path d="M131.404 581.454L137 585.978L125.525 600.172C124.97 600.858 124.336 601.615 123.621 602.443C122.906 603.271 122.202 604.086 121.51 604.887C120.839 605.66 120.246 606.337 119.731 606.918C119.238 607.472 118.889 607.848 118.684 608.045L118.807 608.145L150.413 596.821L157.86 602.841L134.111 632.218L128.557 627.728L139.965 613.616C140.564 612.875 141.232 612.077 141.969 611.221C142.728 610.338 143.454 609.496 144.147 608.696C144.867 607.917 145.485 607.237 146 606.656C146.565 606.07 146.938 605.691 147.121 605.522L146.957 605.388L115.144 616.885L107.655 610.831L131.404 581.454Z" fill="#02C3BF"/>
<path d="M167.818 653.91L161.035 649.689L169.644 635.853L156.931 627.943L148.322 641.779L141.539 637.558L161.496 605.484L168.279 609.705L160.453 622.283L173.166 630.193L180.992 617.615L187.775 621.836L167.818 653.91Z" fill="#02C3BF"/>
<path d="M206.449 637.992C205.075 637.351 203.718 637.048 202.377 637.084C201.069 637.135 199.808 637.5 198.596 638.18C197.398 638.827 196.272 639.781 195.217 641.04C194.194 642.314 193.265 643.846 192.429 645.636C191.295 648.065 190.613 650.276 190.383 652.271C190.199 654.248 190.538 655.983 191.398 657.474C192.259 658.966 193.68 660.174 195.662 661.099C197.068 661.756 198.533 662.245 200.056 662.567C201.612 662.904 203.339 663.165 205.237 663.351L202.395 669.439C200.609 669.345 198.914 669.099 197.31 668.7C195.705 668.302 193.992 667.677 192.171 666.827C188.655 665.185 186.082 663.109 184.453 660.596C182.87 658.067 182.147 655.238 182.283 652.11C182.435 648.95 183.332 645.612 184.973 642.096C186.181 639.507 187.637 637.306 189.34 635.493C191.058 633.648 192.953 632.256 195.027 631.317C197.132 630.392 199.377 629.961 201.761 630.023C204.178 630.1 206.68 630.743 209.269 631.952C210.963 632.742 212.552 633.757 214.037 634.995C215.569 636.216 216.947 637.56 218.17 639.026L213.068 643.826C212.073 642.622 211.025 641.491 209.923 640.431C208.854 639.387 207.696 638.574 206.449 637.992Z" fill="#02C3BF"/>
<path d="M244.365 686.146L235.729 683.278L228.761 660.783L222.725 678.959L215.143 676.441L227.049 640.591L234.631 643.109L228.861 660.482L247.485 647.378L255.569 650.062L236.794 662.949L244.365 686.146Z" fill="#02C3BF"/>
<path d="M276.512 693.436L275.636 684.071L262.164 681.29L257.651 689.542L249.205 687.799L269.932 653.343L279.518 655.322L284.957 695.18L276.512 693.436ZM274.21 667.948C274.159 667.325 274.088 666.536 273.997 665.581C273.906 664.626 273.818 663.653 273.735 662.664C273.651 661.674 273.594 660.816 273.564 660.089C273.248 660.745 272.828 661.558 272.303 662.53C271.82 663.475 271.344 664.385 270.875 665.261C270.448 666.109 270.126 666.709 269.91 667.06L265.491 675.116L275.129 677.106L274.21 667.948Z" fill="#02C3BF"/>
<path d="M307.291 683.094L297.212 696.756L288.358 695.973L300.521 680.371C299.539 679.859 298.575 679.154 297.627 678.256C296.683 677.323 295.938 676.141 295.391 674.712C294.848 673.247 294.667 671.496 294.847 669.459C295.155 665.98 296.637 663.438 299.293 661.832C301.952 660.19 305.53 659.569 310.028 659.966L322.254 661.048L318.925 698.677L310.967 697.973L312.245 683.533L307.291 683.094ZM309.766 666.529C308.395 666.408 307.204 666.462 306.193 666.691C305.216 666.924 304.433 667.368 303.844 668.024C303.29 668.683 302.962 669.592 302.859 670.752C302.713 672.403 303.141 673.769 304.143 674.849C305.183 675.897 306.828 676.52 309.077 676.719L312.818 677.05L313.718 666.879L309.766 666.529Z" fill="#02C3BF"/>
<path d="M354.262 679.579L340.08 662.566L348.304 661.871L362.025 679.082L360.482 660.841L367.916 660.213L369.458 678.454L380.094 659.183L388.318 658.488L377.194 677.64L392.239 696.067L383.698 696.789L369.485 678.77L371.099 697.854L363.665 698.483L362.051 679.398L351.065 699.548L342.525 700.27L354.262 679.579Z" fill="#02C3BF"/>
<path d="M422.454 689.558L401.212 694.209L393.133 657.308L414.375 652.657L415.778 659.065L402.34 662.008L404.117 670.122L416.624 667.383L418.027 673.792L405.52 676.531L407.602 686.04L421.04 683.098L422.454 689.558Z" fill="#02C3BF"/>
<path d="M452.808 680.733L434.234 655.92L434.035 655.992C434.306 656.644 434.713 657.622 435.256 658.926C435.799 660.23 436.378 661.634 436.993 663.137C437.595 664.607 438.117 665.956 438.558 667.185L444.492 683.717L437.769 686.13L425.008 650.575L435.266 646.893L453.44 671.062L453.59 671.008L452.745 640.62L463.003 636.938L475.764 672.493L468.743 675.013L462.702 658.182C462.297 657.053 461.849 655.752 461.358 654.28C460.9 652.795 460.455 651.4 460.023 650.093C459.613 648.741 459.306 647.728 459.1 647.052L458.901 647.123L459.73 678.248L452.808 680.733Z" fill="#02C3BF"/>
<path d="M511.943 654.428L504.849 658.102L498.133 645.136C496.517 646.847 494.968 648.304 493.486 649.509C492.036 650.697 490.481 651.721 488.821 652.58C485.689 654.203 482.841 654.724 480.277 654.146C477.729 653.519 475.724 651.797 474.264 648.978L467.086 635.119L474.18 631.445L480.312 643.284C481.155 644.912 482.164 645.939 483.337 646.364C484.511 646.789 485.99 646.539 487.775 645.615C489.091 644.933 490.333 644.111 491.503 643.148C492.672 642.185 493.925 640.999 495.262 639.592L487.475 624.559L494.569 620.884L511.943 654.428Z" fill="#02C3BF"/>
<path d="M531.458 628.956C531.926 631.535 532.157 633.892 532.152 636.024C532.157 638.108 531.657 640.043 530.652 641.831C529.647 643.618 527.917 645.342 525.464 647.003C524.704 647.517 523.832 648.022 522.847 648.518C521.863 649.014 520.922 649.416 520.024 649.726L516.169 644.03C517.068 643.847 517.98 643.528 518.906 643.071C519.833 642.615 520.661 642.14 521.391 641.646C522.355 640.993 523.021 640.309 523.387 639.592C523.783 638.856 523.969 638.091 523.944 637.299C523.928 636.458 523.81 635.622 523.589 634.792L497.555 619.638L504.565 614.893L519.556 624.489C519.899 624.683 520.332 624.944 520.852 625.273C521.373 625.602 521.904 625.945 522.444 626.304C522.985 626.662 523.442 626.991 523.816 627.292L524.035 627.144C523.915 626.714 523.774 626.192 523.613 625.577C523.462 624.912 523.31 624.248 523.159 623.584C523.017 622.871 522.896 622.25 522.794 621.723L519.332 604.901L526.168 600.275L531.458 628.956Z" fill="#02C3BF"/>
<path d="M549.339 605.174L527.772 600.129L533.92 594.622L555.238 600.103L543.023 586.467L548.58 581.49L560.794 595.125L557.683 573.335L563.831 567.828L566.481 589.818L589.588 595.472L583.204 601.19L561.006 595.362L573.785 609.627L568.228 614.605L555.449 600.339L558.81 623.042L552.426 628.761L549.339 605.174Z" fill="#02C3BF"/>
<path d="M566.838 564.332L571.484 558.838L585.422 570.625C586.095 571.194 586.838 571.845 587.65 572.578C588.462 573.311 589.26 574.033 590.046 574.743C590.804 575.43 591.468 576.038 592.038 576.566C592.58 577.071 592.948 577.429 593.141 577.638L593.243 577.517L582.622 545.668L588.805 538.356L617.65 562.749L613.037 568.203L599.181 556.485C598.454 555.87 597.671 555.184 596.832 554.429C595.966 553.65 595.14 552.906 594.355 552.196C593.592 551.458 592.926 550.826 592.357 550.298C591.783 549.72 591.413 549.338 591.247 549.152L591.111 549.313L601.9 581.373L595.682 588.725L566.838 564.332Z" fill="#02C3BF"/>
<path d="M640.11 529.512L635.74 536.2L622.098 527.286L613.909 539.821L627.551 548.734L623.181 555.422L591.557 534.76L595.926 528.072L608.328 536.175L616.518 523.64L604.116 515.537L608.486 508.849L640.11 529.512Z" fill="#02C3BF"/>
<path d="M656.531 498.252L647.249 496.732L641.152 509.063L647.995 515.515L644.173 523.246L616.077 494.481L620.415 485.707L660.353 490.521L656.531 498.252ZM631.289 494.035C630.674 493.927 629.892 493.796 628.945 493.643C627.998 493.489 627.035 493.328 626.056 493.159C625.078 492.99 624.233 492.828 623.522 492.673C624.077 493.144 624.758 493.756 625.565 494.51C626.357 495.216 627.118 495.907 627.846 496.582C628.559 497.209 629.058 497.673 629.343 497.971L636.02 504.282L640.382 495.461L631.289 494.035Z" fill="#02C3BF"/>
</svg>
