<svg width="686" height="701" viewBox="0 0 686 701" fill="none" xmlns="http://www.w3.org/2000/svg">
<path d="M612.552 195.459C557.064 103.625 456.281 42.2296 341.157 42.2296C226.033 42.2296 125.249 103.626 69.761 195.461C107.729 81.9706 214.891 0.179688 341.157 0.179688C467.422 0.179688 574.584 81.9696 612.552 195.459Z" fill="#FAFAFA"/>
<path d="M59.7605 336.471C62.5745 336.471 66.0638 335.908 70.2285 334.782C73.2884 333.897 75.7722 332.982 77.68 332.039C78.439 331.663 79.1068 331.284 79.6834 330.899L114.571 392.233L135.259 428.601L137.595 432.708H161.531H193.48L167.124 389.264L161.563 380.098L149.075 359.513L138.608 342.26L128.853 326.18L116.659 306.08C119.923 303.716 124.763 298.707 131.179 291.053C137.707 283.287 143.335 275.689 148.063 268.26L187.74 204.946H136.244L106.529 254.584C93.2003 276.944 80.7943 290.595 69.3103 295.536C66.0529 296.937 62.8696 297.638 59.7605 297.638V204.946H10.1221V432.708H59.7605V336.471Z" fill="#FAFAFA"/>
<path d="M397.779 218.808C391.317 207.672 342.805 124.076 341.138 123.047C339.121 126.119 337.299 129.327 335.479 132.531L335.474 132.541C334.671 133.954 333.869 135.367 333.051 136.766L317.804 162.666L297.589 197.457C295.839 200.439 294.079 203.418 292.318 206.399C286.186 216.78 280.044 227.177 274.269 237.745C270.329 240.057 266.487 242.598 262.642 245.141L262.641 245.142L262.641 245.142C257.394 248.612 252.144 252.084 246.636 254.98C240.932 247.016 235.479 238.889 230.026 230.763L230.026 230.762C226.118 224.94 222.211 219.118 218.213 213.355C208.833 232.102 199.313 250.778 189.653 269.383C187.743 273.097 185.89 276.845 184.037 280.593C181.182 286.366 178.328 292.14 175.263 297.795C172.723 295.87 170.053 294.134 167.383 292.398C165.977 291.485 164.572 290.571 163.185 289.63C157.342 296.607 150.881 303.246 144.472 309.831L144.471 309.833L144.469 309.834C142.291 312.073 140.118 314.305 137.978 316.543C137.204 317.357 136.431 318.171 135.658 318.986L145.394 335.033C152.24 327.692 159.01 320.28 165.706 312.795C166.961 313.548 168.236 314.339 169.529 315.141C174.167 318.017 179.025 321.03 183.932 322.864C188.637 312.643 193.662 302.545 198.684 292.457L198.685 292.454L198.686 292.452C200.79 288.223 202.894 283.997 204.973 279.763C206.48 276.693 207.961 273.581 209.446 270.459C212.891 263.219 216.358 255.933 220.234 249.017C223.143 252.666 225.963 256.375 228.784 260.085L228.785 260.086L228.786 260.088L228.787 260.09C230.32 262.106 231.853 264.122 233.4 266.129C234.4 267.426 235.426 268.708 236.452 269.991L236.453 269.993C238.113 272.068 239.774 274.144 241.327 276.284C247.534 272.913 253.845 269.725 260.156 266.537L260.157 266.537C264.641 264.272 269.125 262.006 273.572 259.675C274.572 259.151 275.658 258.627 276.774 258.089L276.776 258.088C279.78 256.639 282.997 255.086 285.316 253.157C287.541 251.306 296.95 235.468 301.936 227.076L301.937 227.075C302.997 225.29 303.857 223.842 304.406 222.937C307.729 217.454 311.041 211.962 314.355 206.469L314.355 206.468L314.363 206.456C323.334 191.582 332.309 176.701 341.509 161.982C346.242 180.127 350.695 198.35 355.147 216.571L355.15 216.583L355.156 216.607C356.975 224.054 358.795 231.501 360.634 238.942C361.924 244.165 363.296 249.363 364.668 254.562C366.503 261.516 368.338 268.47 369.978 275.483C371.67 268.83 372.909 261.916 374.151 254.989C375.587 246.983 377.026 238.958 379.17 231.293C384.771 244.942 390.462 258.553 396.242 272.128C396.718 273.261 397.288 274.719 397.911 276.313C399.633 280.718 401.76 286.159 403.433 288.643C404.839 290.729 407.012 292.552 409.057 294.267C409.699 294.806 410.328 295.333 410.917 295.855C412.63 297.373 414.322 298.912 416.015 300.451L416.019 300.454L416.023 300.457L416.026 300.461C417.917 302.179 419.807 303.898 421.725 305.587C422.484 306.254 423.263 306.915 424.046 307.58L424.047 307.58C426.042 309.272 428.058 310.983 429.805 312.865C432.07 315.304 433.921 318.29 435.721 321.194L435.722 321.196L435.724 321.2C436.282 322.099 436.834 322.991 437.393 323.856C438.835 326.088 440.266 328.329 441.697 330.57L441.7 330.575C444.791 335.417 447.884 340.261 451.09 345.023C455.522 351.556 460.025 358.04 464.599 364.475C465.298 365.461 466.023 366.441 466.749 367.424L466.751 367.427C468.813 370.218 470.894 373.036 472.481 376.085C470.066 373.907 467.712 371.666 465.358 369.425L465.357 369.424L465.355 369.422L465.351 369.419L465.35 369.418C463.483 367.64 461.615 365.862 459.718 364.116C453.183 358.151 446.532 352.317 439.766 346.615C434.972 342.572 430.044 338.684 425.117 334.796L425.116 334.795L425.112 334.792C419.647 330.48 414.182 326.168 408.902 321.646C412.457 331.844 415.794 342.121 419.132 352.399L419.133 352.402L419.133 352.403C423.353 365.4 427.573 378.397 432.237 391.236C425.099 385.328 417.791 379.601 410.486 373.876L410.484 373.874L410.476 373.868L410.473 373.866L410.463 373.858C405.998 370.359 401.534 366.861 397.11 363.322C365.661 338.499 334.498 313.322 303.621 287.791C277.659 319.785 251.937 351.971 226.454 384.348C228.465 375.565 230.219 366.721 231.973 357.878L231.974 357.874C233.073 352.331 234.172 346.788 235.335 341.26C230.323 344.907 225.235 348.446 220.146 351.985L220.143 351.987L220.133 351.995C217.033 354.151 213.933 356.307 210.85 358.488L174.951 383.755L208.719 439.416C212.86 438.522 217.01 437.218 221.177 435.503C243.546 426.3 266.216 426.3 288.585 435.503C306.007 442.671 323.128 442.671 340.55 435.503C362.919 426.3 385.589 426.3 407.958 435.503C423.574 441.928 438.948 442.594 454.514 437.501L484.7 352.314C477.382 338.11 470.144 323.866 462.986 309.58C458.826 301.381 454.721 293.155 450.672 284.9C450.064 283.664 449.435 282.428 448.804 281.19L448.803 281.189C447.526 278.684 446.245 276.17 445.13 273.617C450.257 266.131 448.757 268.477 453.478 260.715C453.971 259.903 454.465 259.092 454.958 258.282C458.58 265.115 461.975 272.059 465.371 279.003L465.371 279.005L465.373 279.007C467.021 282.378 468.669 285.749 470.343 289.108C472.186 292.804 474.088 296.473 475.99 300.143L475.991 300.145L475.993 300.149L475.997 300.157L475.998 300.158C477.577 303.206 479.157 306.254 480.703 309.318C481.451 310.799 482.196 312.289 482.944 313.782L482.96 313.816L482.973 313.841L482.985 313.866L482.994 313.884L482.996 313.886L482.998 313.891L483 313.894C484.468 316.829 488.281 323.769 492.274 330.938L498.238 314.107C494.678 309.577 491.283 304.27 488.023 298.279L487.983 298.206L487.945 298.132C483.582 289.769 480.033 280.793 477.281 271.226L470.709 248.907L463.123 233.98C462.659 233.065 462.203 232.13 461.744 231.19L461.738 231.178L461.731 231.164C460.351 228.338 458.945 225.461 457.258 222.886C452.925 229.374 448.748 235.957 444.571 242.54L444.569 242.542L444.568 242.545C441.042 248.102 443.76 243.513 440.139 249.014C439.411 250.121 438.69 251.238 437.969 252.356L437.966 252.359L437.964 252.362C436.187 255.116 434.406 257.876 432.491 260.517C428.376 257.295 424.298 254.026 420.257 250.711C419.63 250.204 418.973 249.702 418.308 249.194C416.358 247.705 414.346 246.168 412.86 244.326C411.275 242.361 409.972 240.001 408.706 237.708L408.706 237.707L408.705 237.706C408.25 236.881 407.8 236.066 407.343 235.28L397.779 218.808Z" fill="#FAFAFA"/>
<path d="M526.058 456.958C526.126 456.883 526.193 456.808 526.261 456.733C524.041 456.002 521.824 455.181 519.61 454.27C502.187 447.102 485.067 447.102 467.644 454.27C445.276 463.473 422.605 463.473 400.237 454.27C382.814 447.102 365.694 447.102 348.271 454.27C325.903 463.473 303.232 463.473 280.863 454.27C263.441 447.102 246.32 447.102 228.898 454.27C206.529 463.473 183.859 463.473 161.49 454.27C158.076 452.866 154.673 451.736 151.277 450.882C152.279 452.079 153.293 453.266 154.317 454.443C155.341 455.62 156.376 456.788 157.423 457.945C158.469 459.103 159.527 460.251 160.595 461.389C161.663 462.527 162.742 463.654 163.831 464.771C164.92 465.889 166.02 466.996 167.13 468.093C168.241 469.19 169.361 470.276 170.492 471.351C171.622 472.426 172.763 473.491 173.914 474.545C175.065 475.599 176.226 476.642 177.396 477.674C178.567 478.706 179.747 479.727 180.937 480.737C182.126 481.747 183.326 482.745 184.534 483.733C185.743 484.72 186.961 485.696 188.188 486.66C189.415 487.624 190.651 488.577 191.896 489.518C192.397 489.896 192.9 490.273 193.403 490.647C202.636 490.912 211.863 489.129 221.177 485.297C243.546 476.094 266.216 476.094 288.585 485.297C306.007 492.465 323.128 492.465 340.55 485.297C362.919 476.094 385.589 476.094 407.958 485.297C425.38 492.465 442.501 492.465 459.923 485.297C474.414 479.335 489.031 477.236 503.612 478.998C503.8 478.835 503.988 478.672 504.176 478.508C505.722 477.162 507.25 475.798 508.761 474.416C510.273 473.032 511.768 471.631 513.246 470.212C514.723 468.792 516.182 467.355 517.624 465.899C519.066 464.444 520.49 462.971 521.896 461.481C523.302 459.99 524.69 458.483 526.058 456.958Z" fill="#FAFAFA"/>
<path d="M469.467 503.841C470.15 503.427 470.831 503.01 471.51 502.59C470.223 503.042 468.935 503.534 467.644 504.064C445.276 513.267 422.605 513.267 400.237 504.064C382.814 496.896 365.694 496.896 348.271 504.064C325.903 513.267 303.232 513.267 280.863 504.064C263.441 496.896 246.32 496.896 228.898 504.064C225.678 505.389 222.452 506.523 219.222 507.466C219.238 507.475 219.253 507.484 219.269 507.493C220.627 508.261 221.992 509.017 223.365 509.76C224.737 510.503 226.116 511.233 227.502 511.95C229.273 512.872 231.054 513.772 232.846 514.65C234.639 515.529 236.441 516.386 238.254 517.22C240.067 518.055 241.89 518.867 243.723 519.658C245.555 520.448 247.398 521.216 249.249 521.962C251.1 522.707 252.961 523.43 254.83 524.131C256.699 524.831 258.576 525.509 260.462 526.164C262.347 526.818 264.24 527.45 266.141 528.058C268.042 528.667 269.95 529.253 271.865 529.815C273.78 530.377 275.702 530.916 277.63 531.432C279.558 531.947 281.492 532.439 283.433 532.908C285.373 533.377 287.318 533.822 289.27 534.243C291.22 534.664 293.176 535.062 295.137 535.435C297.098 535.809 299.062 536.158 301.031 536.484C303.001 536.81 304.974 537.112 306.95 537.391C308.927 537.668 310.906 537.922 312.889 538.152C314.871 538.382 316.857 538.588 318.845 538.769C320.832 538.951 322.822 539.108 324.813 539.241C326.805 539.375 328.798 539.484 330.791 539.568C332.786 539.653 334.781 539.714 336.776 539.75C338.772 539.786 340.768 539.798 342.764 539.786C344.759 539.774 346.755 539.737 348.75 539.676C350.745 539.615 352.739 539.53 354.732 539.421C356.725 539.312 358.716 539.178 360.706 539.021C362.696 538.863 364.683 538.681 366.668 538.475C368.654 538.269 370.636 538.039 372.616 537.785C374.595 537.53 376.572 537.252 378.545 536.951C380.518 536.648 382.487 536.322 384.452 535.972C386.417 535.622 388.377 535.248 390.333 534.85C392.289 534.452 394.24 534.031 396.185 533.585C398.131 533.14 400.071 532.671 402.005 532.179C403.94 531.687 405.868 531.171 407.79 530.631C409.711 530.092 411.626 529.53 413.534 528.944C415.492 528.34 417.442 527.712 419.384 527.06C421.327 526.409 423.261 525.734 425.187 525.035C427.113 524.335 429.03 523.612 430.938 522.866C432.846 522.12 434.745 521.351 436.634 520.558C438.523 519.765 440.402 518.949 442.271 518.11C444.141 517.271 446 516.41 447.848 515.525C449.695 514.641 451.532 513.733 453.358 512.804C455.184 511.874 456.998 510.922 458.8 509.948C460.603 508.974 462.393 507.978 464.171 506.96C465.949 505.942 467.714 504.902 469.467 503.841Z" fill="#FAFAFA"/>
<path d="M69.761 442.154C107.729 555.644 214.891 637.435 341.157 637.435C442.184 637.435 530.981 585.075 581.891 506.011C594.609 486.259 604.963 464.841 612.552 442.156C597.157 467.635 578.276 490.771 556.569 510.903C500.036 563.332 424.34 595.385 341.157 595.385C253.196 595.385 173.605 559.543 116.194 501.666C111.47 496.903 106.895 491.991 102.478 486.937C90.3229 473.028 79.3637 458.047 69.761 442.154Z" fill="#FAFAFA"/>
<path d="M166.747 366.252C171.942 352.276 177.921 336.19 181.284 329.229L156.188 352.825L165.83 368.719C166.132 367.906 166.438 367.083 166.747 366.252Z" fill="#FAFAFA"/>
<path d="M641.95 293.715C637.898 301.369 633.733 307.503 629.456 312.118L672.172 432.668H628.95L598.728 331.028C594.794 332.995 591.845 334.246 589.88 334.78C589.146 334.98 588.55 335.08 588.091 335.08V432.668H550.44V335.08C550.155 335.08 549.567 334.95 548.677 334.691C547.808 334.438 546.651 334.061 545.206 333.561C542.279 332.548 540.478 331.703 539.803 331.028L509.581 432.668H505.98H466.359L490.712 363.94L498.481 342.014L507.018 317.923L509.075 312.118C504.797 307.503 500.576 301.369 496.412 293.715C492.36 285.948 489.039 277.563 486.45 268.558L467.709 204.906H508.23L523.088 257.921C527.14 272.216 531.136 282.571 535.076 288.987C536.816 291.744 538.755 294.074 540.89 295.978C543.725 298.507 546.909 300.285 550.44 301.312V204.906H588.091V301.312C591.615 300.268 594.798 298.468 597.641 295.91C599.701 294.057 601.583 291.805 603.286 289.156C607.338 282.853 611.39 272.441 615.443 257.921L630.3 204.906H670.821L652.08 268.558C649.491 277.675 646.115 286.061 641.95 293.715Z" fill="#FAFAFA"/>
<path d="M40.7337 529.849L36.3803 521.858L46.6436 500.662L29.8249 509.824L26.003 502.809L59.1758 484.737L62.9977 491.753L46.9224 500.51L69.4771 503.647L73.5521 511.127L51.0355 507.729L40.7337 529.849Z" fill="#FAFAFA"/>
<path d="M89.5347 565.832C87.1936 567.59 84.8629 568.921 82.5425 569.825C80.2503 570.708 77.9896 571.105 75.7604 571.014C73.5523 570.952 71.4463 570.35 69.4423 569.208C67.4383 568.066 65.5785 566.353 63.8632 564.068C61.7454 561.248 60.5165 558.465 60.1764 555.721C59.8858 552.984 60.35 550.342 61.569 547.795C62.8375 545.255 64.7409 542.855 67.2793 540.597L62.9272 534.8L49.896 544.585L45.0992 538.196L75.308 515.514L80.1048 521.903L68.2582 530.798L72.7055 536.721C75.4488 535.147 78.129 534.193 80.7459 533.86C83.4123 533.534 85.938 533.931 88.3229 535.052C90.7361 536.151 92.9592 538.054 94.9922 540.762C97.2794 543.808 98.5155 546.806 98.7004 549.754C98.9348 552.71 98.2414 555.546 96.6203 558.263C95.0275 560.959 92.6656 563.482 89.5347 565.832ZM74.3185 545.566C72.2031 547.155 70.5638 548.76 69.4007 550.384C68.2376 552.007 67.6282 553.633 67.5726 555.263C67.5171 556.892 68.0717 558.483 69.2364 560.034C70.4436 561.642 71.8373 562.646 73.4177 563.047C74.9981 563.449 76.7192 563.303 78.5812 562.611C80.4644 561.947 82.4637 560.821 84.5791 559.232C86.6946 557.644 88.3339 556.038 89.497 554.415C90.6813 552.82 91.3012 551.208 91.3568 549.578C91.4336 547.977 90.879 546.387 89.693 544.807C88.5071 543.227 87.1133 542.223 85.5118 541.794C83.9314 541.392 82.1996 541.524 80.3165 542.188C78.4333 542.852 76.434 543.978 74.3185 545.566Z" fill="#FAFAFA"/>
<path d="M118.51 568.418C121.934 571.877 123.676 575.141 123.735 578.209C123.844 581.277 122.595 584.101 119.988 586.682C118.81 587.848 117.509 588.789 116.083 589.505C114.683 590.197 113.147 590.551 111.476 590.567C109.855 590.584 108.149 590.164 106.357 589.306C104.566 588.449 102.702 587.043 100.767 585.088L98.3475 582.644L88.797 592.098L83.1767 586.42L110.023 559.845L118.51 568.418ZM113.55 572.732L110.981 570.138L103.01 578.029L104.871 579.909C105.938 580.987 106.994 581.778 108.039 582.282C109.084 582.786 110.118 582.953 111.142 582.784C112.165 582.614 113.153 582.058 114.106 581.115C115.434 579.8 116.052 578.469 115.959 577.122C115.891 575.75 115.088 574.286 113.55 572.732Z" fill="#FAFAFA"/>
<path d="M131.303 581.363L136.898 585.887L125.423 600.082C124.869 600.767 124.234 601.524 123.519 602.352C122.804 603.181 122.101 603.995 121.408 604.796C120.737 605.569 120.145 606.246 119.629 606.828C119.136 607.381 118.787 607.757 118.582 607.954L118.706 608.054L150.311 596.73L157.758 602.751L134.01 632.128L128.455 627.637L139.864 613.525C140.463 612.784 141.13 611.986 141.867 611.13C142.627 610.247 143.353 609.406 144.045 608.605C144.765 607.826 145.383 607.146 145.898 606.565C146.463 605.979 146.837 605.601 147.02 605.431L146.855 605.298L115.042 616.794L107.554 610.74L131.303 581.363Z" fill="#FAFAFA"/>
<path d="M167.717 653.819L160.934 649.598L169.542 635.762L156.83 627.852L148.221 641.688L141.438 637.467L161.395 605.394L168.178 609.614L160.351 622.192L173.064 630.102L180.89 617.524L187.674 621.745L167.717 653.819Z" fill="#FAFAFA"/>
<path d="M206.348 637.901C204.973 637.26 203.616 636.957 202.276 636.993C200.967 637.044 199.707 637.409 198.494 638.089C197.297 638.736 196.17 639.69 195.116 640.949C194.093 642.223 193.163 643.755 192.328 645.545C191.194 647.974 190.512 650.185 190.281 652.18C190.098 654.157 190.436 655.892 191.297 657.383C192.157 658.875 193.579 660.084 195.56 661.009C196.966 661.665 198.431 662.154 199.955 662.476C201.51 662.813 203.237 663.075 205.136 663.26L202.293 669.349C200.508 669.255 198.813 669.008 197.208 668.61C195.604 668.211 193.891 667.586 192.069 666.736C188.553 665.095 185.981 663.018 184.351 660.505C182.768 657.976 182.045 655.147 182.182 652.019C182.334 648.859 183.23 645.521 184.871 642.005C186.08 639.417 187.536 637.216 189.238 635.403C190.956 633.558 192.852 632.165 194.925 631.226C197.031 630.301 199.275 629.87 201.66 629.932C204.076 630.009 206.579 630.652 209.168 631.861C210.861 632.652 212.451 633.666 213.936 634.904C215.468 636.125 216.845 637.469 218.068 638.935L212.966 643.735C211.971 642.531 210.923 641.4 209.822 640.341C208.752 639.296 207.594 638.483 206.348 637.901Z" fill="#FAFAFA"/>
<path d="M244.264 686.055L235.628 683.187L228.659 660.692L222.623 678.868L215.041 676.351L226.947 640.5L234.529 643.018L228.76 660.391L247.383 647.287L255.467 649.971L236.693 662.858L244.264 686.055Z" fill="#FAFAFA"/>
<path d="M276.41 693.345L275.534 683.98L262.062 681.199L257.549 689.451L249.104 687.708L269.831 653.252L279.416 655.231L284.856 695.089L276.41 693.345ZM274.109 667.857C274.057 667.234 273.986 666.445 273.895 665.49C273.804 664.535 273.717 663.563 273.633 662.573C273.549 661.583 273.492 660.725 273.462 659.999C273.147 660.654 272.727 661.467 272.202 662.44C271.719 663.384 271.243 664.294 270.774 665.17C270.347 666.018 270.025 666.618 269.808 666.969L265.39 675.025L275.027 677.015L274.109 667.857Z" fill="#FAFAFA"/>
<path d="M307.189 683.004L297.111 696.665L288.257 695.882L300.419 680.28C299.438 679.768 298.473 679.063 297.526 678.165C296.581 677.232 295.836 676.05 295.29 674.621C294.747 673.157 294.565 671.406 294.745 669.368C295.053 665.889 296.535 663.347 299.191 661.741C301.851 660.099 305.429 659.478 309.926 659.876L322.153 660.957L318.824 698.586L310.866 697.882L312.143 683.442L307.189 683.004ZM309.664 666.439C308.294 666.317 307.103 666.371 306.091 666.6C305.115 666.833 304.332 667.277 303.742 667.933C303.188 668.592 302.86 669.501 302.757 670.661C302.611 672.312 303.039 673.678 304.042 674.758C305.082 675.806 306.726 676.43 308.975 676.629L312.717 676.96L313.617 666.788L309.664 666.439Z" fill="#FAFAFA"/>
<path d="M354.16 679.488L339.978 662.476L348.202 661.78L361.923 678.991L360.381 660.75L367.814 660.122L369.356 678.363L379.992 659.092L388.216 658.397L377.093 677.549L392.137 695.976L383.597 696.698L369.383 678.679L370.997 697.763L363.564 698.392L361.95 679.308L350.964 699.457L342.423 700.18L354.16 679.488Z" fill="#FAFAFA"/>
<path d="M422.353 689.468L401.111 694.118L393.031 657.217L414.273 652.566L415.676 658.975L402.239 661.917L404.015 670.031L416.522 667.293L417.926 673.701L405.418 676.44L407.501 685.949L420.938 683.007L422.353 689.468Z" fill="#FAFAFA"/>
<path d="M452.706 680.642L434.132 655.83L433.933 655.901C434.205 656.553 434.612 657.531 435.155 658.835C435.698 660.139 436.277 661.543 436.891 663.046C437.494 664.516 438.015 665.866 438.456 667.094L444.39 683.627L437.668 686.039L424.906 650.484L435.164 646.803L453.339 670.971L453.488 670.918L452.643 640.529L462.901 636.847L475.663 672.402L468.641 674.922L462.6 658.091C462.195 656.962 461.747 655.662 461.256 654.189C460.798 652.704 460.353 651.309 459.922 650.002C459.512 648.651 459.204 647.637 458.999 646.961L458.8 647.032L459.628 678.157L452.706 680.642Z" fill="#FAFAFA"/>
<path d="M511.841 654.337L504.747 658.011L498.031 645.045C496.415 646.756 494.866 648.214 493.385 649.418C491.935 650.606 490.38 651.63 488.72 652.49C485.588 654.112 482.74 654.634 480.176 654.055C477.627 653.429 475.623 651.706 474.163 648.887L466.984 635.028L474.078 631.354L480.21 643.193C481.054 644.822 482.062 645.848 483.236 646.273C484.409 646.698 485.889 646.448 487.674 645.524C488.989 644.842 490.232 644.02 491.401 643.057C492.57 642.094 493.824 640.909 495.16 639.501L487.374 624.468L494.467 620.793L511.841 654.337Z" fill="#FAFAFA"/>
<path d="M531.356 628.865C531.824 631.445 532.056 633.801 532.051 635.933C532.056 638.017 531.555 639.953 530.55 641.74C529.545 643.527 527.816 645.251 525.362 646.912C524.603 647.426 523.73 647.931 522.746 648.427C521.761 648.923 520.82 649.325 519.922 649.635L516.067 643.939C516.966 643.756 517.879 643.437 518.805 642.981C519.731 642.524 520.559 642.049 521.29 641.555C522.254 640.902 522.919 640.218 523.286 639.501C523.682 638.765 523.867 638 523.842 637.208C523.827 636.367 523.708 635.531 523.487 634.701L497.453 619.547L504.464 614.803L519.454 624.399C519.798 624.592 520.23 624.853 520.751 625.182C521.272 625.511 521.802 625.855 522.343 626.213C522.883 626.571 523.34 626.901 523.714 627.201L523.933 627.053C523.813 626.623 523.672 626.101 523.512 625.486C523.36 624.822 523.209 624.157 523.058 623.493C522.916 622.78 522.794 622.16 522.693 621.632L519.23 604.81L526.066 600.184L531.356 628.865Z" fill="#FAFAFA"/>
<path d="M549.237 605.083L527.671 600.038L533.819 594.531L555.136 600.012L542.922 586.376L548.478 581.399L560.693 595.034L557.582 573.244L563.729 567.737L566.38 589.727L589.486 595.381L583.102 601.099L560.904 595.271L573.683 609.536L568.127 614.514L555.348 600.248L558.708 622.951L552.324 628.67L549.237 605.083Z" fill="#FAFAFA"/>
<path d="M566.736 564.241L571.383 558.747L585.32 570.534C585.993 571.103 586.736 571.754 587.548 572.487C588.36 573.22 589.159 573.942 589.944 574.652C590.702 575.34 591.366 575.947 591.936 576.475C592.479 576.981 592.847 577.338 593.039 577.547L593.142 577.426L582.52 545.577L588.704 538.265L617.548 562.659L612.936 568.112L599.079 556.394C598.352 555.779 597.569 555.094 596.73 554.338C595.864 553.559 595.039 552.815 594.253 552.105C593.491 551.368 592.825 550.735 592.255 550.207C591.681 549.629 591.311 549.247 591.146 549.061L591.009 549.222L601.798 581.282L595.58 588.634L566.736 564.241Z" fill="#FAFAFA"/>
<path d="M640.008 529.421L635.639 536.109L621.997 527.196L613.807 539.73L627.449 548.643L623.079 555.331L591.455 534.669L595.825 527.981L608.226 536.084L616.416 523.549L604.015 515.446L608.384 508.758L640.008 529.421Z" fill="#FAFAFA"/>
<path d="M656.429 498.161L647.147 496.641L641.051 508.972L647.894 515.425L644.071 523.155L615.976 494.39L620.314 485.616L660.252 490.431L656.429 498.161ZM631.188 493.944C630.572 493.836 629.791 493.706 628.844 493.552C627.896 493.398 626.934 493.237 625.955 493.068C624.976 492.899 624.131 492.737 623.421 492.582C623.975 493.053 624.656 493.665 625.464 494.419C626.256 495.125 627.016 495.816 627.745 496.491C628.457 497.119 628.956 497.582 629.241 497.88L635.918 504.192L640.28 495.37L631.188 493.944Z" fill="#FAFAFA"/>
</svg>
