<svg width="686" height="701" viewBox="0 0 686 701" fill="none" xmlns="http://www.w3.org/2000/svg">
<path d="M612.224 195.502C556.736 103.668 455.952 42.2726 340.829 42.2726C225.705 42.2726 124.921 103.669 69.4328 195.504C107.401 82.0136 214.563 0.222656 340.829 0.222656C467.094 0.222656 574.256 82.0126 612.224 195.502Z" fill="#1B1B1B"/>
<path d="M59.4324 336.514C62.2463 336.514 65.7357 335.951 69.9003 334.825C72.9603 333.94 75.4441 333.025 77.3519 332.082C78.1109 331.706 78.7786 331.326 79.3553 330.942L114.243 392.276L134.93 428.644L137.267 432.751H161.203H193.152L166.796 389.307L161.235 380.141L148.747 359.556L138.28 342.303L128.525 326.223L116.331 306.123C119.595 303.759 124.435 298.75 130.851 291.096C137.379 283.33 143.007 275.732 147.735 268.303L187.412 204.989H135.916L106.2 254.627C92.8722 276.987 80.4661 290.638 68.9822 295.579C65.7247 296.98 62.5415 297.681 59.4324 297.681V204.989H9.794V432.751H59.4324V336.514Z" fill="#1B1B1B"/>
<path d="M397.451 218.851C390.989 207.715 342.477 124.118 340.81 123.09C338.793 126.162 336.97 129.37 335.151 132.574L335.145 132.584C334.343 133.997 333.541 135.41 332.723 136.809L317.476 162.709L297.261 197.5C295.511 200.482 293.751 203.461 291.99 206.441C285.857 216.823 279.716 227.22 273.941 237.788C270.001 240.1 266.158 242.641 262.314 245.184L262.313 245.184L262.312 245.185C257.066 248.655 251.816 252.127 246.308 255.023C240.604 247.059 235.151 238.932 229.698 230.806L229.698 230.805C225.79 224.983 221.883 219.161 217.885 213.398C208.505 232.145 198.985 250.821 189.325 269.426C187.415 273.14 185.562 276.888 183.709 280.636C180.854 286.409 177.999 292.183 174.935 297.838C172.395 295.913 169.725 294.177 167.054 292.441C165.649 291.528 164.244 290.614 162.857 289.673C157.014 296.65 150.553 303.289 144.144 309.874L144.143 309.876L144.141 309.877C141.963 312.116 139.79 314.348 137.65 316.585C136.876 317.399 136.103 318.214 135.33 319.029L145.065 335.076C151.912 327.735 158.682 320.322 165.378 312.838C166.632 313.591 167.908 314.382 169.201 315.184C173.839 318.06 178.697 321.073 183.603 322.906C188.309 312.686 193.334 302.588 198.355 292.5L198.357 292.497L198.358 292.495C200.462 288.266 202.566 284.04 204.644 279.806C206.152 276.736 207.633 273.624 209.118 270.502C212.563 263.262 216.029 255.976 219.906 249.059C222.815 252.709 225.635 256.418 228.456 260.128L228.456 260.129L228.458 260.131L228.459 260.133C229.992 262.149 231.525 264.165 233.072 266.172C234.072 267.469 235.097 268.751 236.124 270.034L236.125 270.036C237.785 272.111 239.446 274.187 240.999 276.327C247.206 272.956 253.517 269.768 259.828 266.58L259.828 266.58C264.313 264.315 268.797 262.049 273.244 259.718C274.244 259.194 275.33 258.67 276.446 258.132L276.448 258.131C279.451 256.682 282.669 255.129 284.987 253.2C287.213 251.349 296.622 235.511 301.608 227.119L301.609 227.118C302.669 225.333 303.529 223.885 304.078 222.98C307.401 217.497 310.713 212.005 314.027 206.512L314.027 206.511L314.034 206.499C323.005 191.625 331.981 176.744 341.181 162.025C345.914 180.17 350.367 198.393 354.819 216.614L354.822 216.626L354.828 216.65C356.647 224.097 358.467 231.544 360.306 238.985C361.596 244.208 362.968 249.406 364.34 254.605C366.175 261.559 368.01 268.513 369.65 275.526C371.342 268.873 372.581 261.959 373.823 255.032C375.259 247.026 376.697 239.001 378.841 231.336C384.443 244.985 390.134 258.596 395.913 272.171C396.39 273.304 396.96 274.762 397.583 276.356C399.304 280.761 401.431 286.202 403.105 288.686C404.511 290.772 406.684 292.595 408.729 294.31C409.371 294.849 410 295.376 410.589 295.898C412.302 297.416 413.994 298.955 415.687 300.494L415.691 300.497L415.694 300.5L415.698 300.504C417.589 302.222 419.479 303.941 421.397 305.63C422.156 306.297 422.935 306.958 423.718 307.623L423.719 307.623C425.713 309.315 427.73 311.026 429.477 312.908C431.742 315.347 433.593 318.333 435.393 321.237L435.394 321.239L435.396 321.243C435.954 322.142 436.506 323.034 437.065 323.899C438.507 326.131 439.937 328.372 441.369 330.613L441.371 330.618C444.463 335.46 447.556 340.304 450.762 345.066C455.194 351.599 459.697 358.083 464.271 364.518C464.97 365.504 465.694 366.484 466.421 367.467L466.423 367.47C468.485 370.261 470.566 373.079 472.152 376.128C469.738 373.95 467.384 371.709 465.03 369.468L465.029 369.467L465.027 369.465L465.023 369.462L465.022 369.461C463.154 367.683 461.287 365.905 459.39 364.159C452.855 358.194 446.204 352.36 439.438 346.658C434.644 342.615 429.716 338.727 424.789 334.839L424.787 334.838L424.784 334.835C419.319 330.523 413.854 326.211 408.573 321.689C412.129 331.887 415.466 342.164 418.804 352.442L418.805 352.445L418.805 352.446C423.025 365.443 427.245 378.44 431.909 391.279C424.771 385.371 417.463 379.644 410.158 373.919L410.156 373.917L410.148 373.911L410.145 373.909L410.135 373.901C405.67 370.402 401.206 366.904 396.782 363.365C365.333 338.542 334.17 313.365 303.292 287.834C277.331 319.828 251.609 352.014 226.126 384.391C228.137 375.608 229.891 366.764 231.645 357.921L231.645 357.917C232.745 352.374 233.844 346.831 235.007 341.303C229.995 344.95 224.906 348.489 219.818 352.028L219.815 352.03L219.804 352.038C216.705 354.194 213.605 356.35 210.522 358.531L174.623 383.798L208.391 439.459C212.532 438.565 216.682 437.261 220.849 435.546C243.217 426.343 265.888 426.343 288.257 435.546C305.679 442.714 322.8 442.714 340.222 435.546C362.591 426.343 385.261 426.343 407.63 435.546C423.246 441.971 438.62 442.637 454.186 437.544L484.372 352.357C477.054 338.153 469.816 323.909 462.658 309.623C458.497 301.424 454.393 293.198 450.344 284.943C449.736 283.706 449.106 282.471 448.476 281.233L448.475 281.231C447.198 278.727 445.917 276.213 444.802 273.66C449.929 266.174 448.429 268.52 453.15 260.758C453.643 259.946 454.137 259.135 454.63 258.325C458.252 265.158 461.647 272.102 465.043 279.046L465.043 279.048L465.044 279.05C466.693 282.421 468.341 285.792 470.015 289.151C471.858 292.847 473.76 296.516 475.661 300.186L475.662 300.188L475.665 300.192L475.669 300.2L475.67 300.201C477.249 303.249 478.829 306.297 480.375 309.361C481.123 310.842 481.868 312.332 482.615 313.825L482.632 313.859L482.645 313.884L482.657 313.909L482.666 313.927L482.667 313.929L482.67 313.934L482.671 313.937C484.14 316.872 487.953 323.812 491.946 330.981L497.91 314.15C494.35 309.62 490.955 304.313 487.695 298.322L487.655 298.249L487.617 298.175C483.253 289.812 479.705 280.836 476.953 271.269L470.381 248.95L462.794 234.023C462.331 233.108 461.875 232.173 461.416 231.233L461.41 231.221L461.403 231.207C460.023 228.381 458.617 225.504 456.93 222.929C452.597 229.417 448.42 236 444.243 242.583L444.241 242.585L444.24 242.588C440.714 248.145 443.431 243.556 439.811 249.057C439.082 250.164 438.362 251.281 437.64 252.399L437.638 252.402L437.636 252.405C435.859 255.159 434.078 257.919 432.163 260.56C428.048 257.337 423.97 254.069 419.929 250.754C419.302 250.247 418.645 249.745 417.98 249.237C416.03 247.748 414.018 246.211 412.532 244.369C410.947 242.404 409.644 240.044 408.378 237.751L408.378 237.75L408.377 237.748C407.922 236.924 407.472 236.109 407.015 235.323L397.451 218.851Z" fill="#1B1B1B"/>
<path d="M525.73 457.001C525.798 456.926 525.865 456.851 525.932 456.776C523.713 456.045 521.496 455.224 519.282 454.313C501.859 447.145 484.739 447.145 467.316 454.313C444.948 463.516 422.277 463.516 399.908 454.313C382.486 447.145 365.366 447.145 347.943 454.313C325.575 463.516 302.904 463.516 280.535 454.313C263.113 447.145 245.992 447.145 228.57 454.313C206.201 463.516 183.531 463.516 161.162 454.313C157.748 452.909 154.345 451.779 150.949 450.925C151.951 452.122 152.965 453.309 153.989 454.486C155.013 455.663 156.048 456.831 157.095 457.988C158.141 459.146 159.199 460.294 160.267 461.432C161.335 462.569 162.413 463.697 163.503 464.814C164.592 465.932 165.692 467.039 166.802 468.136C167.913 469.233 169.033 470.319 170.164 471.394C171.294 472.469 172.435 473.534 173.586 474.588C174.737 475.642 175.898 476.685 177.068 477.717C178.239 478.749 179.419 479.77 180.609 480.78C181.798 481.79 182.997 482.788 184.206 483.775C185.415 484.763 186.633 485.739 187.86 486.703C189.087 487.667 190.323 488.62 191.568 489.561C192.069 489.939 192.571 490.316 193.075 490.69C202.308 490.955 211.535 489.172 220.849 485.34C243.217 476.137 265.888 476.137 288.257 485.34C305.679 492.508 322.8 492.508 340.222 485.34C362.591 476.137 385.261 476.137 407.63 485.34C425.052 492.508 442.173 492.508 459.595 485.34C474.086 479.378 488.703 477.278 503.283 479.041C503.472 478.878 503.66 478.715 503.848 478.551C505.394 477.205 506.922 475.841 508.433 474.459C509.945 473.075 511.44 471.674 512.917 470.255C514.395 468.835 515.854 467.398 517.296 465.942C518.738 464.487 520.162 463.014 521.568 461.524C522.974 460.033 524.362 458.526 525.73 457.001Z" fill="#1B1B1B"/>
<path d="M469.139 503.884C469.822 503.47 470.503 503.053 471.182 502.633C469.895 503.085 468.606 503.576 467.316 504.107C444.948 513.31 422.277 513.31 399.908 504.107C382.486 496.939 365.366 496.939 347.943 504.107C325.575 513.31 302.904 513.31 280.535 504.107C263.113 496.939 245.992 496.939 228.57 504.107C225.35 505.432 222.124 506.566 218.894 507.509C218.91 507.518 218.925 507.527 218.941 507.536C220.299 508.304 221.664 509.06 223.037 509.803C224.409 510.546 225.788 511.276 227.174 511.993C228.945 512.915 230.726 513.815 232.518 514.693C234.31 515.572 236.113 516.429 237.926 517.263C239.739 518.098 241.562 518.91 243.395 519.701C245.227 520.491 247.069 521.259 248.921 522.005C250.772 522.75 252.632 523.473 254.501 524.174C256.371 524.874 258.248 525.552 260.134 526.206C262.019 526.861 263.912 527.493 265.813 528.101C267.714 528.71 269.622 529.296 271.537 529.858C273.452 530.42 275.374 530.959 277.302 531.475C279.23 531.99 281.164 532.482 283.105 532.951C285.045 533.42 286.99 533.865 288.941 534.286C290.892 534.707 292.848 535.105 294.809 535.478C296.769 535.852 298.734 536.201 300.703 536.527C302.673 536.853 304.646 537.155 306.622 537.434C308.598 537.711 310.578 537.965 312.561 538.195C314.543 538.425 316.528 538.631 318.516 538.812C320.504 538.994 322.494 539.151 324.485 539.284C326.477 539.418 328.469 539.527 330.463 539.611C332.457 539.696 334.452 539.757 336.448 539.793C338.444 539.829 340.439 539.841 342.436 539.829C344.431 539.817 346.427 539.78 348.422 539.719C350.417 539.658 352.411 539.573 354.404 539.464C356.397 539.355 358.388 539.221 360.378 539.064C362.367 538.906 364.355 538.724 366.34 538.518C368.325 538.312 370.308 538.082 372.288 537.828C374.267 537.573 376.244 537.295 378.217 536.994C380.189 536.691 382.158 536.365 384.124 536.015C386.088 535.665 388.049 535.291 390.005 534.893C391.961 534.495 393.912 534.074 395.857 533.628C397.803 533.183 399.743 532.714 401.677 532.222C403.611 531.73 405.54 531.214 407.461 530.674C409.383 530.135 411.297 529.573 413.206 528.987C415.163 528.383 417.114 527.755 419.056 527.103C420.999 526.452 422.933 525.777 424.858 525.078C426.784 524.378 428.702 523.655 430.61 522.909C432.518 522.163 434.417 521.394 436.306 520.601C438.195 519.808 440.074 518.992 441.943 518.153C443.813 517.314 445.671 516.453 447.52 515.568C449.367 514.684 451.204 513.776 453.03 512.847C454.856 511.917 456.67 510.965 458.472 509.991C460.275 509.017 462.065 508.021 463.843 507.003C465.621 505.985 467.386 504.945 469.139 503.884Z" fill="#1B1B1B"/>
<path d="M69.4328 442.197C107.401 555.687 214.563 637.478 340.829 637.478C441.855 637.478 530.652 585.118 581.563 506.054C594.281 486.302 604.635 464.884 612.224 442.199C596.829 467.678 577.948 490.814 556.24 510.946C499.708 563.375 424.012 595.428 340.829 595.428C252.867 595.428 173.277 559.586 115.866 501.709C111.141 496.946 106.567 492.034 102.15 486.98C89.9948 473.071 79.0355 458.089 69.4328 442.197Z" fill="#1B1B1B"/>
<path d="M166.419 366.295C171.614 352.319 177.593 336.232 180.955 329.272L155.859 352.868L165.502 368.762C165.804 367.949 166.11 367.126 166.419 366.295Z" fill="#1B1B1B"/>
<path d="M641.622 293.758C637.57 301.412 633.405 307.546 629.128 312.161L671.844 432.711H628.621L598.399 331.071C594.466 333.038 591.517 334.289 589.552 334.823C588.818 335.023 588.222 335.123 587.763 335.123V432.711H550.112V335.123C549.827 335.123 549.239 334.993 548.349 334.734C547.48 334.481 546.323 334.104 544.878 333.604C541.951 332.59 540.15 331.746 539.475 331.071L509.253 432.711H505.652H466.03L490.384 363.983L498.153 342.057L506.69 317.966L508.746 312.161C504.469 307.546 500.248 301.412 496.084 293.758C492.031 285.991 488.711 277.606 486.122 268.601L467.381 204.949H507.902L522.76 257.964C526.812 272.259 530.808 282.614 534.747 289.03C536.488 291.787 538.426 294.117 540.562 296.021C543.397 298.55 546.581 300.328 550.112 301.355V204.949H587.763V301.355C591.286 300.311 594.47 298.511 597.312 295.953C599.373 294.1 601.255 291.848 602.958 289.199C607.01 282.896 611.062 272.484 615.114 257.964L629.972 204.949H670.493L651.752 268.601C649.163 277.718 645.787 286.104 641.622 293.758Z" fill="#1B1B1B"/>
<path d="M40.4056 529.892L36.0522 521.901L46.3155 500.705L29.4968 509.867L25.6749 502.852L58.8477 484.78L62.6695 491.796L46.5942 500.553L69.149 503.69L73.224 511.17L50.7073 507.772L40.4056 529.892Z" fill="#1B1B1B"/>
<path d="M89.2066 565.875C86.8655 567.633 84.5347 568.964 82.2143 569.868C79.9222 570.751 77.6615 571.148 75.4322 571.057C73.2242 570.995 71.1182 570.393 69.1142 569.251C67.1101 568.109 65.2504 566.396 63.535 564.111C61.4173 561.291 60.1884 558.508 59.8483 555.764C59.5576 553.027 60.0218 550.385 61.2409 547.838C62.5094 545.298 64.4128 542.898 66.9511 540.64L62.5991 534.843L49.5679 544.627L44.7711 538.239L74.9799 515.557L79.7767 521.946L67.9301 530.841L72.3774 536.764C75.1207 535.19 77.8008 534.236 80.4178 533.903C83.0842 533.577 85.6098 533.974 87.9948 535.095C90.4079 536.194 92.631 538.097 94.6641 540.805C96.9513 543.851 98.1874 546.849 98.3723 549.797C98.6067 552.753 97.9133 555.589 96.2922 558.306C94.6994 561.002 92.3375 563.525 89.2066 565.875ZM73.9904 545.609C71.875 547.198 70.2357 548.803 69.0726 550.426C67.9094 552.05 67.3001 553.676 67.2445 555.305C67.1889 556.935 67.7435 558.526 68.9083 560.077C70.1154 561.685 71.5092 562.689 73.0896 563.09C74.6699 563.492 76.3911 563.346 78.2531 562.654C80.1362 561.99 82.1356 560.864 84.251 559.275C86.3665 557.687 88.0058 556.081 89.1689 554.458C90.3532 552.863 90.9731 551.251 91.0287 549.621C91.1054 548.02 90.5508 546.43 89.3649 544.85C88.1789 543.27 86.7852 542.266 85.1836 541.836C83.6033 541.435 81.8715 541.567 79.9883 542.231C78.1052 542.895 76.1059 544.021 73.9904 545.609Z" fill="#1B1B1B"/>
<path d="M118.182 568.461C121.606 571.92 123.348 575.184 123.407 578.252C123.516 581.32 122.267 584.144 119.66 586.725C118.482 587.891 117.18 588.832 115.755 589.548C114.355 590.24 112.819 590.594 111.148 590.61C109.527 590.627 107.821 590.207 106.029 589.349C104.238 588.492 102.374 587.086 100.439 585.131L98.0194 582.687L88.4689 592.141L82.8485 586.463L109.695 559.888L118.182 568.461ZM113.221 572.775L110.653 570.181L102.682 578.072L104.543 579.952C105.61 581.029 106.666 581.82 107.711 582.325C108.756 582.829 109.79 582.996 110.813 582.827C111.837 582.657 112.825 582.101 113.777 581.158C115.106 579.843 115.724 578.512 115.631 577.165C115.563 575.792 114.76 574.329 113.221 572.775Z" fill="#1B1B1B"/>
<path d="M130.975 581.406L136.57 585.93L125.095 600.125C124.541 600.81 123.906 601.567 123.191 602.395C122.476 603.224 121.773 604.038 121.08 604.839C120.409 605.612 119.816 606.289 119.301 606.871C118.808 607.424 118.459 607.8 118.254 607.997L118.378 608.097L149.983 596.773L157.43 602.794L133.681 632.171L128.127 627.68L139.536 613.568C140.134 612.827 140.802 612.029 141.539 611.173C142.299 610.29 143.024 609.449 143.717 608.648C144.437 607.869 145.055 607.189 145.57 606.608C146.135 606.022 146.509 605.643 146.691 605.474L146.527 605.341L114.714 616.837L107.226 610.783L130.975 581.406Z" fill="#1B1B1B"/>
<path d="M167.389 653.862L160.605 649.641L169.214 635.805L156.502 627.895L147.893 641.731L141.11 637.51L161.066 605.437L167.85 609.657L160.023 622.235L172.736 630.145L180.562 617.567L187.345 621.788L167.389 653.862Z" fill="#1B1B1B"/>
<path d="M206.019 637.944C204.645 637.303 203.288 637 201.948 637.036C200.639 637.087 199.379 637.452 198.166 638.132C196.969 638.779 195.842 639.733 194.787 640.992C193.764 642.266 192.835 643.798 192 645.588C190.866 648.017 190.183 650.228 189.953 652.223C189.77 654.2 190.108 655.935 190.969 657.426C191.829 658.918 193.25 660.127 195.232 661.052C196.638 661.708 198.103 662.197 199.627 662.519C201.182 662.856 202.909 663.117 204.808 663.303L201.965 669.392C200.18 669.298 198.485 669.051 196.88 668.653C195.276 668.254 193.563 667.629 191.741 666.779C188.225 665.138 185.653 663.061 184.023 660.548C182.44 658.019 181.717 655.19 181.854 652.062C182.006 648.902 182.902 645.564 184.543 642.048C185.752 639.46 187.207 637.259 188.91 635.446C190.628 633.6 192.524 632.208 194.597 631.269C196.702 630.344 198.947 629.913 201.332 629.975C203.748 630.052 206.251 630.695 208.839 631.904C210.533 632.695 212.123 633.709 213.608 634.947C215.14 636.168 216.517 637.512 217.74 638.978L212.638 643.778C211.643 642.574 210.595 641.443 209.493 640.383C208.424 639.339 207.266 638.526 206.019 637.944Z" fill="#1B1B1B"/>
<path d="M243.936 686.098L235.3 683.23L228.331 660.735L222.295 678.911L214.713 676.394L226.619 640.543L234.201 643.061L228.431 660.434L247.055 647.33L255.139 650.014L236.365 662.901L243.936 686.098Z" fill="#1B1B1B"/>
<path d="M276.082 693.388L275.206 684.023L261.734 681.242L257.221 689.494L248.775 687.751L269.503 653.295L279.088 655.274L284.528 695.132L276.082 693.388ZM273.781 667.9C273.729 667.277 273.658 666.488 273.567 665.533C273.476 664.578 273.389 663.606 273.305 662.616C273.221 661.626 273.164 660.768 273.134 660.042C272.819 660.697 272.399 661.51 271.874 662.483C271.391 663.427 270.915 664.337 270.446 665.213C270.018 666.061 269.697 666.661 269.48 667.012L265.062 675.068L274.699 677.058L273.781 667.9Z" fill="#1B1B1B"/>
<path d="M306.861 683.047L296.782 696.708L287.929 695.925L300.091 680.323C299.11 679.811 298.145 679.106 297.198 678.208C296.253 677.275 295.508 676.093 294.962 674.664C294.418 673.2 294.237 671.448 294.417 669.411C294.725 665.932 296.207 663.39 298.863 661.784C301.522 660.142 305.101 659.521 309.598 659.919L321.825 661L318.495 698.629L310.538 697.925L311.815 683.485L306.861 683.047ZM309.336 666.482C307.966 666.36 306.775 666.414 305.763 666.643C304.786 666.876 304.003 667.32 303.414 667.976C302.86 668.635 302.532 669.544 302.429 670.704C302.283 672.355 302.711 673.721 303.713 674.801C304.754 675.849 306.398 676.473 308.647 676.672L312.389 677.003L313.289 666.831L309.336 666.482Z" fill="#1B1B1B"/>
<path d="M353.832 679.531L339.65 662.519L347.874 661.823L361.595 679.034L360.053 660.793L367.486 660.165L369.028 678.406L379.664 659.135L387.888 658.44L376.765 677.592L391.809 696.019L383.269 696.741L369.055 678.722L370.669 697.806L363.235 698.435L361.622 679.351L350.636 699.5L342.095 700.223L353.832 679.531Z" fill="#1B1B1B"/>
<path d="M422.024 689.511L400.783 694.161L392.703 657.26L413.945 652.609L415.348 659.018L401.91 661.96L403.687 670.074L416.194 667.336L417.598 673.744L405.09 676.483L407.172 685.992L420.61 683.05L422.024 689.511Z" fill="#1B1B1B"/>
<path d="M452.378 680.685L433.804 655.873L433.605 655.944C433.876 656.596 434.284 657.574 434.827 658.878C435.37 660.182 435.949 661.586 436.563 663.089C437.166 664.559 437.687 665.909 438.128 667.137L444.062 683.67L437.339 686.082L424.578 650.527L434.836 646.846L453.011 671.014L453.16 670.961L452.315 640.572L462.573 636.89L475.335 672.445L468.313 674.965L462.272 658.134C461.867 657.005 461.419 655.705 460.928 654.232C460.47 652.747 460.025 651.352 459.594 650.045C459.184 648.693 458.876 647.68 458.671 647.004L458.472 647.075L459.3 678.2L452.378 680.685Z" fill="#1B1B1B"/>
<path d="M511.513 654.38L504.419 658.054L497.703 645.088C496.087 646.799 494.538 648.257 493.057 649.461C491.606 650.649 490.051 651.673 488.391 652.533C485.259 654.155 482.412 654.677 479.848 654.098C477.299 653.472 475.294 651.749 473.835 648.93L466.656 635.071L473.75 631.397L479.882 643.236C480.726 644.864 481.734 645.891 482.908 646.316C484.081 646.741 485.56 646.491 487.346 645.567C488.661 644.885 489.903 644.063 491.073 643.1C492.242 642.137 493.495 640.952 494.832 639.544L487.045 624.511L494.139 620.836L511.513 654.38Z" fill="#1B1B1B"/>
<path d="M531.028 628.908C531.496 631.488 531.728 633.844 531.723 635.976C531.727 638.06 531.227 639.996 530.222 641.783C529.217 643.57 527.488 645.294 525.034 646.955C524.274 647.469 523.402 647.974 522.418 648.47C521.433 648.966 520.492 649.368 519.594 649.678L515.739 643.982C516.638 643.799 517.55 643.48 518.477 643.024C519.403 642.567 520.231 642.092 520.961 641.598C521.925 640.945 522.591 640.261 522.958 639.544C523.354 638.808 523.539 638.043 523.514 637.251C523.498 636.41 523.38 635.574 523.159 634.744L497.125 619.59L504.136 614.846L519.126 624.442C519.47 624.635 519.902 624.896 520.423 625.225C520.943 625.554 521.474 625.898 522.015 626.256C522.555 626.614 523.012 626.943 523.386 627.244L523.605 627.096C523.485 626.666 523.344 626.144 523.183 625.529C523.032 624.865 522.881 624.2 522.729 623.536C522.588 622.823 522.466 622.203 522.364 621.675L518.902 604.853L525.738 600.227L531.028 628.908Z" fill="#1B1B1B"/>
<path d="M548.909 605.126L527.343 600.081L533.49 594.574L554.808 600.055L542.594 586.419L548.15 581.442L560.365 595.077L557.254 573.287L563.401 567.78L566.052 589.77L589.158 595.424L582.774 601.142L560.576 595.314L573.355 609.579L567.799 614.557L555.02 600.291L558.38 622.994L551.996 628.713L548.909 605.126Z" fill="#1B1B1B"/>
<path d="M566.408 564.284L571.055 558.79L584.992 570.577C585.665 571.146 586.408 571.797 587.22 572.53C588.032 573.263 588.831 573.985 589.616 574.695C590.374 575.383 591.038 575.99 591.608 576.518C592.151 577.024 592.518 577.381 592.711 577.59L592.814 577.469L582.192 545.62L588.376 538.308L617.22 562.702L612.608 568.155L598.751 556.437C598.024 555.822 597.241 555.137 596.402 554.381C595.536 553.602 594.71 552.858 593.925 552.148C593.163 551.411 592.497 550.778 591.927 550.25C591.353 549.672 590.983 549.29 590.818 549.104L590.681 549.265L601.47 581.325L595.252 588.677L566.408 564.284Z" fill="#1B1B1B"/>
<path d="M639.68 529.464L635.31 536.152L621.669 527.239L613.479 539.773L627.121 548.686L622.751 555.374L591.127 534.712L595.497 528.024L607.898 536.127L616.088 523.592L603.686 515.489L608.056 508.801L639.68 529.464Z" fill="#1B1B1B"/>
<path d="M656.101 498.204L646.819 496.684L640.722 509.015L647.566 515.467L643.743 523.198L615.648 494.433L619.986 485.659L659.924 490.474L656.101 498.204ZM630.86 493.987C630.244 493.879 629.463 493.748 628.515 493.595C627.568 493.441 626.605 493.28 625.627 493.111C624.648 492.942 623.803 492.78 623.093 492.625C623.647 493.096 624.328 493.708 625.136 494.462C625.928 495.168 626.688 495.859 627.417 496.534C628.129 497.162 628.628 497.625 628.913 497.923L635.59 504.235L639.952 495.413L630.86 493.987Z" fill="#1B1B1B"/>
</svg>
