<svg width="1401" height="761" viewBox="0 0 1401 761" fill="none" xmlns="http://www.w3.org/2000/svg">
<path d="M914.258 155.554C870.192 82.6242 790.155 33.8675 698.731 33.8675C607.305 33.8675 527.267 82.6249 483.202 155.556C513.354 65.4277 598.457 0.473633 698.73 0.473633C799.003 0.473633 884.106 65.4269 914.258 155.554Z" fill="#02C3BF"/>
<path d="M475.26 267.538C477.495 267.538 480.266 267.091 483.573 266.197C486.003 265.494 487.976 264.768 489.491 264.019C490.093 263.72 490.624 263.419 491.082 263.114L518.788 311.822L535.217 340.703L537.072 343.965H556.081H581.453L560.522 309.464L556.106 302.184L546.189 285.837L537.876 272.135L530.129 259.366L520.446 243.403C523.038 241.526 526.882 237.549 531.977 231.47C537.161 225.302 541.631 219.269 545.385 213.369L576.894 163.088H535.999L512.401 202.508C501.816 220.265 491.964 231.106 482.844 235.03C480.257 236.143 477.729 236.699 475.26 236.699V163.088H435.84V343.965H475.26V267.538Z" fill="#02C3BF"/>
<path d="M743.696 174.097C738.565 165.253 700.039 98.8652 698.715 98.0485C697.113 100.488 695.666 103.036 694.221 105.58L694.217 105.588C693.579 106.71 692.942 107.832 692.293 108.943L680.185 129.512L664.131 157.141C662.741 159.509 661.343 161.875 659.945 164.242C655.075 172.486 650.197 180.743 645.612 189.136C642.482 190.972 639.431 192.99 636.378 195.009L636.377 195.009L636.377 195.01C632.21 197.765 628.041 200.523 623.666 202.823C619.137 196.498 614.807 190.044 610.476 183.591L610.476 183.59C607.373 178.966 604.27 174.343 601.094 169.766C593.645 184.654 586.085 199.486 578.414 214.26C576.897 217.211 575.425 220.187 573.954 223.163C571.687 227.748 569.42 232.333 566.986 236.824C564.969 235.295 562.848 233.917 560.728 232.538C559.612 231.813 558.496 231.087 557.394 230.34C552.754 235.881 547.623 241.153 542.533 246.383L542.532 246.384L542.531 246.385C540.801 248.163 539.076 249.935 537.376 251.712C536.762 252.359 536.148 253.005 535.534 253.652L543.265 266.396C548.702 260.567 554.079 254.68 559.396 248.737C560.393 249.334 561.406 249.962 562.433 250.599C566.116 252.883 569.973 255.276 573.87 256.732C577.607 248.616 581.598 240.596 585.585 232.584L585.586 232.582L585.587 232.581C587.258 229.223 588.929 225.866 590.58 222.504C591.777 220.066 592.953 217.594 594.132 215.115C596.868 209.366 599.621 203.579 602.7 198.087C605.01 200.985 607.249 203.931 609.489 206.877L609.49 206.878L609.491 206.879L609.492 206.88C610.709 208.481 611.927 210.083 613.155 211.677C613.949 212.706 614.764 213.725 615.579 214.744L615.58 214.745C616.898 216.393 618.217 218.042 619.451 219.741C624.38 217.064 629.392 214.533 634.403 212.001L634.404 212C637.965 210.201 641.526 208.402 645.058 206.551C645.852 206.135 646.715 205.719 647.601 205.291L647.602 205.291C649.988 204.14 652.542 202.907 654.384 201.375C656.151 199.905 663.624 187.327 667.583 180.662L667.584 180.662C668.426 179.244 669.109 178.094 669.544 177.376C672.183 173.022 674.814 168.66 677.445 164.298L677.446 164.297L677.452 164.287C684.576 152.475 691.704 140.658 699.01 128.968C702.769 143.378 706.305 157.85 709.84 172.32L709.843 172.33L709.847 172.349C711.292 178.263 712.738 184.177 714.198 190.086C715.223 194.234 716.312 198.362 717.401 202.49C718.859 208.013 720.316 213.536 721.618 219.105C722.962 213.821 723.946 208.331 724.933 202.829C726.073 196.472 727.215 190.099 728.918 184.012C733.366 194.851 737.886 205.66 742.475 216.44C742.854 217.34 743.306 218.498 743.801 219.764C745.168 223.262 746.858 227.584 748.186 229.556C749.303 231.213 751.029 232.66 752.653 234.022C753.163 234.45 753.663 234.869 754.13 235.284C755.49 236.489 756.834 237.711 758.179 238.933L758.182 238.936L758.184 238.938L758.187 238.941C759.689 240.306 761.19 241.671 762.713 243.012C763.316 243.542 763.935 244.067 764.556 244.594L764.557 244.595C766.141 245.938 767.743 247.297 769.13 248.792C770.928 250.729 772.398 253.1 773.828 255.407L773.829 255.408L773.831 255.411C774.273 256.125 774.712 256.833 775.156 257.52C776.301 259.293 777.437 261.072 778.574 262.852L778.576 262.856C781.031 266.701 783.487 270.548 786.033 274.33C789.553 279.518 793.129 284.668 796.762 289.778C797.317 290.561 797.892 291.339 798.469 292.12L798.471 292.122C800.108 294.339 801.761 296.576 803.02 298.998C801.103 297.268 799.234 295.489 797.364 293.709L797.363 293.708L797.361 293.707L797.359 293.704L797.358 293.703C795.875 292.291 794.392 290.88 792.885 289.493C787.695 284.756 782.414 280.123 777.041 275.594C773.233 272.383 769.32 269.296 765.407 266.208L765.406 266.207L765.403 266.205C761.063 262.781 756.723 259.357 752.529 255.765C755.353 263.864 758.003 272.025 760.654 280.187L760.654 280.19L760.655 280.191C764.006 290.512 767.357 300.834 771.061 311.03C765.392 306.338 759.589 301.79 753.788 297.244L753.786 297.242L753.78 297.237L753.777 297.235L753.769 297.229C750.224 294.451 746.679 291.672 743.165 288.862C718.19 269.149 693.442 249.155 668.921 228.879C648.304 254.288 627.876 279.848 607.639 305.559C609.236 298.585 610.629 291.561 612.022 284.538L612.022 284.536C612.896 280.134 613.769 275.732 614.692 271.342C610.711 274.238 606.671 277.048 602.63 279.859L602.627 279.861L602.619 279.866C600.157 281.579 597.696 283.291 595.247 285.023L566.739 305.089L593.555 349.292C596.844 348.582 600.139 347.546 603.448 346.185C621.212 338.876 639.216 338.876 656.98 346.185C670.816 351.877 684.412 351.877 698.248 346.185C716.012 338.876 734.016 338.876 751.78 346.185C764.182 351.287 776.391 351.816 788.753 347.771L812.724 280.12C806.913 268.84 801.165 257.528 795.48 246.183C792.176 239.672 788.917 233.139 785.701 226.584C785.219 225.602 784.719 224.62 784.218 223.638L784.217 223.636C783.203 221.647 782.186 219.651 781.3 217.623C785.372 211.678 784.181 213.541 787.929 207.377C788.321 206.732 788.713 206.088 789.105 205.445C791.981 210.871 794.678 216.386 797.374 221.901L797.375 221.902L797.376 221.904C798.685 224.581 799.994 227.258 801.323 229.925C802.786 232.86 804.297 235.774 805.807 238.688L805.808 238.69L805.81 238.694L805.813 238.699L805.814 238.701C807.068 241.121 808.323 243.542 809.55 245.975C810.144 247.151 810.736 248.334 811.33 249.52L811.343 249.547L811.353 249.567L811.363 249.586L811.37 249.601L811.371 249.603L811.373 249.607L811.374 249.609C812.54 251.94 815.568 257.451 818.74 263.144L823.476 249.778C820.649 246.181 817.952 241.966 815.364 237.208L815.332 237.15L815.301 237.092C811.836 230.45 809.018 223.322 806.833 215.725L801.614 198L795.589 186.146C795.221 185.419 794.859 184.677 794.494 183.93L794.489 183.921L794.484 183.91C793.388 181.665 792.272 179.38 790.931 177.335C787.491 182.488 784.173 187.715 780.856 192.944L780.855 192.945L780.854 192.947C778.053 197.36 780.212 193.716 777.337 198.085C776.758 198.964 776.186 199.851 775.613 200.739L775.611 200.741L775.61 200.744C774.198 202.93 772.784 205.123 771.263 207.22C767.995 204.661 764.756 202.065 761.547 199.432C761.049 199.03 760.527 198.631 760 198.228C758.451 197.045 756.853 195.825 755.673 194.362C754.414 192.801 753.38 190.927 752.374 189.106L752.374 189.105L752.373 189.104C752.012 188.45 751.655 187.802 751.292 187.178L743.696 174.097Z" fill="#02C3BF"/>
<path d="M845.569 363.223C845.623 363.163 845.676 363.104 845.73 363.044C843.967 362.464 842.206 361.812 840.448 361.088C826.612 355.396 813.016 355.396 799.18 361.088C781.416 368.397 763.412 368.397 745.648 361.088C731.812 355.396 718.216 355.396 704.38 361.088C686.616 368.397 668.612 368.397 650.848 361.088C637.012 355.396 623.416 355.396 609.58 361.088C591.816 368.397 573.812 368.397 556.048 361.088C553.337 359.973 550.635 359.076 547.938 358.398C548.734 359.348 549.538 360.29 550.352 361.225C551.165 362.16 551.987 363.088 552.818 364.007C553.649 364.926 554.489 365.838 555.337 366.741C556.186 367.645 557.042 368.541 557.907 369.428C558.772 370.315 559.646 371.195 560.527 372.066C561.409 372.936 562.299 373.799 563.197 374.653C564.095 375.507 565.001 376.353 565.915 377.19C566.829 378.027 567.751 378.855 568.68 379.675C569.61 380.494 570.547 381.305 571.492 382.107C572.437 382.909 573.389 383.702 574.349 384.486C575.309 385.27 576.276 386.045 577.25 386.811C578.225 387.576 579.207 388.333 580.195 389.08C580.593 389.381 580.992 389.68 581.392 389.977C588.724 390.188 596.052 388.771 603.448 385.728C621.212 378.42 639.216 378.42 656.98 385.728C670.816 391.421 684.412 391.421 698.248 385.728C716.012 378.42 734.016 378.42 751.78 385.728C765.616 391.421 779.212 391.421 793.048 385.728C804.556 380.994 816.164 379.326 827.743 380.726C827.893 380.596 828.042 380.467 828.191 380.337C829.419 379.268 830.633 378.185 831.833 377.087C833.033 375.988 834.22 374.876 835.394 373.748C836.567 372.621 837.726 371.479 838.871 370.323C840.016 369.168 841.147 367.998 842.264 366.814C843.38 365.631 844.482 364.434 845.569 363.223Z" fill="#02C3BF"/>
<path d="M800.627 400.455C801.17 400.126 801.711 399.795 802.25 399.461C801.228 399.82 800.204 400.211 799.18 400.632C781.416 407.941 763.412 407.941 745.648 400.632C731.812 394.94 718.216 394.94 704.38 400.632C686.616 407.941 668.612 407.941 650.848 400.632C637.012 394.94 623.416 394.94 609.58 400.632C607.023 401.684 604.461 402.585 601.896 403.334C601.908 403.341 601.921 403.348 601.933 403.355C603.012 403.965 604.096 404.565 605.186 405.155C606.276 405.745 607.371 406.325 608.472 406.894C609.878 407.626 611.292 408.341 612.716 409.039C614.139 409.737 615.57 410.417 617.01 411.08C618.45 411.743 619.898 412.388 621.353 413.016C622.809 413.643 624.271 414.253 625.742 414.845C627.212 415.438 628.689 416.012 630.174 416.568C631.658 417.124 633.149 417.662 634.646 418.182C636.144 418.702 637.647 419.204 639.156 419.687C640.666 420.171 642.181 420.636 643.702 421.082C645.223 421.529 646.749 421.957 648.281 422.366C649.812 422.775 651.348 423.166 652.889 423.539C654.429 423.911 655.974 424.264 657.524 424.598C659.073 424.933 660.626 425.249 662.184 425.545C663.741 425.842 665.301 426.12 666.865 426.378C668.429 426.637 669.995 426.877 671.565 427.098C673.135 427.319 674.707 427.52 676.281 427.703C677.855 427.885 679.432 428.049 681.011 428.193C682.589 428.337 684.169 428.462 685.751 428.568C687.333 428.674 688.915 428.76 690.498 428.827C692.082 428.895 693.666 428.943 695.251 428.972C696.836 429.001 698.421 429.01 700.006 429.001C701.591 428.991 703.176 428.962 704.76 428.913C706.344 428.865 707.928 428.797 709.511 428.711C711.094 428.624 712.675 428.518 714.255 428.393C715.835 428.268 717.413 428.123 718.99 427.96C720.567 427.796 722.141 427.613 723.713 427.411C725.285 427.209 726.855 426.988 728.422 426.749C729.988 426.509 731.552 426.25 733.113 425.971C734.673 425.693 736.23 425.396 737.783 425.08C739.337 424.765 740.886 424.43 742.431 424.076C743.976 423.723 745.517 423.35 747.053 422.959C748.589 422.568 750.12 422.159 751.646 421.73C753.172 421.302 754.693 420.855 756.208 420.39C757.763 419.911 759.312 419.412 760.854 418.894C762.397 418.377 763.933 417.841 765.462 417.286C766.992 416.73 768.514 416.156 770.029 415.564C771.545 414.971 773.053 414.36 774.553 413.731C776.053 413.101 777.546 412.453 779.03 411.787C780.515 411.12 781.991 410.436 783.458 409.734C784.926 409.031 786.384 408.311 787.835 407.573C789.284 406.834 790.725 406.078 792.156 405.305C793.588 404.531 795.009 403.74 796.421 402.932C797.833 402.123 799.235 401.298 800.627 400.455Z" fill="#02C3BF"/>
<path d="M483.202 351.466C513.354 441.594 598.457 506.548 698.73 506.548C778.96 506.548 849.478 464.966 889.908 402.178C900.009 386.492 908.231 369.483 914.258 351.468C902.032 371.702 887.037 390.075 869.799 406.063C824.904 447.699 764.79 473.154 698.731 473.154C628.876 473.154 565.669 444.69 520.077 398.728C516.325 394.945 512.692 391.044 509.184 387.031C499.531 375.985 490.828 364.087 483.202 351.466Z" fill="#02C3BF"/>
<path d="M560.223 291.189C564.349 280.09 569.097 267.315 571.767 261.787L551.837 280.526L559.495 293.148C559.735 292.502 559.978 291.849 560.223 291.189Z" fill="#02C3BF"/>
<path d="M937.604 233.584C934.386 239.662 931.079 244.534 927.682 248.199L961.605 343.933H927.28L903.279 263.216C900.155 264.778 897.813 265.771 896.253 266.196C895.67 266.355 895.197 266.434 894.832 266.434V343.933H864.932V266.434C864.705 266.434 864.239 266.331 863.532 266.125C862.842 265.924 861.923 265.624 860.775 265.227C858.451 264.423 857.021 263.752 856.484 263.216L832.484 343.933H829.624H798.159L817.499 289.353L823.669 271.94L830.448 252.809L832.081 248.199C828.685 244.534 825.333 239.662 822.025 233.584C818.807 227.416 816.17 220.756 814.114 213.605L799.231 163.056H831.411L843.21 205.158C846.428 216.511 849.602 224.734 852.73 229.829C854.113 232.018 855.652 233.869 857.348 235.381C859.599 237.39 862.127 238.802 864.932 239.617V163.056H894.832V239.617C897.63 238.788 900.158 237.358 902.416 235.327C904.052 233.855 905.547 232.067 906.899 229.963C910.117 224.958 913.335 216.689 916.553 205.158L928.353 163.056H960.532L945.649 213.605C943.593 220.846 940.912 227.505 937.604 233.584Z" fill="#02C3BF"/>
<path d="M1383.76 680.934L1378.48 663.685H1352.1L1346.83 680.934H1330.29L1355.86 608.186H1374.63L1400.3 680.934H1383.76ZM1369.55 633.957C1369.22 632.807 1368.78 631.353 1368.24 629.594C1367.69 627.835 1367.15 626.043 1366.61 624.217C1366.07 622.39 1365.63 620.801 1365.29 619.448C1364.96 620.801 1364.48 622.492 1363.87 624.521C1363.33 626.482 1362.79 628.376 1362.25 630.203C1361.78 631.961 1361.4 633.213 1361.13 633.957L1355.96 650.8H1374.83L1369.55 633.957Z" fill="#1B1B1B"/>
<path d="M1321.19 680.936H1305.87V649.686H1277.16V680.936H1261.84V608.492H1277.16V636.902H1305.87V608.492H1321.19V680.936Z" fill="#1B1B1B"/>
<path d="M1178.31 608.492H1192.11V643.497C1192.11 645.188 1192.08 647.082 1192.01 649.178C1191.94 651.275 1191.87 653.338 1191.81 655.368C1191.74 657.329 1191.67 659.054 1191.6 660.542C1191.53 661.963 1191.47 662.943 1191.4 663.485H1191.7L1225.19 608.492H1243.55V680.936H1229.85V646.135C1229.85 644.308 1229.89 642.313 1229.95 640.148C1230.02 637.916 1230.09 635.785 1230.16 633.756C1230.29 631.727 1230.39 629.968 1230.46 628.48C1230.6 626.924 1230.7 625.91 1230.77 625.436H1230.36L1196.78 680.936H1178.31V608.492Z" fill="#1B1B1B"/>
<path d="M1099.23 643.294L1074.88 608.492H1090.71L1114.15 643.598V608.492H1128.46V643.598L1151.89 608.492H1167.72L1143.37 643.294L1169.14 680.936H1152.7L1128.46 644.207V680.936H1114.15V644.207L1089.9 680.936H1073.46L1099.23 643.294Z" fill="#1B1B1B"/>
<path d="M1051.03 659.73C1049 664.33 1046.84 668.321 1044.54 671.703C1042.31 675.017 1039.43 677.554 1035.91 679.313C1032.4 681.071 1027.8 681.951 1022.12 681.951C1020.36 681.951 1018.43 681.815 1016.33 681.545C1014.24 681.274 1012.31 680.902 1010.55 680.429V667.239C1012.17 667.915 1013.97 668.389 1015.93 668.659C1017.89 668.93 1019.71 669.065 1021.41 669.065C1023.64 669.065 1025.43 668.693 1026.78 667.949C1028.2 667.205 1029.32 666.19 1030.13 664.905C1031.01 663.552 1031.72 662.098 1032.26 660.542L1007.2 608.492H1023.44L1036.93 639.844C1037.27 640.52 1037.67 641.4 1038.15 642.482C1038.62 643.564 1039.09 644.68 1039.57 645.83C1040.04 646.98 1040.41 647.995 1040.68 648.874H1041.19C1041.46 648.062 1041.8 647.082 1042.21 645.932C1042.68 644.714 1043.15 643.497 1043.63 642.279C1044.17 640.994 1044.64 639.878 1045.05 638.931L1057.63 608.492H1073.46L1051.03 659.73Z" fill="#1B1B1B"/>
<path d="M997.099 680.936H981.779V652.932C977.517 654.421 973.594 655.537 970.009 656.281C966.492 657.025 962.94 657.397 959.356 657.397C952.591 657.397 947.282 655.773 943.426 652.527C939.638 649.212 937.744 644.511 937.744 638.423V608.492H953.065V634.061C953.065 637.578 953.877 640.216 955.5 641.975C957.123 643.733 959.863 644.613 963.718 644.613C966.559 644.613 969.4 644.308 972.241 643.699C975.082 643.091 978.261 642.178 981.779 640.96V608.492H997.099V680.936Z" fill="#1B1B1B"/>
<path d="M876.423 680.936L858.971 624.117H858.565C858.633 625.47 858.735 627.499 858.87 630.205C859.005 632.911 859.14 635.819 859.276 638.931C859.411 641.975 859.479 644.748 859.479 647.251V680.936H845.781V608.492H866.682L883.829 663.89H884.134L902.296 608.492H923.197V680.936H908.891V646.642C908.891 644.342 908.924 641.704 908.992 638.728C909.127 635.752 909.229 632.944 909.296 630.306C909.432 627.601 909.533 625.572 909.601 624.219H909.195L890.526 680.936H876.423Z" fill="#1B1B1B"/>
<path d="M830.711 680.936H789.01V608.492H830.711V621.073H804.33V637.003H828.884V649.584H804.33V668.253H830.711V680.936Z" fill="#1B1B1B"/>
<path d="M709.935 643.294L685.585 608.492H701.413L724.85 643.598V608.492H739.156V643.598L762.594 608.492H778.422L754.071 643.294L779.843 680.936H763.406L739.156 644.207V680.936H724.85V644.207L700.601 680.936H684.164L709.935 643.294Z" fill="#1B1B1B"/>
<path d="M629.064 653.135L612.12 680.936H595.074L615.671 649.077C613.709 648.265 611.748 647.082 609.786 645.526C607.825 643.902 606.201 641.772 604.916 639.134C603.631 636.428 602.988 633.114 602.988 629.19C602.988 622.494 605.39 617.387 610.192 613.87C614.995 610.285 621.725 608.492 630.383 608.492H653.922V680.936H638.601V653.135H629.064ZM630.992 621.073C628.354 621.073 626.088 621.378 624.194 621.987C622.367 622.595 620.947 623.576 619.932 624.929C618.985 626.282 618.512 628.074 618.512 630.306C618.512 633.486 619.56 636.022 621.657 637.916C623.822 639.742 627.069 640.656 631.398 640.656H638.601V621.073H630.992Z" fill="#1B1B1B"/>
<path d="M579 680.934L573.724 663.685H547.344L542.068 680.934H525.529L551.098 608.186H569.868L595.538 680.934H579ZM564.795 633.957C564.457 632.807 564.017 631.353 563.476 629.594C562.935 627.835 562.394 626.043 561.853 624.217C561.311 622.39 560.872 620.801 560.534 619.448C560.195 620.801 559.722 622.492 559.113 624.521C558.572 626.482 558.031 628.376 557.49 630.203C557.016 631.961 556.644 633.213 556.374 633.957L551.199 650.8H570.071L564.795 633.957Z" fill="#1B1B1B"/>
<path d="M525.539 680.936H508.088L481.809 644.207V680.936H466.488V608.492H481.809V643.598L507.783 608.492H524.119L497.739 643.294L525.539 680.936Z" fill="#1B1B1B"/>
<path d="M432.63 620.262C429.722 620.262 427.118 620.837 424.818 621.987C422.586 623.136 420.692 624.794 419.136 626.958C417.58 629.055 416.396 631.625 415.585 634.669C414.841 637.713 414.469 641.129 414.469 644.917C414.469 650.058 415.077 654.454 416.295 658.107C417.58 661.692 419.576 664.431 422.281 666.325C424.987 668.219 428.437 669.166 432.63 669.166C435.607 669.166 438.549 668.828 441.458 668.152C444.434 667.475 447.647 666.528 451.096 665.311V678.196C447.917 679.482 444.772 680.429 441.66 681.037C438.549 681.646 435.065 681.951 431.21 681.951C423.769 681.951 417.614 680.429 412.744 677.385C407.941 674.273 404.39 669.944 402.09 664.398C399.791 658.783 398.641 652.256 398.641 644.816C398.641 639.337 399.385 634.331 400.873 629.799C402.361 625.2 404.525 621.243 407.366 617.928C410.275 614.614 413.826 612.043 418.02 610.217C422.281 608.391 427.151 607.478 432.63 607.478C436.215 607.478 439.8 607.951 443.385 608.898C447.038 609.777 450.521 610.995 453.836 612.551L448.864 625.03C446.159 623.745 443.419 622.629 440.646 621.682C437.94 620.735 435.268 620.262 432.63 620.262Z" fill="#1B1B1B"/>
<path d="M383.66 680.936H368.339V649.686H339.625V680.936H324.305V608.492H339.625V636.902H368.339V608.492H383.66V680.936Z" fill="#1B1B1B"/>
<path d="M240.771 608.492H254.57V643.497C254.57 645.188 254.536 647.082 254.469 649.178C254.401 651.275 254.334 653.338 254.266 655.368C254.198 657.329 254.131 659.054 254.063 660.542C253.995 661.963 253.928 662.943 253.86 663.485H254.164L287.647 608.492H306.011V680.936H292.314V646.135C292.314 644.308 292.348 642.313 292.416 640.148C292.483 637.916 292.551 635.785 292.618 633.756C292.754 631.727 292.855 629.968 292.923 628.48C293.058 626.924 293.16 625.91 293.227 625.436H292.821L259.238 680.936H240.771V608.492Z" fill="#1B1B1B"/>
<path d="M200.194 608.492C209.528 608.492 216.326 610.521 220.588 614.58C224.917 618.571 227.081 624.083 227.081 631.118C227.081 634.297 226.608 637.341 225.661 640.25C224.714 643.091 223.124 645.661 220.892 647.961C218.728 650.193 215.853 651.952 212.268 653.237C208.683 654.522 204.252 655.165 198.976 655.165H192.381V680.936H177.061V608.492H200.194ZM199.382 621.073H192.381V642.583H197.454C200.363 642.583 202.866 642.211 204.963 641.467C207.059 640.723 208.683 639.54 209.833 637.916C210.983 636.293 211.558 634.196 211.558 631.625C211.558 628.041 210.577 625.402 208.615 623.711C206.654 621.953 203.576 621.073 199.382 621.073Z" fill="#1B1B1B"/>
<path d="M162.013 644.612C162.013 650.226 161.37 655.333 160.085 659.932C158.8 664.464 156.804 668.387 154.099 671.702C151.461 675.016 148.112 677.553 144.054 679.311C139.995 681.07 135.227 681.949 129.748 681.949C122.984 681.949 117.302 680.63 112.702 677.992C108.17 675.287 104.653 671.533 102.15 666.73C99.7151 661.86 98.227 656.178 97.6859 649.685H83.7856V680.935H68.4648V608.491H83.7856V636.9H97.9902C98.7343 630.88 100.358 625.672 102.86 621.275C105.431 616.811 108.948 613.395 113.412 611.028C117.877 608.593 123.356 607.375 129.849 607.375C137.155 607.375 143.175 608.931 147.909 612.042C152.712 615.086 156.263 619.415 158.563 625.029C160.863 630.576 162.013 637.103 162.013 644.612ZM113.412 644.612C113.412 649.685 113.987 654.047 115.137 657.7C116.287 661.353 118.08 664.16 120.515 666.121C122.95 668.083 126.028 669.064 129.748 669.064C133.603 669.064 136.749 668.083 139.184 666.121C141.619 664.16 143.378 661.353 144.46 657.7C145.61 654.047 146.185 649.685 146.185 644.612C146.185 639.538 145.61 635.176 144.46 631.523C143.378 627.87 141.619 625.063 139.184 623.102C136.816 621.14 133.739 620.159 129.951 620.159C126.163 620.159 123.018 621.14 120.515 623.102C118.08 625.063 116.287 627.87 115.137 631.523C113.987 635.176 113.412 639.538 113.412 644.612Z" fill="#1B1B1B"/>
<path d="M59.3477 680.936H41.8962L15.6176 644.207V680.936H0.296875V608.492H15.6176V643.598L41.5919 608.492H57.9272L31.5471 643.294L59.3477 680.936Z" fill="#1B1B1B"/>
<path d="M1230 749.636C1227.78 749.636 1225.8 749.183 1224.05 748.279C1222.34 747.374 1220.98 745.971 1219.98 744.068C1219.02 742.165 1218.53 739.732 1218.53 736.769C1218.53 733.681 1219.05 731.17 1220.08 729.236C1221.11 727.302 1222.49 725.883 1224.24 724.978C1226.02 724.073 1228.03 723.621 1230.28 723.621C1231.56 723.621 1232.79 723.761 1233.97 724.042C1235.16 724.292 1236.13 724.604 1236.87 724.978L1235.61 728.394C1234.86 728.113 1233.99 727.848 1232.99 727.598C1231.99 727.349 1231.06 727.224 1230.18 727.224C1228.5 727.224 1227.11 727.583 1226.02 728.3C1224.93 729.017 1224.12 730.078 1223.59 731.482C1223.06 732.885 1222.79 734.632 1222.79 736.722C1222.79 738.718 1223.06 740.418 1223.59 741.822C1224.12 743.226 1224.91 744.286 1225.97 745.004C1227.03 745.721 1228.36 746.08 1229.95 746.08C1231.32 746.08 1232.52 745.939 1233.55 745.659C1234.61 745.378 1235.58 745.035 1236.45 744.629V748.279C1235.61 748.715 1234.68 749.043 1233.65 749.261C1232.65 749.511 1231.43 749.636 1230 749.636Z" fill="#1B1B1B"/>
<path d="M1210.92 724.09H1215.41L1204.7 736.161L1216.3 749.169H1211.53L1200.2 736.442V749.169H1196.09V724.09H1200.2V736.255L1210.92 724.09Z" fill="#1B1B1B"/>
<path d="M1179.36 723.621C1181.51 723.621 1183.35 724.089 1184.88 725.025C1186.44 725.961 1187.62 727.286 1188.44 729.002C1189.28 730.686 1189.7 732.667 1189.7 734.944V737.424H1172.53C1172.59 740.262 1173.31 742.43 1174.68 743.927C1176.08 745.393 1178.03 746.126 1180.53 746.126C1182.12 746.126 1183.52 745.986 1184.74 745.705C1185.99 745.393 1187.27 744.957 1188.58 744.395V747.998C1187.3 748.56 1186.03 748.965 1184.79 749.215C1183.54 749.495 1182.06 749.636 1180.34 749.636C1177.97 749.636 1175.86 749.152 1174.02 748.185C1172.22 747.218 1170.8 745.783 1169.77 743.881C1168.77 741.947 1168.27 739.592 1168.27 736.816C1168.27 734.071 1168.72 731.716 1169.63 729.75C1170.56 727.785 1171.86 726.272 1173.51 725.212C1175.19 724.151 1177.14 723.621 1179.36 723.621ZM1179.31 726.99C1177.35 726.99 1175.79 727.629 1174.63 728.908C1173.51 730.156 1172.84 731.903 1172.62 734.149H1185.39C1185.39 732.714 1185.18 731.466 1184.74 730.405C1184.3 729.345 1183.63 728.518 1182.73 727.926C1181.85 727.302 1180.72 726.99 1179.31 726.99Z" fill="#1B1B1B"/>
<path d="M1161.72 749.169H1157.55V727.505H1150.16C1149.85 731.467 1149.46 734.851 1148.99 737.659C1148.52 740.435 1147.93 742.696 1147.21 744.443C1146.49 746.19 1145.64 747.469 1144.64 748.28C1143.64 749.091 1142.47 749.496 1141.13 749.496C1140.72 749.496 1140.32 749.465 1139.91 749.403C1139.54 749.371 1139.23 749.293 1138.98 749.169V746.081C1139.16 746.143 1139.37 746.19 1139.58 746.221C1139.8 746.252 1140.02 746.268 1140.24 746.268C1140.93 746.268 1141.55 745.987 1142.11 745.426C1142.67 744.864 1143.17 744.006 1143.61 742.852C1144.08 741.698 1144.5 740.248 1144.87 738.501C1145.25 736.723 1145.57 734.633 1145.85 732.231C1146.14 729.829 1146.38 727.116 1146.6 724.09H1161.72V749.169Z" fill="#1B1B1B"/>
<path d="M1134.62 724.09V749.169H1130.51V727.599H1117.55V749.169H1113.43V724.09H1134.62Z" fill="#1B1B1B"/>
<path d="M1105.43 724.09V749.169H1101.73V733.167C1101.73 732.512 1101.75 731.826 1101.78 731.108C1101.84 730.391 1101.9 729.689 1101.97 729.003H1101.83L1093.64 749.169H1090.18L1082.22 729.003H1082.08C1082.14 729.689 1082.17 730.391 1082.17 731.108C1082.21 731.826 1082.22 732.559 1082.22 733.307V749.169H1078.53V724.09H1084L1091.91 744.256L1099.95 724.09H1105.43Z" fill="#1B1B1B"/>
<path d="M1071.99 736.582C1071.99 738.671 1071.71 740.527 1071.15 742.149C1070.62 743.74 1069.84 745.097 1068.81 746.22C1067.81 747.343 1066.58 748.201 1065.12 748.793C1063.68 749.355 1062.08 749.636 1060.3 749.636C1058.64 749.636 1057.12 749.355 1055.71 748.793C1054.31 748.201 1053.09 747.343 1052.06 746.22C1051.03 745.097 1050.22 743.74 1049.63 742.149C1049.07 740.527 1048.79 738.671 1048.79 736.582C1048.79 733.805 1049.25 731.466 1050.19 729.563C1051.13 727.629 1052.47 726.163 1054.21 725.165C1055.96 724.136 1058.04 723.621 1060.44 723.621C1062.71 723.621 1064.71 724.136 1066.43 725.165C1068.17 726.163 1069.53 727.629 1070.5 729.563C1071.5 731.466 1071.99 733.805 1071.99 736.582ZM1053.04 736.582C1053.04 738.547 1053.29 740.262 1053.79 741.728C1054.32 743.163 1055.13 744.271 1056.23 745.05C1057.32 745.83 1058.71 746.22 1060.39 746.22C1062.08 746.22 1063.46 745.83 1064.55 745.05C1065.65 744.271 1066.44 743.163 1066.94 741.728C1067.47 740.262 1067.74 738.547 1067.74 736.582C1067.74 734.585 1067.47 732.885 1066.94 731.482C1066.41 730.078 1065.6 729.002 1064.51 728.253C1063.45 727.473 1062.06 727.083 1060.34 727.083C1057.79 727.083 1055.93 727.926 1054.78 729.61C1053.62 731.294 1053.04 733.618 1053.04 736.582Z" fill="#1B1B1B"/>
<path d="M1041.17 724.09H1045.67L1034.95 736.161L1046.55 749.169H1041.78L1030.46 736.442V749.169H1026.34V724.09H1030.46V736.255L1041.17 724.09Z" fill="#1B1B1B"/>
<path d="M1006.85 713.703C1006.73 715.263 1006.34 716.573 1005.68 717.633C1005.06 718.694 1004.12 719.489 1002.87 720.02C1001.63 720.55 1000 720.815 998.008 720.815C995.981 720.815 994.343 720.55 993.095 720.02C991.879 719.489 990.99 718.71 990.428 717.68C989.867 716.62 989.524 715.294 989.399 713.703H993.236C993.392 715.388 993.828 716.526 994.546 717.119C995.294 717.68 996.48 717.961 998.102 717.961C999.537 717.961 1000.66 717.665 1001.47 717.072C1002.31 716.448 1002.81 715.325 1002.97 713.703H1006.85ZM990.428 739.39C990.428 739.671 990.413 740.076 990.382 740.607C990.382 741.106 990.366 741.652 990.335 742.244C990.304 742.806 990.272 743.352 990.241 743.882C990.21 744.381 990.179 744.786 990.148 745.098L1003.58 724.09H1008.63V749.169H1004.79V734.384C1004.79 733.885 1004.79 733.23 1004.79 732.419C1004.82 731.608 1004.85 730.812 1004.89 730.032C1004.92 729.221 1004.95 728.613 1004.98 728.208L991.645 749.169H986.545V724.09H990.428V739.39Z" fill="#1B1B1B"/>
<path d="M950.121 749.169V724.09H954.239V734.383H960.742C962.926 734.383 964.719 734.649 966.123 735.179C967.527 735.709 968.571 736.504 969.258 737.565C969.944 738.594 970.287 739.904 970.287 741.495C970.287 743.055 969.944 744.412 969.258 745.566C968.603 746.72 967.558 747.609 966.123 748.233C964.719 748.857 962.863 749.169 960.555 749.169H950.121ZM960.181 745.847C961.959 745.847 963.409 745.55 964.532 744.958C965.655 744.334 966.216 743.258 966.216 741.729C966.216 740.201 965.702 739.171 964.672 738.641C963.643 738.08 962.161 737.799 960.227 737.799H954.239V745.847H960.181ZM974.451 749.169V724.09H978.569V749.169H974.451Z" fill="#1B1B1B"/>
<path d="M924.449 724.09V734.524H938.065V724.09H942.182V749.169H938.065V737.986H924.449V749.169H920.332V724.09H924.449Z" fill="#1B1B1B"/>
<path d="M904.106 734.383C906.289 734.383 908.098 734.649 909.533 735.179C910.968 735.709 912.044 736.504 912.762 737.565C913.51 738.594 913.884 739.904 913.884 741.495C913.884 743.055 913.526 744.412 912.808 745.566C912.122 746.72 911.046 747.609 909.58 748.233C908.114 748.857 906.227 749.169 903.919 749.169H892.549V724.09H896.666V734.383H904.106ZM909.767 741.729C909.767 740.201 909.221 739.171 908.13 738.641C907.069 738.08 905.572 737.799 903.638 737.799H896.666V745.847H903.731C905.478 745.847 906.913 745.535 908.036 744.911C909.19 744.287 909.767 743.226 909.767 741.729Z" fill="#1B1B1B"/>
<path d="M884.591 749.169H880.427V727.505H873.034C872.722 731.467 872.332 734.851 871.864 737.659C871.396 740.435 870.804 742.696 870.086 744.443C869.369 746.19 868.511 747.469 867.513 748.28C866.515 749.091 865.345 749.496 864.004 749.496C863.598 749.496 863.193 749.465 862.787 749.403C862.413 749.371 862.101 749.293 861.852 749.169V746.081C862.039 746.143 862.241 746.19 862.46 746.221C862.678 746.252 862.897 746.268 863.115 746.268C863.801 746.268 864.425 745.987 864.986 745.426C865.548 744.864 866.047 744.006 866.484 742.852C866.952 741.698 867.373 740.248 867.747 738.501C868.121 736.723 868.449 734.633 868.73 732.231C869.01 729.829 869.26 727.116 869.478 724.09H884.591V749.169Z" fill="#1B1B1B"/>
<path d="M848.78 723.621C850.933 723.621 852.773 724.089 854.301 725.025C855.861 725.961 857.046 727.286 857.857 729.002C858.7 730.686 859.121 732.667 859.121 734.944V737.424H841.949C842.012 740.262 842.729 742.43 844.101 743.927C845.505 745.393 847.455 746.126 849.95 746.126C851.541 746.126 852.945 745.986 854.161 745.705C855.409 745.393 856.688 744.957 857.998 744.395V747.998C856.719 748.56 855.456 748.965 854.208 749.215C852.96 749.495 851.479 749.636 849.763 749.636C847.392 749.636 845.287 749.152 843.446 748.185C841.637 747.218 840.218 745.783 839.189 743.881C838.19 741.947 837.691 739.592 837.691 736.816C837.691 734.071 838.144 731.716 839.048 729.75C839.984 727.785 841.279 726.272 842.932 725.212C844.616 724.151 846.566 723.621 848.78 723.621ZM848.734 726.99C846.768 726.99 845.209 727.629 844.055 728.908C842.932 730.156 842.261 731.903 842.043 734.149H854.816C854.816 732.714 854.598 731.466 854.161 730.405C853.724 729.345 853.054 728.518 852.149 727.926C851.276 727.302 850.137 726.99 848.734 726.99Z" fill="#1B1B1B"/>
<path d="M834.613 727.552H826.425V749.169H822.354V727.552H814.26V724.09H834.613V727.552Z" fill="#1B1B1B"/>
<path d="M791.118 739.39C791.118 739.671 791.102 740.076 791.071 740.606C791.071 741.105 791.055 741.651 791.024 742.244C790.993 742.805 790.962 743.351 790.931 743.881C790.9 744.381 790.868 744.786 790.837 745.098L804.266 724.09H809.319V749.169H805.482V734.383C805.482 733.884 805.482 733.229 805.482 732.418C805.513 731.607 805.544 730.812 805.576 730.032C805.607 729.221 805.638 728.613 805.669 728.207L792.334 749.169H787.234V724.09H791.118V739.39Z" fill="#1B1B1B"/>
<path d="M780.439 730.406C780.439 731.966 779.972 733.182 779.036 734.056C778.1 734.929 776.899 735.522 775.433 735.834V736.021C776.993 736.239 778.349 736.801 779.504 737.705C780.658 738.579 781.235 739.951 781.235 741.823C781.235 742.883 781.032 743.866 780.627 744.77C780.252 745.675 779.66 746.455 778.849 747.11C778.038 747.765 776.993 748.28 775.714 748.654C774.435 748.997 772.891 749.169 771.082 749.169H760.273V724.09H771.035C772.813 724.09 774.404 724.293 775.807 724.698C777.242 725.072 778.365 725.727 779.176 726.663C780.018 727.568 780.439 728.816 780.439 730.406ZM776.977 741.823C776.977 740.388 776.431 739.359 775.339 738.735C774.248 738.111 772.641 737.799 770.52 737.799H764.391V745.847H770.614C772.672 745.847 774.248 745.55 775.339 744.958C776.431 744.334 776.977 743.289 776.977 741.823ZM776.275 730.921C776.275 729.736 775.839 728.878 774.965 728.348C774.123 727.786 772.735 727.505 770.801 727.505H764.391V734.383H770.052C772.08 734.383 773.624 734.103 774.684 733.541C775.745 732.98 776.275 732.106 776.275 730.921Z" fill="#1B1B1B"/>
<path d="M753.742 736.582C753.742 738.671 753.462 740.527 752.9 742.149C752.37 743.74 751.59 745.097 750.561 746.22C749.563 747.343 748.33 748.201 746.864 748.793C745.43 749.355 743.823 749.636 742.045 749.636C740.392 749.636 738.864 749.355 737.46 748.793C736.056 748.201 734.84 747.343 733.81 746.22C732.781 745.097 731.97 743.74 731.377 742.149C730.816 740.527 730.535 738.671 730.535 736.582C730.535 733.805 731.003 731.466 731.939 729.563C732.875 727.629 734.216 726.163 735.963 725.165C737.709 724.136 739.784 723.621 742.186 723.621C744.463 723.621 746.459 724.136 748.175 725.165C749.921 726.163 751.278 727.629 752.245 729.563C753.243 731.466 753.742 733.805 753.742 736.582ZM734.793 736.582C734.793 738.547 735.042 740.262 735.542 741.728C736.072 743.163 736.883 744.271 737.975 745.05C739.066 745.83 740.454 746.22 742.139 746.22C743.823 746.22 745.211 745.83 746.303 745.05C747.395 744.271 748.19 743.163 748.689 741.728C749.219 740.262 749.485 738.547 749.485 736.582C749.485 734.585 749.219 732.885 748.689 731.482C748.159 730.078 747.348 729.002 746.256 728.253C745.196 727.473 743.808 727.083 742.092 727.083C739.534 727.083 737.678 727.926 736.524 729.61C735.37 731.294 734.793 733.618 734.793 736.582Z" fill="#1B1B1B"/>
<path d="M715.087 723.621C718.175 723.621 720.655 724.697 722.527 726.85C724.43 729.002 725.381 732.246 725.381 736.582C725.381 739.42 724.944 741.822 724.071 743.787C723.229 745.721 722.028 747.187 720.468 748.185C718.94 749.152 717.131 749.636 715.041 749.636C713.762 749.636 712.623 749.464 711.625 749.121C710.627 748.778 709.769 748.341 709.052 747.811C708.365 747.249 707.773 746.641 707.274 745.986H706.993C707.055 746.516 707.118 747.187 707.18 747.998C707.242 748.809 707.274 749.511 707.274 750.104V760.397H703.156V724.089H706.525L707.087 727.505H707.274C707.773 726.787 708.365 726.132 709.052 725.539C709.769 724.947 710.611 724.479 711.578 724.136C712.576 723.793 713.746 723.621 715.087 723.621ZM714.339 727.083C712.654 727.083 711.297 727.411 710.268 728.066C709.239 728.69 708.49 729.641 708.022 730.92C707.554 732.199 707.305 733.821 707.274 735.786V736.582C707.274 738.64 707.492 740.387 707.929 741.822C708.365 743.257 709.098 744.349 710.128 745.097C711.188 745.846 712.623 746.22 714.432 746.22C715.961 746.22 717.208 745.799 718.175 744.957C719.174 744.115 719.907 742.976 720.375 741.541C720.874 740.075 721.123 738.406 721.123 736.535C721.123 733.665 720.562 731.372 719.439 729.657C718.347 727.941 716.647 727.083 714.339 727.083Z" fill="#1B1B1B"/>
<path d="M696.629 736.582C696.629 738.671 696.348 740.527 695.787 742.149C695.257 743.74 694.477 745.097 693.447 746.22C692.449 747.343 691.217 748.201 689.751 748.793C688.316 749.355 686.71 749.636 684.932 749.636C683.279 749.636 681.75 749.355 680.347 748.793C678.943 748.201 677.726 747.343 676.697 746.22C675.668 745.097 674.857 743.74 674.264 742.149C673.703 740.527 673.422 738.671 673.422 736.582C673.422 733.805 673.89 731.466 674.826 729.563C675.761 727.629 677.103 726.163 678.849 725.165C680.596 724.136 682.67 723.621 685.072 723.621C687.349 723.621 689.346 724.136 691.061 725.165C692.808 726.163 694.165 727.629 695.132 729.563C696.13 731.466 696.629 733.805 696.629 736.582ZM677.68 736.582C677.68 738.547 677.929 740.262 678.428 741.728C678.959 743.163 679.77 744.271 680.861 745.05C681.953 745.83 683.341 746.22 685.026 746.22C686.71 746.22 688.098 745.83 689.19 745.05C690.281 744.271 691.077 743.163 691.576 741.728C692.106 740.262 692.371 738.547 692.371 736.582C692.371 734.585 692.106 732.885 691.576 731.482C691.046 730.078 690.235 729.002 689.143 728.253C688.082 727.473 686.694 727.083 684.979 727.083C682.421 727.083 680.565 727.926 679.411 729.61C678.257 731.294 677.68 733.618 677.68 736.582Z" fill="#1B1B1B"/>
<path d="M666.267 724.09V745.706H669.916V757.871H665.939V749.169H648.487V757.871H644.557V745.706H646.569C648.003 743.71 649.189 741.542 650.125 739.203C651.091 736.832 651.809 734.368 652.277 731.81C652.776 729.221 653.041 726.648 653.072 724.09H666.267ZM656.722 727.318C656.597 729.439 656.269 731.638 655.739 733.915C655.209 736.161 654.523 738.314 653.68 740.372C652.869 742.431 651.918 744.209 650.826 745.706H662.29V727.318H656.722Z" fill="#1B1B1B"/>
<path d="M631.304 723.621C633.206 723.621 634.86 723.886 636.263 724.416C637.667 724.916 638.759 725.664 639.538 726.662C640.318 727.629 640.708 728.815 640.708 730.218C640.708 731.747 640.287 732.963 639.445 733.868C638.603 734.741 637.449 735.381 635.983 735.786V735.973C636.981 736.254 637.901 736.644 638.743 737.143C639.585 737.642 640.256 738.297 640.755 739.108C641.285 739.919 641.55 740.964 641.55 742.243C641.55 743.615 641.161 744.863 640.381 745.986C639.632 747.109 638.462 747.998 636.872 748.653C635.312 749.308 633.3 749.636 630.836 749.636C629.65 749.636 628.512 749.573 627.42 749.448C626.36 749.324 625.393 749.137 624.519 748.887C623.677 748.637 622.928 748.341 622.273 747.998V744.302C623.334 744.801 624.582 745.253 626.017 745.659C627.483 746.064 629.073 746.267 630.789 746.267C632.037 746.267 633.16 746.126 634.158 745.846C635.187 745.565 635.998 745.128 636.591 744.536C637.183 743.912 637.48 743.07 637.48 742.009C637.48 741.042 637.215 740.262 636.684 739.67C636.154 739.046 635.359 738.578 634.298 738.266C633.269 737.954 631.943 737.798 630.321 737.798H626.952V734.429H629.666C631.818 734.429 633.534 734.149 634.813 733.587C636.123 732.994 636.778 731.996 636.778 730.593C636.778 729.407 636.279 728.518 635.281 727.926C634.314 727.333 632.91 727.037 631.07 727.037C629.697 727.037 628.481 727.177 627.42 727.458C626.391 727.707 625.252 728.097 624.005 728.627L622.554 725.352C623.895 724.76 625.299 724.323 626.765 724.042C628.231 723.761 629.744 723.621 631.304 723.621Z" fill="#1B1B1B"/>
<path d="M618.18 736.582C618.18 738.671 617.899 740.527 617.338 742.149C616.807 743.74 616.028 745.097 614.998 746.22C614 747.343 612.768 748.201 611.302 748.793C609.867 749.355 608.261 749.636 606.483 749.636C604.829 749.636 603.301 749.355 601.897 748.793C600.494 748.201 599.277 747.343 598.248 746.22C597.219 745.097 596.408 743.74 595.815 742.149C595.253 740.527 594.973 738.671 594.973 736.582C594.973 733.805 595.441 731.466 596.376 729.563C597.312 727.629 598.653 726.163 600.4 725.165C602.147 724.136 604.221 723.621 606.623 723.621C608.9 723.621 610.896 724.136 612.612 725.165C614.359 726.163 615.716 727.629 616.683 729.563C617.681 731.466 618.18 733.805 618.18 736.582ZM599.23 736.582C599.23 738.547 599.48 740.262 599.979 741.728C600.509 743.163 601.32 744.271 602.412 745.05C603.504 745.83 604.892 746.22 606.576 746.22C608.261 746.22 609.649 745.83 610.74 745.05C611.832 744.271 612.628 743.163 613.127 741.728C613.657 740.262 613.922 738.547 613.922 736.582C613.922 734.585 613.657 732.885 613.127 731.482C612.596 730.078 611.785 729.002 610.694 728.253C609.633 727.473 608.245 727.083 606.529 727.083C603.972 727.083 602.116 727.926 600.962 729.61C599.807 731.294 599.23 733.618 599.23 736.582Z" fill="#1B1B1B"/>
<path d="M581.678 740.983V737.863H591.425V740.983H581.678Z" fill="#1B1B1B"/>
<path d="M578.149 736.582C578.149 738.671 577.868 740.527 577.306 742.149C576.776 743.74 575.996 745.097 574.967 746.22C573.969 747.343 572.737 748.201 571.271 748.793C569.836 749.355 568.229 749.636 566.451 749.636C564.798 749.636 563.27 749.355 561.866 748.793C560.462 748.201 559.246 747.343 558.217 746.22C557.187 745.097 556.376 743.74 555.784 742.149C555.222 740.527 554.941 738.671 554.941 736.582C554.941 733.805 555.409 731.466 556.345 729.563C557.281 727.629 558.622 726.163 560.369 725.165C562.116 724.136 564.19 723.621 566.592 723.621C568.869 723.621 570.865 724.136 572.581 725.165C574.328 726.163 575.684 727.629 576.651 729.563C577.65 731.466 578.149 733.805 578.149 736.582ZM559.199 736.582C559.199 738.547 559.449 740.262 559.948 741.728C560.478 743.163 561.289 744.271 562.381 745.05C563.473 745.83 564.861 746.22 566.545 746.22C568.229 746.22 569.617 745.83 570.709 745.05C571.801 744.271 572.596 743.163 573.095 741.728C573.626 740.262 573.891 738.547 573.891 736.582C573.891 734.585 573.626 732.885 573.095 731.482C572.565 730.078 571.754 729.002 570.662 728.253C569.602 727.473 568.214 727.083 566.498 727.083C563.94 727.083 562.084 727.926 560.93 729.61C559.776 731.294 559.199 733.618 559.199 736.582Z" fill="#1B1B1B"/>
<path d="M530.68 724.09V734.524H544.295V724.09H548.413V749.169H544.295V737.986H530.68V749.169H526.562V724.09H530.68Z" fill="#1B1B1B"/>
<path d="M500.885 724.09V734.524H514.501V724.09H518.618V749.169H514.501V737.986H500.885V749.169H496.768V724.09H500.885Z" fill="#1B1B1B"/>
<path d="M490.242 736.582C490.242 738.671 489.962 740.527 489.4 742.149C488.87 743.74 488.09 745.097 487.061 746.22C486.063 747.343 484.83 748.201 483.364 748.793C481.93 749.355 480.323 749.636 478.545 749.636C476.892 749.636 475.364 749.355 473.96 748.793C472.556 748.201 471.34 747.343 470.31 746.22C469.281 745.097 468.47 743.74 467.877 742.149C467.316 740.527 467.035 738.671 467.035 736.582C467.035 733.805 467.503 731.466 468.439 729.563C469.375 727.629 470.716 726.163 472.463 725.165C474.209 724.136 476.284 723.621 478.686 723.621C480.963 723.621 482.959 724.136 484.675 725.165C486.421 726.163 487.778 727.629 488.745 729.563C489.743 731.466 490.242 733.805 490.242 736.582ZM471.293 736.582C471.293 738.547 471.542 740.262 472.042 741.728C472.572 743.163 473.383 744.271 474.475 745.05C475.566 745.83 476.954 746.22 478.639 746.22C480.323 746.22 481.711 745.83 482.803 745.05C483.895 744.271 484.69 743.163 485.189 741.728C485.719 740.262 485.985 738.547 485.985 736.582C485.985 734.585 485.719 732.885 485.189 731.482C484.659 730.078 483.848 729.002 482.756 728.253C481.696 727.473 480.308 727.083 478.592 727.083C476.034 727.083 474.178 727.926 473.024 729.61C471.87 731.294 471.293 733.618 471.293 736.582Z" fill="#1B1B1B"/>
<path d="M442.258 739.39C442.258 739.671 442.243 740.076 442.212 740.606C442.212 741.105 442.196 741.651 442.165 742.244C442.134 742.805 442.103 743.351 442.071 743.881C442.04 744.381 442.009 744.786 441.978 745.098L455.406 724.09H460.459V749.169H456.623V734.383C456.623 733.884 456.623 733.229 456.623 732.418C456.654 731.607 456.685 730.812 456.716 730.032C456.747 729.221 456.779 728.613 456.81 728.207L443.475 749.169H438.375V724.09H442.258V739.39Z" fill="#1B1B1B"/>
<path d="M433.564 757.871H429.54V749.169H408.812V724.09H412.93V745.706H425.89V724.09H430.008V745.753H433.564V757.871Z" fill="#1B1B1B"/>
<path d="M392.081 723.669C395.138 723.669 397.399 724.34 398.865 725.681C400.331 727.022 401.064 729.159 401.064 732.091V749.169H398.07L397.274 745.613H397.087C396.37 746.517 395.621 747.282 394.841 747.906C394.093 748.498 393.219 748.935 392.221 749.216C391.254 749.496 390.069 749.637 388.665 749.637C387.168 749.637 385.811 749.372 384.594 748.841C383.409 748.311 382.473 747.5 381.787 746.408C381.101 745.285 380.758 743.882 380.758 742.197C380.758 739.702 381.74 737.784 383.705 736.442C385.671 735.07 388.696 734.321 392.783 734.196L397.04 734.056V732.559C397.04 730.469 396.588 729.018 395.683 728.207C394.779 727.396 393.5 726.991 391.847 726.991C390.537 726.991 389.289 727.194 388.104 727.599C386.918 727.974 385.811 728.41 384.782 728.909L383.518 725.821C384.61 725.229 385.905 724.729 387.402 724.324C388.899 723.887 390.459 723.669 392.081 723.669ZM393.297 737.051C390.178 737.175 388.01 737.674 386.794 738.548C385.608 739.421 385.016 740.653 385.016 742.244C385.016 743.648 385.437 744.677 386.279 745.332C387.152 745.987 388.26 746.315 389.601 746.315C391.722 746.315 393.484 745.738 394.888 744.584C396.292 743.398 396.994 741.589 396.994 739.156V736.91L393.297 737.051Z" fill="#1B1B1B"/>
<path d="M377.644 727.552H369.456V749.169H365.385V727.552H357.291V724.09H377.644V727.552Z" fill="#1B1B1B"/>
<path d="M334.149 739.39C334.149 739.671 334.134 740.076 334.102 740.606C334.102 741.105 334.087 741.651 334.056 742.244C334.024 742.805 333.993 743.351 333.962 743.881C333.931 744.381 333.9 744.786 333.868 745.098L347.297 724.09H352.35V749.169H348.513V734.383C348.513 733.884 348.513 733.229 348.513 732.418C348.544 731.607 348.576 730.812 348.607 730.032C348.638 729.221 348.669 728.613 348.7 728.207L335.366 749.169H330.266V724.09H334.149V739.39Z" fill="#1B1B1B"/>
<path d="M322.302 749.169H318.138V727.505H310.745C310.433 731.467 310.043 734.851 309.575 737.659C309.107 740.435 308.515 742.696 307.797 744.443C307.08 746.19 306.222 747.469 305.224 748.28C304.226 749.091 303.056 749.496 301.715 749.496C301.309 749.496 300.904 749.465 300.498 749.403C300.124 749.371 299.812 749.293 299.562 749.169V746.081C299.75 746.143 299.952 746.19 300.171 746.221C300.389 746.252 300.607 746.268 300.826 746.268C301.512 746.268 302.136 745.987 302.697 745.426C303.259 744.864 303.758 744.006 304.195 742.852C304.662 741.698 305.084 740.248 305.458 738.501C305.832 736.723 306.16 734.633 306.44 732.231C306.721 729.829 306.971 727.116 307.189 724.09H322.302V749.169Z" fill="#1B1B1B"/>
<path d="M277.032 739.39C277.032 739.671 277.016 740.076 276.985 740.606C276.985 741.105 276.97 741.651 276.938 742.244C276.907 742.805 276.876 743.351 276.845 743.881C276.814 744.381 276.782 744.786 276.751 745.098L290.18 724.09H295.233V749.169H291.396V734.383C291.396 733.884 291.396 733.229 291.396 732.418C291.427 731.607 291.458 730.812 291.49 730.032C291.521 729.221 291.552 728.613 291.583 728.207L278.248 749.169H273.148V724.09H277.032V739.39Z" fill="#1B1B1B"/>
<path d="M243.828 734.104C243.828 730.455 244.187 727.351 244.904 724.793C245.653 722.204 246.791 720.146 248.32 718.617C249.879 717.058 251.876 716.013 254.309 715.482C256.336 715.046 258.317 714.656 260.251 714.313C262.185 713.97 263.994 713.658 265.678 713.377L266.38 716.98C265.569 717.104 264.665 717.26 263.667 717.448C262.668 717.604 261.655 717.775 260.625 717.962C259.596 718.118 258.598 718.29 257.631 718.477C256.695 718.633 255.868 718.789 255.151 718.945C254.122 719.163 253.201 719.537 252.39 720.068C251.579 720.567 250.878 721.253 250.285 722.126C249.724 723 249.271 724.076 248.928 725.355C248.585 726.634 248.382 728.147 248.32 729.893H248.601C249.037 729.301 249.63 728.692 250.379 728.069C251.158 727.445 252.079 726.915 253.139 726.478C254.231 726.041 255.463 725.823 256.835 725.823C259.019 725.823 260.828 726.306 262.263 727.273C263.729 728.209 264.821 729.519 265.538 731.203C266.287 732.888 266.661 734.853 266.661 737.099C266.661 739.875 266.178 742.199 265.211 744.07C264.244 745.942 262.902 747.346 261.187 748.281C259.471 749.186 257.475 749.638 255.198 749.638C253.482 749.638 251.923 749.311 250.519 748.656C249.115 747.969 247.914 746.971 246.916 745.661C245.918 744.351 245.154 742.729 244.624 740.795C244.093 738.861 243.828 736.631 243.828 734.104ZM255.525 746.223C256.898 746.223 258.083 745.942 259.081 745.38C260.111 744.819 260.906 743.899 261.467 742.62C262.029 741.341 262.31 739.641 262.31 737.52C262.31 734.962 261.826 732.95 260.859 731.484C259.923 729.987 258.364 729.238 256.18 729.238C254.808 729.238 253.56 729.55 252.437 730.174C251.314 730.767 250.379 731.453 249.63 732.233C248.881 733.013 248.351 733.668 248.039 734.198C248.039 735.726 248.148 737.208 248.367 738.643C248.585 740.078 248.959 741.372 249.49 742.526C250.051 743.649 250.815 744.554 251.782 745.24C252.78 745.895 254.028 746.223 255.525 746.223Z" fill="#1B1B1B"/>
<path d="M228.407 723.669C231.464 723.669 233.725 724.34 235.191 725.681C236.657 727.022 237.39 729.159 237.39 732.091V749.169H234.396L233.6 745.613H233.413C232.696 746.517 231.947 747.282 231.167 747.906C230.419 748.498 229.545 748.935 228.547 749.216C227.58 749.496 226.395 749.637 224.991 749.637C223.494 749.637 222.137 749.372 220.921 748.841C219.735 748.311 218.8 747.5 218.113 746.408C217.427 745.285 217.084 743.882 217.084 742.197C217.084 739.702 218.067 737.784 220.032 736.442C221.997 735.07 225.022 734.321 229.109 734.196L233.366 734.056V732.559C233.366 730.469 232.914 729.018 232.01 728.207C231.105 727.396 229.826 726.991 228.173 726.991C226.863 726.991 225.615 727.194 224.43 727.599C223.245 727.974 222.137 728.41 221.108 728.909L219.845 725.821C220.936 725.229 222.231 724.729 223.728 724.324C225.225 723.887 226.785 723.669 228.407 723.669ZM229.623 737.051C226.504 737.175 224.336 737.674 223.12 738.548C221.934 739.421 221.342 740.653 221.342 742.244C221.342 743.648 221.763 744.677 222.605 745.332C223.478 745.987 224.586 746.315 225.927 746.315C228.048 746.315 229.811 745.738 231.214 744.584C232.618 743.398 233.32 741.589 233.32 739.156V736.91L229.623 737.051Z" fill="#1B1B1B"/>
<path d="M202.192 723.621C204.345 723.621 206.185 724.089 207.714 725.025C209.273 725.961 210.458 727.286 211.269 729.002C212.112 730.686 212.533 732.667 212.533 734.944V737.424H195.361C195.424 740.262 196.141 742.43 197.514 743.927C198.917 745.393 200.867 746.126 203.362 746.126C204.953 746.126 206.357 745.986 207.573 745.705C208.821 745.393 210.1 744.957 211.41 744.395V747.998C210.131 748.56 208.868 748.965 207.62 749.215C206.372 749.495 204.891 749.636 203.175 749.636C200.804 749.636 198.699 749.152 196.859 748.185C195.049 747.218 193.63 745.783 192.601 743.881C191.603 741.947 191.104 739.592 191.104 736.816C191.104 734.071 191.556 731.716 192.46 729.75C193.396 727.785 194.691 726.272 196.344 725.212C198.028 724.151 199.978 723.621 202.192 723.621ZM202.146 726.99C200.181 726.99 198.621 727.629 197.467 728.908C196.344 730.156 195.673 731.903 195.455 734.149H208.228C208.228 732.714 208.01 731.466 207.573 730.405C207.136 729.345 206.466 728.518 205.561 727.926C204.688 727.302 203.549 726.99 202.146 726.99Z" fill="#1B1B1B"/>
<path d="M175.648 723.621C178.736 723.621 181.216 724.697 183.087 726.85C184.99 729.002 185.941 732.246 185.941 736.582C185.941 739.42 185.505 741.822 184.631 743.787C183.789 745.721 182.588 747.187 181.029 748.185C179.5 749.152 177.691 749.636 175.601 749.636C174.322 749.636 173.184 749.464 172.186 749.121C171.187 748.778 170.33 748.341 169.612 747.811C168.926 747.249 168.333 746.641 167.834 745.986H167.553C167.616 746.516 167.678 747.187 167.741 747.998C167.803 748.809 167.834 749.511 167.834 750.104V760.397H163.717V724.089H167.086L167.647 727.505H167.834C168.333 726.787 168.926 726.132 169.612 725.539C170.33 724.947 171.172 724.479 172.139 724.136C173.137 723.793 174.307 723.621 175.648 723.621ZM174.899 727.083C173.215 727.083 171.858 727.411 170.829 728.066C169.799 728.69 169.051 729.641 168.583 730.92C168.115 732.199 167.865 733.821 167.834 735.786V736.582C167.834 738.64 168.053 740.387 168.489 741.822C168.926 743.257 169.659 744.349 170.688 745.097C171.749 745.846 173.184 746.22 174.993 746.22C176.521 746.22 177.769 745.799 178.736 744.957C179.734 744.115 180.467 742.976 180.935 741.541C181.434 740.075 181.684 738.406 181.684 736.535C181.684 733.665 181.122 731.372 179.999 729.657C178.908 727.941 177.208 727.083 174.899 727.083Z" fill="#1B1B1B"/>
</svg>
