<svg width="2301" height="482" viewBox="0 0 2301 482" fill="none" xmlns="http://www.w3.org/2000/svg">
<path d="M461.639 147.886C419.789 78.6218 343.775 32.3158 256.945 32.3158C170.116 32.3158 94.1011 78.6225 52.2505 147.887C80.8869 62.2897 161.712 0.600586 256.945 0.600586C352.178 0.600586 433.003 62.2889 461.639 147.886Z" fill="#02C3BF"/>
<path d="M44.7079 254.241C46.8302 254.241 49.462 253.817 52.6031 252.968C54.911 252.299 56.7844 251.61 58.2233 250.898C58.7957 250.615 59.2994 250.329 59.7343 250.039L86.0479 296.298L101.651 323.728L103.413 326.826H121.466H145.563L125.684 294.059L121.49 287.146L112.071 271.62L104.177 258.607L96.8192 246.479L87.6223 231.319C90.0842 229.537 93.7347 225.759 98.5737 219.986C103.498 214.128 107.742 208.398 111.308 202.795L141.233 155.041H102.394L79.9817 192.48C69.9292 209.344 60.5721 219.64 51.9106 223.367C49.4537 224.424 47.0528 224.952 44.7079 224.952V155.041H7.26918V326.826H44.7079V254.241Z" fill="#02C3BF"/>
<path d="M299.651 165.496C294.778 157.097 258.188 94.0464 256.931 93.2708C255.409 95.5874 254.035 98.0076 252.663 100.424L252.659 100.431C252.053 101.497 251.448 102.562 250.831 103.618L239.332 123.152L224.085 149.393C222.765 151.642 221.438 153.889 220.11 156.137C215.484 163.967 210.852 171.808 206.496 179.779C203.525 181.523 200.627 183.44 197.727 185.357L197.726 185.358L197.726 185.358C193.769 187.975 189.809 190.594 185.654 192.778C181.353 186.771 177.24 180.642 173.127 174.513L173.127 174.513C170.18 170.121 167.233 165.73 164.217 161.384C157.143 175.523 149.962 189.609 142.677 203.641C141.236 206.443 139.838 209.27 138.441 212.097C136.288 216.451 134.134 220.805 131.823 225.071C129.907 223.618 127.894 222.309 125.879 221C124.82 220.311 123.76 219.622 122.714 218.912C118.306 224.175 113.433 229.182 108.6 234.149L108.599 234.15L108.598 234.151C106.955 235.839 105.316 237.523 103.702 239.211C103.118 239.824 102.535 240.439 101.952 241.053L109.295 253.157C114.458 247.62 119.565 242.029 124.615 236.384C125.561 236.952 126.523 237.548 127.499 238.153C130.996 240.323 134.66 242.595 138.361 243.978C141.91 236.27 145.701 228.653 149.488 221.044L149.489 221.042L149.489 221.041C151.077 217.851 152.663 214.664 154.231 211.471C155.368 209.155 156.485 206.807 157.605 204.453C160.203 198.993 162.818 193.497 165.742 188.28C167.936 191.033 170.063 193.831 172.19 196.629L172.191 196.63L172.192 196.631L172.193 196.632C173.349 198.153 174.505 199.673 175.672 201.187C176.426 202.165 177.2 203.133 177.974 204.1L177.975 204.102C179.226 205.666 180.479 207.233 181.651 208.847C186.332 206.304 191.092 203.9 195.852 201.495L195.852 201.495C199.234 199.786 202.617 198.078 205.971 196.319C206.725 195.924 207.544 195.529 208.386 195.123L208.387 195.122C210.653 194.029 213.079 192.859 214.828 191.403C216.507 190.007 223.603 178.062 227.364 171.732L227.364 171.731C228.164 170.385 228.813 169.293 229.226 168.61C231.733 164.475 234.231 160.333 236.73 156.19L236.73 156.189L236.736 156.18C243.502 144.962 250.272 133.738 257.211 122.636C260.78 136.322 264.139 150.066 267.497 163.809L267.499 163.818L267.503 163.836C268.876 169.453 270.248 175.07 271.635 180.682C272.608 184.621 273.643 188.542 274.678 192.463C276.062 197.708 277.446 202.953 278.683 208.242C279.959 203.224 280.894 198.01 281.83 192.785C282.913 186.747 283.998 180.694 285.615 174.913C289.84 185.207 294.132 195.473 298.492 205.712C298.851 206.566 299.281 207.666 299.751 208.868C301.049 212.19 302.653 216.295 303.915 218.168C304.976 219.741 306.615 221.116 308.157 222.41C308.642 222.816 309.116 223.214 309.56 223.608C310.852 224.752 312.129 225.913 313.405 227.074L313.408 227.076L313.411 227.079L313.414 227.081C314.84 228.378 316.266 229.674 317.712 230.947C318.284 231.451 318.872 231.95 319.463 232.45L319.463 232.451C320.968 233.727 322.489 235.017 323.806 236.437C325.514 238.277 326.91 240.529 328.268 242.719L328.269 242.721L328.27 242.723C328.691 243.402 329.108 244.074 329.529 244.726C330.617 246.41 331.696 248.1 332.775 249.791L332.777 249.794C335.109 253.446 337.442 257.1 339.86 260.691C343.202 265.619 346.599 270.509 350.049 275.362C350.576 276.106 351.122 276.845 351.67 277.587L351.672 277.589C353.227 279.694 354.797 281.819 355.993 284.119C354.172 282.477 352.397 280.786 350.621 279.096L350.62 279.095L350.619 279.094L350.616 279.092L350.615 279.09C349.207 277.75 347.798 276.409 346.367 275.092C341.438 270.593 336.422 266.193 331.319 261.892C327.703 258.843 323.986 255.91 320.27 252.978L320.269 252.977L320.266 252.975C316.144 249.723 312.023 246.471 308.04 243.06C310.722 250.751 313.239 258.502 315.756 266.254L315.757 266.257L315.757 266.258C318.94 276.06 322.123 285.863 325.64 295.547C320.257 291.09 314.745 286.771 309.235 282.453L309.234 282.452L309.228 282.447L309.225 282.445L309.218 282.44C305.85 279.801 302.483 277.162 299.147 274.493C275.427 255.771 251.923 236.781 228.634 217.525C209.053 241.656 189.653 265.932 170.433 290.351C171.95 283.727 173.273 277.056 174.595 270.387L174.596 270.384C175.425 266.203 176.254 262.022 177.131 257.853C173.351 260.604 169.513 263.273 165.675 265.942L165.673 265.944L165.665 265.95C163.327 267.576 160.989 269.202 158.664 270.847L131.588 289.904L157.057 331.885C160.18 331.211 163.31 330.227 166.453 328.934C183.324 321.993 200.423 321.993 217.294 328.934C230.434 334.34 243.347 334.34 256.487 328.934C273.359 321.993 290.457 321.993 307.328 328.934C319.107 333.78 330.702 334.282 342.443 330.441L365.209 266.191C359.69 255.478 354.231 244.734 348.832 233.959C345.694 227.776 342.598 221.571 339.545 215.345C339.086 214.412 338.611 213.48 338.135 212.547L338.135 212.546C337.172 210.656 336.205 208.761 335.365 206.835C339.232 201.189 338.1 202.958 341.661 197.104C342.033 196.492 342.405 195.88 342.777 195.268C345.509 200.422 348.07 205.66 350.631 210.898L350.631 210.898L350.632 210.9C351.875 213.443 353.118 215.985 354.381 218.518C355.771 221.306 357.205 224.074 358.64 226.841L358.641 226.843L358.642 226.846L358.645 226.852L358.646 226.853C359.837 229.152 361.029 231.451 362.195 233.762C362.759 234.879 363.321 236.002 363.885 237.129L363.897 237.154L363.907 237.173L363.916 237.192L363.923 237.205L363.924 237.207L363.926 237.211L363.927 237.213C365.035 239.427 367.91 244.661 370.922 250.068L375.42 237.374C372.735 233.957 370.175 229.954 367.716 225.436L367.686 225.381L367.657 225.325C364.366 219.017 361.69 212.247 359.614 205.032L354.657 188.198L348.935 176.94C348.586 176.249 348.242 175.544 347.895 174.835L347.891 174.826L347.886 174.816C346.845 172.684 345.785 170.514 344.512 168.572C341.244 173.466 338.093 178.431 334.943 183.396L334.942 183.397L334.94 183.399C332.281 187.59 334.331 184.129 331.6 188.279C331.051 189.114 330.507 189.956 329.963 190.799L329.962 190.802L329.96 190.804C328.62 192.881 327.276 194.963 325.832 196.954C322.728 194.524 319.652 192.059 316.605 189.558C316.132 189.176 315.636 188.797 315.135 188.415C313.664 187.291 312.147 186.132 311.026 184.743C309.83 183.261 308.848 181.481 307.893 179.751L307.892 179.75L307.892 179.749C307.549 179.128 307.209 178.513 306.865 177.92L299.651 165.496Z" fill="#02C3BF"/>
<path d="M396.403 345.116C396.454 345.059 396.505 345.003 396.556 344.946C394.882 344.395 393.209 343.776 391.539 343.089C378.399 337.682 365.486 337.682 352.346 343.089C335.475 350.03 318.376 350.03 301.505 343.089C288.364 337.682 275.451 337.682 262.311 343.089C245.44 350.03 228.341 350.03 211.47 343.089C198.33 337.682 185.417 337.682 172.276 343.089C155.405 350.03 138.306 350.03 121.435 343.089C118.86 342.029 116.294 341.177 113.732 340.533C114.488 341.436 115.253 342.331 116.025 343.219C116.798 344.107 117.578 344.987 118.368 345.86C119.157 346.734 119.955 347.6 120.76 348.458C121.566 349.316 122.379 350.166 123.201 351.009C124.022 351.852 124.852 352.687 125.689 353.514C126.527 354.341 127.372 355.16 128.225 355.972C129.077 356.783 129.938 357.586 130.806 358.381C131.674 359.176 132.549 359.962 133.432 360.741C134.315 361.519 135.205 362.289 136.102 363.051C137 363.812 137.904 364.566 138.816 365.31C139.727 366.055 140.646 366.791 141.571 367.518C142.497 368.245 143.429 368.964 144.369 369.673C144.746 369.959 145.125 370.243 145.505 370.525C152.469 370.725 159.428 369.38 166.453 366.49C183.324 359.549 200.423 359.549 217.294 366.49C230.434 371.896 243.347 371.896 256.487 366.49C273.359 359.549 290.457 359.549 307.328 366.49C320.469 371.896 333.382 371.896 346.522 366.49C357.451 361.993 368.476 360.41 379.473 361.739C379.615 361.616 379.757 361.493 379.899 361.369C381.065 360.355 382.217 359.326 383.357 358.283C384.497 357.24 385.625 356.183 386.739 355.112C387.853 354.042 388.954 352.957 390.042 351.859C391.13 350.762 392.204 349.651 393.264 348.527C394.324 347.403 395.371 346.266 396.403 345.116Z" fill="#02C3BF"/>
<path d="M353.72 380.476C354.235 380.164 354.749 379.85 355.261 379.533C354.29 379.874 353.319 380.245 352.346 380.645C335.475 387.586 318.376 387.586 301.505 380.645C288.364 375.238 275.451 375.238 262.311 380.645C245.44 387.586 228.341 387.586 211.47 380.645C198.33 375.238 185.417 375.238 172.276 380.645C169.848 381.644 167.415 382.499 164.978 383.211C164.99 383.217 165.002 383.224 165.014 383.231C166.038 383.81 167.068 384.38 168.103 384.941C169.138 385.501 170.178 386.051 171.224 386.592C172.559 387.288 173.902 387.967 175.254 388.629C176.606 389.292 177.965 389.938 179.333 390.567C180.7 391.197 182.075 391.81 183.458 392.406C184.84 393.002 186.229 393.581 187.626 394.144C189.022 394.706 190.425 395.251 191.835 395.78C193.244 396.308 194.66 396.819 196.082 397.313C197.504 397.806 198.932 398.283 200.366 398.742C201.8 399.201 203.239 399.643 204.683 400.067C206.128 400.491 207.577 400.897 209.031 401.286C210.486 401.675 211.944 402.046 213.408 402.4C214.871 402.753 216.338 403.089 217.81 403.406C219.282 403.724 220.757 404.024 222.236 404.306C223.714 404.587 225.196 404.851 226.681 405.097C228.167 405.343 229.655 405.571 231.145 405.781C232.636 405.99 234.129 406.182 235.624 406.355C237.12 406.528 238.617 406.683 240.117 406.82C241.616 406.957 243.116 407.076 244.618 407.176C246.12 407.277 247.623 407.359 249.127 407.423C250.631 407.487 252.136 407.533 253.641 407.56C255.146 407.587 256.651 407.596 258.157 407.587C259.662 407.578 261.167 407.55 262.672 407.504C264.177 407.458 265.681 407.394 267.184 407.312C268.687 407.229 270.189 407.129 271.69 407.01C273.19 406.891 274.689 406.754 276.186 406.599C277.684 406.443 279.179 406.269 280.672 406.078C282.165 405.886 283.656 405.676 285.144 405.449C286.632 405.221 288.117 404.975 289.599 404.71C291.081 404.446 292.56 404.164 294.035 403.864C295.51 403.564 296.982 403.246 298.449 402.911C299.917 402.575 301.38 402.221 302.839 401.85C304.298 401.478 305.752 401.089 307.201 400.682C308.65 400.276 310.095 399.852 311.534 399.41C313.01 398.954 314.481 398.481 315.946 397.989C317.411 397.498 318.87 396.989 320.323 396.461C321.775 395.934 323.221 395.389 324.66 394.826C326.1 394.263 327.532 393.683 328.957 393.085C330.381 392.487 331.799 391.872 333.208 391.239C334.618 390.606 336.02 389.956 337.414 389.289C338.808 388.622 340.193 387.937 341.571 387.236C342.948 386.535 344.316 385.817 345.675 385.083C347.035 384.348 348.385 383.597 349.726 382.829C351.067 382.061 352.398 381.277 353.72 380.476Z" fill="#02C3BF"/>
<path d="M52.2505 333.95C80.8869 419.548 161.712 481.237 256.945 481.237C333.142 481.237 400.116 441.745 438.513 382.113C448.106 367.216 455.915 351.061 461.639 333.952C450.028 353.169 435.787 370.618 419.415 385.802C376.776 425.346 319.684 449.522 256.945 449.522C190.602 449.522 130.573 422.488 87.2719 378.836C83.7083 375.244 80.2581 371.539 76.9269 367.727C67.7589 357.236 59.4931 345.937 52.2505 333.95Z" fill="#02C3BF"/>
<path d="M125.4 276.703C129.318 266.162 133.828 254.029 136.364 248.779L117.436 266.576L124.708 278.563C124.936 277.95 125.167 277.329 125.4 276.703Z" fill="#02C3BF"/>
<path d="M483.812 221.993C480.756 227.766 477.615 232.393 474.389 235.873L506.606 326.796H474.007L451.212 250.136C448.245 251.619 446.021 252.563 444.539 252.966C443.986 253.117 443.536 253.192 443.19 253.192V326.796H414.792V253.192C414.577 253.192 414.134 253.094 413.463 252.898C412.807 252.708 411.935 252.423 410.845 252.046C408.637 251.282 407.279 250.645 406.77 250.136L383.975 326.796H381.259H351.376L369.744 274.959L375.604 258.422L382.042 240.252L383.593 235.873C380.367 232.393 377.184 227.766 374.043 221.993C370.987 216.135 368.482 209.811 366.53 203.019L352.395 155.011H382.957L394.163 194.997C397.219 205.778 400.233 213.589 403.204 218.428C404.517 220.506 405.979 222.264 407.59 223.701C409.728 225.608 412.129 226.949 414.792 227.724V155.011H443.19V227.724C445.847 226.936 448.248 225.578 450.392 223.649C451.947 222.251 453.366 220.553 454.65 218.555C457.707 213.801 460.763 205.948 463.819 194.997L475.025 155.011H505.587L491.452 203.019C489.5 209.896 486.953 216.22 483.812 221.993Z" fill="#02C3BF"/>
<path d="M2280.22 238.009L2273.88 217.305H2242.22L2235.89 238.009H2216.03L2246.72 150.685H2269.26L2300.07 238.009H2280.22ZM2263.17 181.62C2262.76 180.24 2262.23 178.494 2261.58 176.383C2260.93 174.272 2260.28 172.12 2259.63 169.928C2258.98 167.736 2258.46 165.828 2258.05 164.204C2257.65 165.828 2257.08 167.858 2256.35 170.293C2255.7 172.648 2255.05 174.921 2254.4 177.114C2253.83 179.225 2253.38 180.727 2253.06 181.62L2246.85 201.837H2269.5L2263.17 181.62Z" fill="#1B1B1B"/>
<path d="M2205.11 238.01H2186.72V200.498H2152.26V238.01H2133.87V151.051H2152.26V185.153H2186.72V151.051H2205.11V238.01Z" fill="#1B1B1B"/>
<path d="M2033.6 151.051H2050.17V193.069C2050.17 195.099 2050.13 197.372 2050.05 199.89C2049.96 202.407 2049.88 204.883 2049.8 207.319C2049.72 209.673 2049.64 211.744 2049.56 213.53C2049.48 215.235 2049.4 216.413 2049.31 217.062H2049.68L2089.87 151.051H2111.92V238.01H2095.47V196.236C2095.47 194.044 2095.51 191.648 2095.6 189.05C2095.68 186.371 2095.76 183.813 2095.84 181.377C2096 178.941 2096.12 176.83 2096.2 175.044C2096.37 173.177 2096.49 171.959 2096.57 171.39H2096.08L2055.77 238.01H2033.6V151.051Z" fill="#1B1B1B"/>
<path d="M1938.68 192.826L1909.45 151.051H1928.45L1956.59 193.191V151.051H1973.76V193.191L2001.89 151.051H2020.89L1991.66 192.826L2022.6 238.01H2002.87L1973.76 193.922V238.01H1956.59V193.922L1927.48 238.01H1907.75L1938.68 192.826Z" fill="#1B1B1B"/>
<path d="M1880.82 212.556C1878.39 218.077 1875.79 222.867 1873.03 226.927C1870.35 230.906 1866.9 233.95 1862.68 236.061C1858.45 238.173 1852.93 239.228 1846.11 239.228C1844 239.228 1841.69 239.066 1839.17 238.741C1836.65 238.416 1834.34 237.97 1832.23 237.401V221.568C1834.18 222.38 1836.33 222.949 1838.68 223.273C1841.04 223.598 1843.23 223.761 1845.26 223.761C1847.94 223.761 1850.09 223.314 1851.71 222.421C1853.42 221.528 1854.76 220.31 1855.73 218.767C1856.79 217.143 1857.64 215.398 1858.29 213.53L1828.21 151.051H1847.7L1863.89 188.685C1864.3 189.497 1864.79 190.552 1865.36 191.851C1865.92 193.15 1866.49 194.49 1867.06 195.87C1867.63 197.251 1868.08 198.469 1868.4 199.524H1869.01C1869.33 198.55 1869.74 197.372 1870.23 195.992C1870.8 194.531 1871.36 193.069 1871.93 191.608C1872.58 190.065 1873.15 188.725 1873.64 187.589L1888.74 151.051H1907.74L1880.82 212.556Z" fill="#1B1B1B"/>
<path d="M1816.08 238.01H1797.69V204.396C1792.58 206.182 1787.87 207.522 1783.57 208.415C1779.34 209.308 1775.08 209.755 1770.78 209.755C1762.66 209.755 1756.28 207.806 1751.66 203.909C1747.11 199.93 1744.84 194.287 1744.84 186.98V151.051H1763.23V181.743C1763.23 185.965 1764.2 189.131 1766.15 191.242C1768.1 193.353 1771.39 194.409 1776.01 194.409C1779.42 194.409 1782.83 194.044 1786.24 193.313C1789.66 192.582 1793.47 191.486 1797.69 190.024V151.051H1816.08V238.01Z" fill="#1B1B1B"/>
<path d="M1671.23 238.01L1650.28 169.807H1649.79C1649.87 171.431 1650 173.867 1650.16 177.115C1650.32 180.362 1650.48 183.854 1650.65 187.589C1650.81 191.242 1650.89 194.571 1650.89 197.575V238.01H1634.45V151.051H1659.54L1680.12 217.549H1680.48L1702.28 151.051H1727.37V238.01H1710.2V196.845C1710.2 194.084 1710.24 190.918 1710.32 187.345C1710.49 183.772 1710.61 180.403 1710.69 177.236C1710.85 173.989 1710.97 171.553 1711.05 169.929H1710.57L1688.16 238.01H1671.23Z" fill="#1B1B1B"/>
<path d="M1616.36 238.01H1566.3V151.051H1616.36V166.153H1584.69V185.275H1614.16V200.377H1584.69V222.786H1616.36V238.01Z" fill="#1B1B1B"/>
<path d="M1471.38 192.826L1442.15 151.051H1461.15L1489.29 193.191V151.051H1506.46V193.191L1534.59 151.051H1553.59L1524.36 192.826L1555.3 238.01H1535.57L1506.46 193.922V238.01H1489.29V193.922L1460.18 238.01H1440.45L1471.38 192.826Z" fill="#1B1B1B"/>
<path d="M1374.31 204.639L1353.97 238.01H1333.51L1358.23 199.768C1355.87 198.793 1353.52 197.372 1351.17 195.505C1348.81 193.556 1346.86 190.999 1345.32 187.832C1343.78 184.584 1343.01 180.606 1343.01 175.897C1343.01 167.858 1345.89 161.728 1351.65 157.506C1357.42 153.203 1365.5 151.051 1375.89 151.051H1404.14V238.01H1385.75V204.639H1374.31ZM1376.62 166.153C1373.45 166.153 1370.73 166.519 1368.46 167.249C1366.27 167.98 1364.56 169.158 1363.34 170.781C1362.21 172.405 1361.64 174.557 1361.64 177.236C1361.64 181.052 1362.9 184.097 1365.42 186.371C1368.01 188.563 1371.91 189.659 1377.11 189.659H1385.75V166.153H1376.62Z" fill="#1B1B1B"/>
<path d="M1314.21 238.009L1307.88 217.305H1276.21L1269.88 238.009H1250.03L1280.72 150.685H1303.25L1334.06 238.009H1314.21ZM1297.16 181.62C1296.75 180.24 1296.23 178.494 1295.58 176.383C1294.93 174.272 1294.28 172.12 1293.63 169.928C1292.98 167.736 1292.45 165.828 1292.05 164.204C1291.64 165.828 1291.07 167.858 1290.34 170.293C1289.69 172.648 1289.04 174.921 1288.39 177.114C1287.82 179.225 1287.38 180.727 1287.05 181.62L1280.84 201.837H1303.49L1297.16 181.62Z" fill="#1B1B1B"/>
<path d="M1250.04 238.01H1229.09L1197.55 193.922V238.01H1179.16V151.051H1197.55V193.191L1228.73 151.051H1248.34L1216.67 192.826L1250.04 238.01Z" fill="#1B1B1B"/>
<path d="M1138.51 165.181C1135.02 165.181 1131.9 165.871 1129.14 167.251C1126.46 168.631 1124.18 170.621 1122.32 173.219C1120.45 175.736 1119.03 178.821 1118.05 182.475C1117.16 186.129 1116.71 190.229 1116.71 194.776C1116.71 200.947 1117.45 206.224 1118.91 210.609C1120.45 214.912 1122.84 218.2 1126.09 220.474C1129.34 222.747 1133.48 223.884 1138.51 223.884C1142.09 223.884 1145.62 223.478 1149.11 222.666C1152.68 221.854 1156.54 220.717 1160.68 219.256V234.723C1156.86 236.266 1153.09 237.403 1149.35 238.134C1145.62 238.864 1141.44 239.23 1136.81 239.23C1127.88 239.23 1120.49 237.403 1114.64 233.749C1108.88 230.014 1104.62 224.818 1101.86 218.16C1099.1 211.421 1097.71 203.585 1097.71 194.654C1097.71 188.077 1098.61 182.069 1100.39 176.629C1102.18 171.108 1104.78 166.358 1108.19 162.379C1111.68 158.401 1115.94 155.316 1120.98 153.123C1126.09 150.931 1131.94 149.835 1138.51 149.835C1142.82 149.835 1147.12 150.403 1151.42 151.54C1155.81 152.596 1159.99 154.057 1163.97 155.925L1158 170.905C1154.75 169.362 1151.47 168.022 1148.14 166.886C1144.89 165.749 1141.68 165.181 1138.51 165.181Z" fill="#1B1B1B"/>
<path d="M1079.74 238.01H1061.35V200.498H1026.88V238.01H1008.49V151.051H1026.88V185.153H1061.35V151.051H1079.74V238.01Z" fill="#1B1B1B"/>
<path d="M908.215 151.051H924.778V193.069C924.778 195.099 924.738 197.372 924.657 199.89C924.575 202.407 924.494 204.883 924.413 207.319C924.332 209.673 924.251 211.744 924.169 213.53C924.088 215.235 924.007 216.413 923.926 217.062H924.291L964.482 151.051H986.527V238.01H970.085V196.236C970.085 194.044 970.125 191.648 970.207 189.05C970.288 186.371 970.369 183.813 970.45 181.377C970.613 178.941 970.734 176.83 970.815 175.044C970.978 173.177 971.1 171.959 971.181 171.39H970.694L930.381 238.01H908.215V151.051Z" fill="#1B1B1B"/>
<path d="M859.509 151.051C870.713 151.051 878.873 153.487 883.989 158.359C889.185 163.149 891.783 169.767 891.783 178.211C891.783 182.027 891.215 185.681 890.078 189.172C888.941 192.582 887.033 195.667 884.354 198.428C881.756 201.107 878.305 203.218 874.002 204.761C869.698 206.304 864.38 207.075 858.047 207.075H850.131V238.01H831.74V151.051H859.509ZM858.534 166.153H850.131V191.973H856.22C859.712 191.973 862.716 191.527 865.233 190.633C867.75 189.74 869.698 188.319 871.079 186.371C872.459 184.422 873.149 181.905 873.149 178.82C873.149 174.516 871.972 171.35 869.617 169.32C867.263 167.209 863.568 166.153 858.534 166.153Z" fill="#1B1B1B"/>
<path d="M813.678 194.409C813.678 201.148 812.907 207.278 811.364 212.799C809.821 218.239 807.426 222.948 804.178 226.927C801.012 230.906 796.993 233.95 792.121 236.061C787.249 238.172 781.525 239.228 774.949 239.228C766.829 239.228 760.009 237.645 754.488 234.478C749.048 231.23 744.826 226.724 741.821 220.959C738.898 215.113 737.112 208.293 736.463 200.498H719.777V238.01H701.387V151.051H719.777V185.153H736.828C737.721 177.926 739.67 171.674 742.674 166.397C745.759 161.038 749.981 156.938 755.34 154.096C760.699 151.173 767.276 149.711 775.07 149.711C783.839 149.711 791.066 151.579 796.749 155.314C802.514 158.968 806.777 164.164 809.537 170.903C812.298 177.561 813.678 185.396 813.678 194.409ZM755.34 194.409C755.34 200.498 756.03 205.735 757.411 210.12C758.791 214.504 760.943 217.874 763.866 220.228C766.789 222.583 770.483 223.76 774.949 223.76C779.577 223.76 783.352 222.583 786.275 220.228C789.198 217.874 791.309 214.504 792.608 210.12C793.989 205.735 794.679 200.498 794.679 194.409C794.679 188.319 793.989 183.082 792.608 178.698C791.309 174.313 789.198 170.944 786.275 168.589C783.433 166.234 779.739 165.057 775.192 165.057C770.645 165.057 766.87 166.234 763.866 168.589C760.943 170.944 758.791 174.313 757.411 178.698C756.03 183.082 755.34 188.319 755.34 194.409Z" fill="#1B1B1B"/>
<path d="M690.441 238.01H669.493L637.949 193.922V238.01H619.559V151.051H637.949V193.191L669.128 151.051H688.736L657.07 192.826L690.441 238.01Z" fill="#1B1B1B"/>
<path d="M2289.29 315.275C2285.83 315.275 2282.72 314.566 2279.99 313.15C2277.3 311.733 2275.18 309.535 2273.62 306.556C2272.1 303.576 2271.34 299.766 2271.34 295.126C2271.34 290.29 2272.15 286.358 2273.76 283.329C2275.37 280.301 2277.55 278.078 2280.28 276.662C2283.07 275.245 2286.22 274.537 2289.73 274.537C2291.74 274.537 2293.67 274.757 2295.52 275.197C2297.38 275.587 2298.89 276.076 2300.07 276.662L2298.09 282.011C2296.91 281.571 2295.55 281.156 2293.98 280.765C2292.42 280.374 2290.96 280.179 2289.59 280.179C2286.95 280.179 2284.78 280.741 2283.07 281.864C2281.36 282.987 2280.09 284.648 2279.26 286.846C2278.43 289.044 2278.01 291.78 2278.01 295.052C2278.01 298.178 2278.43 300.841 2279.26 303.039C2280.09 305.237 2281.33 306.897 2282.99 308.021C2284.65 309.144 2286.73 309.706 2289.22 309.706C2291.37 309.706 2293.25 309.486 2294.86 309.047C2296.52 308.607 2298.04 308.07 2299.41 307.435V313.15C2298.09 313.834 2296.62 314.346 2295.01 314.688C2293.45 315.079 2291.54 315.275 2289.29 315.275Z" fill="#1B1B1B"/>
<path d="M2259.42 275.27H2266.46L2249.68 294.173L2267.85 314.542H2260.37L2242.64 294.613V314.542H2236.2V275.27H2242.64V294.32L2259.42 275.27Z" fill="#1B1B1B"/>
<path d="M2210 274.537C2213.37 274.537 2216.25 275.27 2218.64 276.735C2221.09 278.201 2222.94 280.276 2224.21 282.963C2225.53 285.601 2226.19 288.702 2226.19 292.268V296.151H2199.3C2199.4 300.596 2200.52 303.991 2202.67 306.336C2204.87 308.631 2207.92 309.779 2211.83 309.779C2214.32 309.779 2216.52 309.56 2218.42 309.12C2220.38 308.631 2222.38 307.948 2224.43 307.068V312.71C2222.43 313.589 2220.45 314.224 2218.5 314.615C2216.54 315.055 2214.22 315.275 2211.54 315.275C2207.82 315.275 2204.53 314.517 2201.64 313.003C2198.81 311.489 2196.59 309.242 2194.98 306.262C2193.41 303.234 2192.63 299.546 2192.63 295.199C2192.63 290.9 2193.34 287.213 2194.76 284.135C2196.22 281.058 2198.25 278.689 2200.84 277.028C2203.48 275.367 2206.53 274.537 2210 274.537ZM2209.92 279.812C2206.85 279.812 2204.4 280.814 2202.6 282.816C2200.84 284.77 2199.79 287.506 2199.45 291.023H2219.45C2219.45 288.776 2219.11 286.822 2218.42 285.161C2217.74 283.5 2216.69 282.206 2215.27 281.278C2213.91 280.301 2212.12 279.812 2209.92 279.812Z" fill="#1B1B1B"/>
<path d="M2182.37 314.542H2175.85V280.619H2164.27C2163.78 286.822 2163.17 292.122 2162.44 296.518C2161.71 300.865 2160.78 304.407 2159.66 307.142C2158.53 309.877 2157.19 311.88 2155.63 313.15C2154.06 314.42 2152.23 315.055 2150.13 315.055C2149.5 315.055 2148.86 315.006 2148.23 314.908C2147.64 314.86 2147.15 314.737 2146.76 314.542V309.706C2147.05 309.804 2147.37 309.877 2147.71 309.926C2148.06 309.975 2148.4 309.999 2148.74 309.999C2149.81 309.999 2150.79 309.56 2151.67 308.681C2152.55 307.801 2153.33 306.458 2154.02 304.651C2154.75 302.843 2155.41 300.572 2155.99 297.837C2156.58 295.053 2157.09 291.78 2157.53 288.019C2157.97 284.258 2158.36 280.008 2158.7 275.27H2182.37V314.542Z" fill="#1B1B1B"/>
<path d="M2139.94 275.27V314.542H2133.5V280.765H2113.2V314.542H2106.75V275.27H2139.94Z" fill="#1B1B1B"/>
<path d="M2094.23 275.27V314.542H2088.44V289.484C2088.44 288.458 2088.47 287.384 2088.52 286.26C2088.61 285.137 2088.71 284.038 2088.81 282.963H2088.59L2075.77 314.542H2070.35L2057.89 282.963H2057.67C2057.77 284.038 2057.82 285.137 2057.82 286.26C2057.87 287.384 2057.89 288.532 2057.89 289.704V314.542H2052.1V275.27H2060.67L2073.06 306.849L2085.66 275.27H2094.23Z" fill="#1B1B1B"/>
<path d="M2041.87 294.833C2041.87 298.105 2041.43 301.012 2040.55 303.552C2039.72 306.043 2038.5 308.167 2036.89 309.926C2035.33 311.684 2033.4 313.028 2031.1 313.956C2028.86 314.835 2026.34 315.275 2023.56 315.275C2020.97 315.275 2018.57 314.835 2016.38 313.956C2014.18 313.028 2012.27 311.684 2010.66 309.926C2009.05 308.167 2007.78 306.043 2006.85 303.552C2005.97 301.012 2005.53 298.105 2005.53 294.833C2005.53 290.485 2006.26 286.822 2007.73 283.842C2009.19 280.814 2011.3 278.518 2014.03 276.955C2016.77 275.343 2020.01 274.537 2023.78 274.537C2027.34 274.537 2030.47 275.343 2033.15 276.955C2035.89 278.518 2038.01 280.814 2039.53 283.842C2041.09 286.822 2041.87 290.485 2041.87 294.833ZM2012.2 294.833C2012.2 297.91 2012.59 300.596 2013.37 302.892C2014.2 305.139 2015.47 306.873 2017.18 308.094C2018.89 309.315 2021.06 309.926 2023.7 309.926C2026.34 309.926 2028.51 309.315 2030.22 308.094C2031.93 306.873 2033.18 305.139 2033.96 302.892C2034.79 300.596 2035.21 297.91 2035.21 294.833C2035.21 291.706 2034.79 289.044 2033.96 286.846C2033.13 284.648 2031.86 282.963 2030.15 281.791C2028.49 280.57 2026.32 279.959 2023.63 279.959C2019.62 279.959 2016.72 281.278 2014.91 283.916C2013.1 286.553 2012.2 290.192 2012.2 294.833Z" fill="#1B1B1B"/>
<path d="M1993.61 275.27H2000.64L1983.86 294.173L2002.03 314.542H1994.56L1976.83 294.613V314.542H1970.38V275.27H1976.83V294.32L1993.61 275.27Z" fill="#1B1B1B"/>
<path d="M1939.86 259.004C1939.67 261.447 1939.06 263.498 1938.03 265.159C1937.05 266.82 1935.59 268.065 1933.63 268.896C1931.68 269.726 1929.14 270.141 1926.01 270.141C1922.84 270.141 1920.27 269.726 1918.32 268.896C1916.42 268.065 1915.02 266.844 1914.14 265.232C1913.26 263.571 1912.73 261.496 1912.53 259.004H1918.54C1918.78 261.642 1919.47 263.425 1920.59 264.353C1921.76 265.232 1923.62 265.672 1926.16 265.672C1928.41 265.672 1930.17 265.208 1931.44 264.28C1932.75 263.303 1933.54 261.544 1933.78 259.004H1939.86ZM1914.14 299.229C1914.14 299.669 1914.12 300.304 1914.07 301.134C1914.07 301.915 1914.05 302.77 1914 303.698C1913.95 304.578 1913.9 305.432 1913.85 306.263C1913.8 307.044 1913.75 307.679 1913.7 308.168L1934.73 275.27H1942.65V314.542H1936.64V291.389C1936.64 290.608 1936.64 289.582 1936.64 288.312C1936.69 287.042 1936.73 285.796 1936.78 284.575C1936.83 283.305 1936.88 282.353 1936.93 281.718L1916.05 314.542H1908.06V275.27H1914.14V299.229Z" fill="#1B1B1B"/>
<path d="M1851.03 314.542V275.27H1857.48V291.389H1867.66C1871.08 291.389 1873.89 291.804 1876.09 292.635C1878.28 293.465 1879.92 294.711 1880.99 296.371C1882.07 297.983 1882.61 300.035 1882.61 302.526C1882.61 304.968 1882.07 307.093 1880.99 308.9C1879.97 310.708 1878.33 312.1 1876.09 313.077C1873.89 314.054 1870.98 314.542 1867.37 314.542H1851.03ZM1866.78 309.34C1869.56 309.34 1871.84 308.876 1873.59 307.948C1875.35 306.971 1876.23 305.286 1876.23 302.892C1876.23 300.499 1875.43 298.887 1873.81 298.057C1872.2 297.177 1869.88 296.738 1866.85 296.738H1857.48V309.34H1866.78ZM1889.13 314.542V275.27H1895.57V314.542H1889.13Z" fill="#1B1B1B"/>
<path d="M1810.82 275.27V291.609H1832.15V275.27H1838.59V314.542H1832.15V297.031H1810.82V314.542H1804.38V275.27H1810.82Z" fill="#1B1B1B"/>
<path d="M1778.97 291.389C1782.39 291.389 1785.22 291.804 1787.47 292.635C1789.71 293.465 1791.4 294.711 1792.52 296.371C1793.7 297.983 1794.28 300.035 1794.28 302.526C1794.28 304.968 1793.72 307.093 1792.6 308.9C1791.52 310.708 1789.84 312.1 1787.54 313.077C1785.25 314.054 1782.29 314.542 1778.68 314.542H1760.87V275.27H1767.32V291.389H1778.97ZM1787.83 302.892C1787.83 300.499 1786.98 298.887 1785.27 298.057C1783.61 297.177 1781.26 296.738 1778.24 296.738H1767.32V309.34H1778.38C1781.12 309.34 1783.36 308.852 1785.12 307.875C1786.93 306.898 1787.83 305.237 1787.83 302.892Z" fill="#1B1B1B"/>
<path d="M1748.41 314.542H1741.89V280.619H1730.31C1729.83 286.822 1729.21 292.122 1728.48 296.518C1727.75 300.865 1726.82 304.407 1725.7 307.142C1724.57 309.877 1723.23 311.88 1721.67 313.15C1720.11 314.42 1718.27 315.055 1716.17 315.055C1715.54 315.055 1714.9 315.006 1714.27 314.908C1713.68 314.86 1713.19 314.737 1712.8 314.542V309.706C1713.1 309.804 1713.41 309.877 1713.76 309.926C1714.1 309.975 1714.44 309.999 1714.78 309.999C1715.86 309.999 1716.83 309.56 1717.71 308.681C1718.59 307.801 1719.37 306.458 1720.06 304.651C1720.79 302.843 1721.45 300.572 1722.03 297.837C1722.62 295.053 1723.13 291.78 1723.57 288.019C1724.01 284.258 1724.4 280.008 1724.75 275.27H1748.41V314.542Z" fill="#1B1B1B"/>
<path d="M1692.33 274.537C1695.7 274.537 1698.58 275.27 1700.98 276.735C1703.42 278.201 1705.28 280.276 1706.55 282.963C1707.86 285.601 1708.52 288.702 1708.52 292.268V296.151H1681.63C1681.73 300.596 1682.86 303.991 1685 306.336C1687.2 308.631 1690.26 309.779 1694.16 309.779C1696.65 309.779 1698.85 309.56 1700.76 309.12C1702.71 308.631 1704.71 307.948 1706.77 307.068V312.71C1704.76 313.589 1702.78 314.224 1700.83 314.615C1698.88 315.055 1696.56 315.275 1693.87 315.275C1690.16 315.275 1686.86 314.517 1683.98 313.003C1681.15 311.489 1678.92 309.242 1677.31 306.262C1675.75 303.234 1674.97 299.546 1674.97 295.199C1674.97 290.9 1675.68 287.213 1677.09 284.135C1678.56 281.058 1680.58 278.689 1683.17 277.028C1685.81 275.367 1688.86 274.537 1692.33 274.537ZM1692.26 279.812C1689.18 279.812 1686.74 280.814 1684.93 282.816C1683.17 284.77 1682.12 287.506 1681.78 291.023H1701.78C1701.78 288.776 1701.44 286.822 1700.76 285.161C1700.07 283.5 1699.02 282.206 1697.61 281.278C1696.24 280.301 1694.46 279.812 1692.26 279.812Z" fill="#1B1B1B"/>
<path d="M1670.15 280.692H1657.33V314.542H1650.95V280.692H1638.28V275.27H1670.15V280.692Z" fill="#1B1B1B"/>
<path d="M1602.04 299.229C1602.04 299.669 1602.01 300.304 1601.96 301.134C1601.96 301.915 1601.94 302.77 1601.89 303.698C1601.84 304.578 1601.79 305.432 1601.74 306.263C1601.69 307.044 1601.65 307.679 1601.6 308.168L1622.62 275.27H1630.54V314.542H1624.53V291.389C1624.53 290.608 1624.53 289.582 1624.53 288.312C1624.58 287.042 1624.63 285.796 1624.68 284.575C1624.73 283.305 1624.77 282.353 1624.82 281.718L1603.94 314.542H1595.96V275.27H1602.04V299.229Z" fill="#1B1B1B"/>
<path d="M1585.32 285.161C1585.32 287.604 1584.58 289.509 1583.12 290.876C1581.65 292.244 1579.77 293.172 1577.48 293.66V293.954C1579.92 294.295 1582.04 295.175 1583.85 296.591C1585.66 297.959 1586.56 300.108 1586.56 303.039C1586.56 304.7 1586.24 306.238 1585.61 307.655C1585.02 309.071 1584.09 310.292 1582.82 311.318C1581.55 312.344 1579.92 313.15 1577.92 313.736C1575.91 314.273 1573.49 314.542 1570.66 314.542H1553.74V275.27H1570.59C1573.37 275.27 1575.86 275.588 1578.06 276.223C1580.31 276.809 1582.07 277.834 1583.34 279.3C1584.66 280.716 1585.32 282.67 1585.32 285.161ZM1579.89 303.039C1579.89 300.792 1579.04 299.18 1577.33 298.203C1575.62 297.226 1573.1 296.738 1569.78 296.738H1560.18V309.34H1569.93C1573.15 309.34 1575.62 308.876 1577.33 307.948C1579.04 306.971 1579.89 305.335 1579.89 303.039ZM1578.79 285.967C1578.79 284.111 1578.11 282.768 1576.74 281.937C1575.42 281.058 1573.25 280.619 1570.22 280.619H1560.18V291.389H1569.05C1572.22 291.389 1574.64 290.95 1576.3 290.07C1577.96 289.191 1578.79 287.823 1578.79 285.967Z" fill="#1B1B1B"/>
<path d="M1543.51 294.833C1543.51 298.105 1543.07 301.012 1542.19 303.552C1541.36 306.043 1540.14 308.167 1538.53 309.926C1536.96 311.684 1535.03 313.028 1532.74 313.956C1530.49 314.835 1527.97 315.275 1525.19 315.275C1522.6 315.275 1520.21 314.835 1518.01 313.956C1515.81 313.028 1513.91 311.684 1512.29 309.926C1510.68 308.167 1509.41 306.043 1508.48 303.552C1507.61 301.012 1507.17 298.105 1507.17 294.833C1507.17 290.485 1507.9 286.822 1509.36 283.842C1510.83 280.814 1512.93 278.518 1515.67 276.955C1518.4 275.343 1521.65 274.537 1525.41 274.537C1528.98 274.537 1532.1 275.343 1534.79 276.955C1537.52 278.518 1539.65 280.814 1541.16 283.842C1542.73 286.822 1543.51 290.485 1543.51 294.833ZM1513.83 294.833C1513.83 297.91 1514.22 300.596 1515.01 302.892C1515.84 305.139 1517.11 306.873 1518.82 308.094C1520.53 309.315 1522.7 309.926 1525.34 309.926C1527.97 309.926 1530.15 309.315 1531.86 308.094C1533.57 306.873 1534.81 305.139 1535.59 302.892C1536.42 300.596 1536.84 297.91 1536.84 294.833C1536.84 291.706 1536.42 289.044 1535.59 286.846C1534.76 284.648 1533.49 282.963 1531.78 281.791C1530.12 280.57 1527.95 279.959 1525.26 279.959C1521.26 279.959 1518.35 281.278 1516.54 283.916C1514.74 286.553 1513.83 290.192 1513.83 294.833Z" fill="#1B1B1B"/>
<path d="M1482.98 274.537C1487.81 274.537 1491.7 276.222 1494.63 279.593C1497.61 282.963 1499.1 288.043 1499.1 294.833C1499.1 299.278 1498.41 303.039 1497.04 306.116C1495.73 309.144 1493.84 311.44 1491.4 313.003C1489.01 314.517 1486.18 315.275 1482.9 315.275C1480.9 315.275 1479.12 315.006 1477.55 314.469C1475.99 313.931 1474.65 313.247 1473.52 312.417C1472.45 311.538 1471.52 310.585 1470.74 309.56H1470.3C1470.4 310.39 1470.5 311.44 1470.59 312.71C1470.69 313.98 1470.74 315.079 1470.74 316.007V332.126H1464.29V275.27H1469.57L1470.45 280.618H1470.74C1471.52 279.495 1472.45 278.469 1473.52 277.541C1474.65 276.613 1475.97 275.88 1477.48 275.343C1479.04 274.806 1480.88 274.537 1482.98 274.537ZM1481.8 279.959C1479.17 279.959 1477.04 280.472 1475.43 281.498C1473.82 282.475 1472.65 283.964 1471.91 285.967C1471.18 287.97 1470.79 290.51 1470.74 293.587V294.833C1470.74 298.056 1471.08 300.792 1471.77 303.039C1472.45 305.286 1473.6 306.995 1475.21 308.167C1476.87 309.34 1479.12 309.926 1481.95 309.926C1484.34 309.926 1486.3 309.266 1487.81 307.948C1489.38 306.629 1490.52 304.846 1491.26 302.599C1492.04 300.303 1492.43 297.69 1492.43 294.759C1492.43 290.265 1491.55 286.675 1489.79 283.989C1488.08 281.302 1485.42 279.959 1481.8 279.959Z" fill="#1B1B1B"/>
<path d="M1454.07 294.833C1454.07 298.105 1453.63 301.012 1452.75 303.552C1451.92 306.043 1450.7 308.167 1449.09 309.926C1447.53 311.684 1445.6 313.028 1443.3 313.956C1441.06 314.835 1438.54 315.275 1435.76 315.275C1433.17 315.275 1430.77 314.835 1428.58 313.956C1426.38 313.028 1424.47 311.684 1422.86 309.926C1421.25 308.167 1419.98 306.043 1419.05 303.552C1418.17 301.012 1417.73 298.105 1417.73 294.833C1417.73 290.485 1418.47 286.822 1419.93 283.842C1421.4 280.814 1423.5 278.518 1426.23 276.955C1428.97 275.343 1432.22 274.537 1435.98 274.537C1439.54 274.537 1442.67 275.343 1445.35 276.955C1448.09 278.518 1450.21 280.814 1451.73 283.842C1453.29 286.822 1454.07 290.485 1454.07 294.833ZM1424.4 294.833C1424.4 297.91 1424.79 300.596 1425.57 302.892C1426.4 305.139 1427.67 306.873 1429.38 308.094C1431.09 309.315 1433.27 309.926 1435.9 309.926C1438.54 309.926 1440.71 309.315 1442.42 308.094C1444.13 306.873 1445.38 305.139 1446.16 302.892C1446.99 300.596 1447.41 297.91 1447.41 294.833C1447.41 291.706 1446.99 289.044 1446.16 286.846C1445.33 284.648 1444.06 282.963 1442.35 281.791C1440.69 280.57 1438.52 279.959 1435.83 279.959C1431.82 279.959 1428.92 281.278 1427.11 283.916C1425.3 286.553 1424.4 290.192 1424.4 294.833Z" fill="#1B1B1B"/>
<path d="M1406.52 275.27V309.12H1412.24V328.17H1406.01V314.542H1378.68V328.17H1372.53V309.12H1375.68C1377.92 305.994 1379.78 302.599 1381.25 298.936C1382.76 295.224 1383.88 291.365 1384.62 287.359C1385.4 283.305 1385.81 279.275 1385.86 275.27H1406.52ZM1391.58 280.326C1391.38 283.647 1390.87 287.091 1390.04 290.656C1389.21 294.173 1388.13 297.544 1386.81 300.768C1385.54 303.991 1384.05 306.776 1382.35 309.12H1400.3V280.326H1391.58Z" fill="#1B1B1B"/>
<path d="M1351.77 274.537C1354.75 274.537 1357.34 274.952 1359.54 275.783C1361.74 276.564 1363.45 277.737 1364.67 279.3C1365.89 280.814 1366.5 282.67 1366.5 284.868C1366.5 287.261 1365.84 289.166 1364.52 290.583C1363.2 291.951 1361.4 292.952 1359.1 293.587V293.88C1360.66 294.32 1362.1 294.93 1363.42 295.712C1364.74 296.493 1365.79 297.519 1366.57 298.789C1367.4 300.059 1367.82 301.695 1367.82 303.698C1367.82 305.847 1367.21 307.801 1365.99 309.56C1364.82 311.318 1362.98 312.71 1360.49 313.736C1358.05 314.762 1354.9 315.275 1351.04 315.275C1349.18 315.275 1347.4 315.177 1345.69 314.981C1344.03 314.786 1342.52 314.493 1341.15 314.102C1339.83 313.711 1338.66 313.247 1337.63 312.71V306.922C1339.29 307.703 1341.25 308.412 1343.49 309.047C1345.79 309.682 1348.28 309.999 1350.97 309.999C1352.92 309.999 1354.68 309.779 1356.24 309.34C1357.86 308.9 1359.13 308.216 1360.05 307.288C1360.98 306.311 1361.45 304.992 1361.45 303.332C1361.45 301.817 1361.03 300.596 1360.2 299.668C1359.37 298.691 1358.12 297.959 1356.46 297.47C1354.85 296.982 1352.78 296.738 1350.24 296.738H1344.96V291.462H1349.21C1352.58 291.462 1355.27 291.023 1357.27 290.143C1359.32 289.215 1360.35 287.652 1360.35 285.454C1360.35 283.598 1359.56 282.206 1358 281.278C1356.49 280.35 1354.29 279.886 1351.41 279.886C1349.26 279.886 1347.35 280.106 1345.69 280.545C1344.08 280.936 1342.3 281.546 1340.34 282.377L1338.07 277.248C1340.17 276.32 1342.37 275.636 1344.67 275.197C1346.96 274.757 1349.33 274.537 1351.77 274.537Z" fill="#1B1B1B"/>
<path d="M1331.22 294.833C1331.22 298.105 1330.78 301.012 1329.9 303.552C1329.07 306.043 1327.85 308.167 1326.24 309.926C1324.68 311.684 1322.75 313.028 1320.45 313.956C1318.2 314.835 1315.69 315.275 1312.9 315.275C1310.32 315.275 1307.92 314.835 1305.72 313.956C1303.53 313.028 1301.62 311.684 1300.01 309.926C1298.4 308.167 1297.13 306.043 1296.2 303.552C1295.32 301.012 1294.88 298.105 1294.88 294.833C1294.88 290.485 1295.61 286.822 1297.08 283.842C1298.54 280.814 1300.64 278.518 1303.38 276.955C1306.12 275.343 1309.36 274.537 1313.12 274.537C1316.69 274.537 1319.82 275.343 1322.5 276.955C1325.24 278.518 1327.36 280.814 1328.88 283.842C1330.44 286.822 1331.22 290.485 1331.22 294.833ZM1301.55 294.833C1301.55 297.91 1301.94 300.596 1302.72 302.892C1303.55 305.139 1304.82 306.873 1306.53 308.094C1308.24 309.315 1310.41 309.926 1313.05 309.926C1315.69 309.926 1317.86 309.315 1319.57 308.094C1321.28 306.873 1322.53 305.139 1323.31 302.892C1324.14 300.596 1324.55 297.91 1324.55 294.833C1324.55 291.706 1324.14 289.044 1323.31 286.846C1322.48 284.648 1321.21 282.963 1319.5 281.791C1317.84 280.57 1315.66 279.959 1312.98 279.959C1308.97 279.959 1306.07 281.278 1304.26 283.916C1302.45 286.553 1301.55 290.192 1301.55 294.833Z" fill="#1B1B1B"/>
<path d="M1274.06 301.724V296.84H1289.32V301.724H1274.06Z" fill="#1B1B1B"/>
<path d="M1268.54 294.833C1268.54 298.105 1268.1 301.012 1267.22 303.552C1266.39 306.043 1265.17 308.167 1263.55 309.926C1261.99 311.684 1260.06 313.028 1257.77 313.956C1255.52 314.835 1253 315.275 1250.22 315.275C1247.63 315.275 1245.24 314.835 1243.04 313.956C1240.84 313.028 1238.94 311.684 1237.32 309.926C1235.71 308.167 1234.44 306.043 1233.51 303.552C1232.63 301.012 1232.2 298.105 1232.2 294.833C1232.2 290.485 1232.93 286.822 1234.39 283.842C1235.86 280.814 1237.96 278.518 1240.69 276.955C1243.43 275.343 1246.68 274.537 1250.44 274.537C1254 274.537 1257.13 275.343 1259.82 276.955C1262.55 278.518 1264.68 280.814 1266.19 283.842C1267.76 286.822 1268.54 290.485 1268.54 294.833ZM1238.86 294.833C1238.86 297.91 1239.25 300.596 1240.04 302.892C1240.87 305.139 1242.14 306.873 1243.85 308.094C1245.55 309.315 1247.73 309.926 1250.37 309.926C1253 309.926 1255.18 309.315 1256.89 308.094C1258.6 306.873 1259.84 305.139 1260.62 302.892C1261.45 300.596 1261.87 297.91 1261.87 294.833C1261.87 291.706 1261.45 289.044 1260.62 286.846C1259.79 284.648 1258.52 282.963 1256.81 281.791C1255.15 280.57 1252.98 279.959 1250.29 279.959C1246.29 279.959 1243.38 281.278 1241.57 283.916C1239.77 286.553 1238.86 290.192 1238.86 294.833Z" fill="#1B1B1B"/>
<path d="M1194.2 275.27V291.609H1215.52V275.27H1221.97V314.542H1215.52V297.031H1194.2V314.542H1187.76V275.27H1194.2Z" fill="#1B1B1B"/>
<path d="M1147.55 275.27V291.609H1168.87V275.27H1175.31V314.542H1168.87V297.031H1147.55V314.542H1141.1V275.27H1147.55Z" fill="#1B1B1B"/>
<path d="M1130.88 294.833C1130.88 298.105 1130.44 301.012 1129.56 303.552C1128.73 306.043 1127.51 308.167 1125.9 309.926C1124.34 311.684 1122.41 313.028 1120.11 313.956C1117.86 314.835 1115.35 315.275 1112.56 315.275C1109.97 315.275 1107.58 314.835 1105.38 313.956C1103.18 313.028 1101.28 311.684 1099.67 309.926C1098.06 308.167 1096.79 306.043 1095.86 303.552C1094.98 301.012 1094.54 298.105 1094.54 294.833C1094.54 290.485 1095.27 286.822 1096.74 283.842C1098.2 280.814 1100.3 278.518 1103.04 276.955C1105.77 275.343 1109.02 274.537 1112.78 274.537C1116.35 274.537 1119.47 275.343 1122.16 276.955C1124.9 278.518 1127.02 280.814 1128.54 283.842C1130.1 286.822 1130.88 290.485 1130.88 294.833ZM1101.21 294.833C1101.21 297.91 1101.6 300.596 1102.38 302.892C1103.21 305.139 1104.48 306.873 1106.19 308.094C1107.9 309.315 1110.07 309.926 1112.71 309.926C1115.35 309.926 1117.52 309.315 1119.23 308.094C1120.94 306.873 1122.19 305.139 1122.97 302.892C1123.8 300.596 1124.21 297.91 1124.21 294.833C1124.21 291.706 1123.8 289.044 1122.97 286.846C1122.14 284.648 1120.87 282.963 1119.16 281.791C1117.5 280.57 1115.32 279.959 1112.64 279.959C1108.63 279.959 1105.72 281.278 1103.92 283.916C1102.11 286.553 1101.21 290.192 1101.21 294.833Z" fill="#1B1B1B"/>
<path d="M1055.74 299.229C1055.74 299.669 1055.71 300.304 1055.66 301.134C1055.66 301.915 1055.64 302.77 1055.59 303.698C1055.54 304.578 1055.49 305.432 1055.44 306.263C1055.4 307.044 1055.35 307.679 1055.3 308.168L1076.33 275.27H1084.24V314.542H1078.23V291.389C1078.23 290.608 1078.23 289.582 1078.23 288.312C1078.28 287.042 1078.33 285.796 1078.38 284.575C1078.43 283.305 1078.48 282.353 1078.52 281.718L1057.64 314.542H1049.66V275.27H1055.74V299.229Z" fill="#1B1B1B"/>
<path d="M1042.12 328.17H1035.82V314.542H1003.36V275.27H1009.81V309.12H1030.11V275.27H1036.55V309.193H1042.12V328.17Z" fill="#1B1B1B"/>
<path d="M977.165 274.61C981.952 274.61 985.493 275.66 987.789 277.76C990.084 279.861 991.232 283.207 991.232 287.798V314.541H986.543L985.297 308.973H985.004C983.881 310.389 982.709 311.586 981.487 312.563C980.315 313.491 978.948 314.175 977.384 314.615C975.87 315.054 974.014 315.274 971.816 315.274C969.471 315.274 967.347 314.859 965.442 314.028C963.585 313.198 962.12 311.928 961.045 310.218C959.971 308.46 959.434 306.262 959.434 303.624C959.434 299.717 960.972 296.713 964.05 294.612C967.127 292.463 971.865 291.291 978.264 291.095L984.931 290.876V288.531C984.931 285.258 984.223 282.987 982.806 281.717C981.39 280.447 979.387 279.812 976.798 279.812C974.747 279.812 972.793 280.129 970.937 280.764C969.081 281.351 967.347 282.034 965.735 282.816L963.756 277.98C965.466 277.052 967.493 276.271 969.838 275.636C972.182 274.952 974.625 274.61 977.165 274.61ZM979.07 295.565C974.185 295.76 970.79 296.542 968.885 297.909C967.029 299.277 966.101 301.206 966.101 303.698C966.101 305.896 966.76 307.508 968.079 308.533C969.447 309.559 971.181 310.072 973.281 310.072C976.603 310.072 979.363 309.168 981.561 307.361C983.759 305.505 984.858 302.672 984.858 298.862V295.345L979.07 295.565Z" fill="#1B1B1B"/>
<path d="M954.559 280.692H941.737V314.542H935.363V280.692H922.688V275.27H954.559V280.692Z" fill="#1B1B1B"/>
<path d="M886.448 299.229C886.448 299.669 886.424 300.304 886.375 301.134C886.375 301.915 886.351 302.77 886.302 303.698C886.253 304.578 886.204 305.432 886.155 306.263C886.107 307.044 886.058 307.679 886.009 308.168L907.037 275.27H914.95V314.542H908.942V291.389C908.942 290.608 908.942 289.582 908.942 288.312C908.991 287.042 909.04 285.796 909.089 284.575C909.137 283.305 909.186 282.353 909.235 281.718L888.353 314.542H880.367V275.27H886.448V299.229Z" fill="#1B1B1B"/>
<path d="M867.896 314.542H861.375V280.619H849.798C849.31 286.822 848.699 292.122 847.967 296.518C847.234 300.865 846.306 304.407 845.182 307.142C844.059 309.877 842.716 311.88 841.153 313.15C839.59 314.42 837.758 315.055 835.657 315.055C835.022 315.055 834.387 315.006 833.752 314.908C833.166 314.86 832.678 314.737 832.287 314.542V309.706C832.58 309.804 832.898 309.877 833.24 309.926C833.582 309.975 833.923 309.999 834.265 309.999C835.34 309.999 836.317 309.56 837.196 308.681C838.075 307.801 838.857 306.458 839.541 304.651C840.273 302.843 840.933 300.572 841.519 297.837C842.105 295.053 842.618 291.78 843.058 288.019C843.497 284.258 843.888 280.008 844.23 275.27H867.896V314.542Z" fill="#1B1B1B"/>
<path d="M797.003 299.229C797.003 299.669 796.979 300.304 796.93 301.134C796.93 301.915 796.905 302.77 796.857 303.698C796.808 304.578 796.759 305.432 796.71 306.263C796.661 307.044 796.612 307.679 796.564 308.168L817.592 275.27H825.505V314.542H819.497V291.389C819.497 290.608 819.497 289.582 819.497 288.312C819.546 287.042 819.594 285.796 819.643 284.575C819.692 283.305 819.741 282.353 819.79 281.718L798.908 314.542H790.922V275.27H797.003V299.229Z" fill="#1B1B1B"/>
<path d="M745.008 290.952C745.008 285.237 745.57 280.377 746.693 276.372C747.865 272.318 749.648 269.094 752.042 266.7C754.484 264.258 757.61 262.622 761.42 261.791C764.595 261.107 767.697 260.497 770.725 259.96C773.754 259.422 776.587 258.934 779.224 258.494L780.323 264.136C779.053 264.331 777.637 264.575 776.074 264.869C774.511 265.113 772.923 265.381 771.311 265.674C769.699 265.919 768.136 266.187 766.622 266.48C765.157 266.725 763.862 266.969 762.739 267.213C761.127 267.555 759.686 268.141 758.416 268.972C757.146 269.753 756.047 270.828 755.119 272.195C754.24 273.563 753.531 275.248 752.994 277.251C752.457 279.254 752.139 281.623 752.042 284.358H752.481C753.165 283.43 754.093 282.477 755.265 281.501C756.487 280.524 757.928 279.693 759.588 279.009C761.298 278.326 763.227 277.984 765.377 277.984C768.796 277.984 771.629 278.741 773.876 280.255C776.171 281.72 777.881 283.772 779.005 286.41C780.177 289.047 780.763 292.124 780.763 295.641C780.763 299.989 780.006 303.628 778.492 306.558C776.977 309.489 774.877 311.687 772.191 313.153C769.504 314.569 766.378 315.277 762.812 315.277C760.126 315.277 757.683 314.765 755.485 313.739C753.287 312.664 751.407 311.101 749.844 309.05C748.28 306.998 747.084 304.458 746.253 301.43C745.423 298.401 745.008 294.909 745.008 290.952ZM763.325 309.929C765.474 309.929 767.33 309.489 768.893 308.61C770.505 307.731 771.751 306.29 772.63 304.287C773.509 302.284 773.949 299.622 773.949 296.301C773.949 292.295 773.192 289.145 771.678 286.849C770.212 284.505 767.77 283.332 764.351 283.332C762.202 283.332 760.248 283.821 758.489 284.798C756.731 285.726 755.265 286.8 754.093 288.021C752.921 289.243 752.09 290.268 751.602 291.099C751.602 293.492 751.773 295.812 752.115 298.059C752.457 300.306 753.043 302.333 753.873 304.141C754.753 305.899 755.949 307.316 757.463 308.39C759.027 309.416 760.98 309.929 763.325 309.929Z" fill="#1B1B1B"/>
<path d="M720.864 274.61C725.651 274.61 729.192 275.66 731.488 277.76C733.784 279.861 734.931 283.207 734.931 287.798V314.541H730.242L728.997 308.973H728.704C727.58 310.389 726.408 311.586 725.187 312.563C724.014 313.491 722.647 314.175 721.084 314.615C719.569 315.054 717.713 315.274 715.515 315.274C713.171 315.274 711.046 314.859 709.141 314.028C707.285 313.198 705.819 311.928 704.745 310.218C703.67 308.46 703.133 306.262 703.133 303.624C703.133 299.717 704.671 296.713 707.749 294.612C710.826 292.463 715.564 291.291 721.963 291.095L728.63 290.876V288.531C728.63 285.258 727.922 282.987 726.506 281.717C725.089 280.447 723.086 279.812 720.498 279.812C718.446 279.812 716.492 280.129 714.636 280.764C712.78 281.351 711.046 282.034 709.434 282.816L707.456 277.98C709.165 277.052 711.192 276.271 713.537 275.636C715.882 274.952 718.324 274.61 720.864 274.61ZM722.769 295.565C717.884 295.76 714.489 296.542 712.584 297.909C710.728 299.277 709.8 301.206 709.8 303.698C709.8 305.896 710.46 307.508 711.779 308.533C713.146 309.559 714.88 310.072 716.981 310.072C720.302 310.072 723.062 309.168 725.26 307.361C727.458 305.505 728.557 302.672 728.557 298.862V295.345L722.769 295.565Z" fill="#1B1B1B"/>
<path d="M679.81 274.537C683.18 274.537 686.062 275.27 688.456 276.735C690.898 278.201 692.754 280.276 694.024 282.963C695.343 285.601 696.002 288.702 696.002 292.268V296.151H669.113C669.21 300.596 670.334 303.991 672.483 306.336C674.681 308.631 677.734 309.779 681.642 309.779C684.133 309.779 686.331 309.56 688.236 309.12C690.19 308.631 692.192 307.948 694.244 307.068V312.71C692.241 313.589 690.263 314.224 688.309 314.615C686.355 315.055 684.035 315.275 681.349 315.275C677.636 315.275 674.339 314.517 671.457 313.003C668.624 311.489 666.402 309.242 664.79 306.262C663.227 303.234 662.445 299.546 662.445 295.199C662.445 290.9 663.154 287.213 664.57 284.135C666.035 281.058 668.063 278.689 670.651 277.028C673.289 275.367 676.342 274.537 679.81 274.537ZM679.737 279.812C676.659 279.812 674.217 280.814 672.41 282.816C670.651 284.77 669.601 287.506 669.259 291.023H689.262C689.262 288.776 688.92 286.822 688.236 285.161C687.552 283.5 686.502 282.206 685.085 281.278C683.718 280.301 681.935 279.812 679.737 279.812Z" fill="#1B1B1B"/>
<path d="M638.242 274.537C643.078 274.537 646.961 276.222 649.892 279.593C652.871 282.963 654.361 288.043 654.361 294.833C654.361 299.278 653.677 303.039 652.31 306.116C650.991 309.144 649.11 311.44 646.668 313.003C644.275 314.517 641.442 315.275 638.169 315.275C636.166 315.275 634.383 315.006 632.82 314.469C631.257 313.931 629.914 313.247 628.79 312.417C627.716 311.538 626.788 310.585 626.006 309.56H625.567C625.664 310.39 625.762 311.44 625.86 312.71C625.957 313.98 626.006 315.079 626.006 316.007V332.126H619.559V275.27H624.834L625.713 280.618H626.006C626.788 279.495 627.716 278.469 628.79 277.541C629.914 276.613 631.233 275.88 632.747 275.343C634.31 274.806 636.142 274.537 638.242 274.537ZM637.07 279.959C634.432 279.959 632.307 280.472 630.695 281.498C629.084 282.475 627.911 283.964 627.179 285.967C626.446 287.97 626.055 290.51 626.006 293.587V294.833C626.006 298.056 626.348 300.792 627.032 303.039C627.716 305.286 628.864 306.995 630.476 308.167C632.136 309.34 634.383 309.926 637.216 309.926C639.61 309.926 641.564 309.266 643.078 307.948C644.641 306.629 645.789 304.846 646.521 302.599C647.303 300.303 647.694 297.69 647.694 294.759C647.694 290.265 646.815 286.675 645.056 283.989C643.347 281.302 640.684 279.959 637.07 279.959Z" fill="#1B1B1B"/>
</svg>
