<svg width="2001" height="623" viewBox="0 0 2001 623" fill="none" xmlns="http://www.w3.org/2000/svg">
<path d="M598.227 190.893C544.009 101.16 445.531 41.1698 333.042 41.1698C220.552 41.1698 122.074 101.161 67.8556 190.895C104.955 80.0015 209.665 0.0820312 333.042 0.0820312C456.418 0.0820312 561.127 80.0005 598.227 190.893Z" fill="#02C3BF"/>
<path d="M58.0839 328.678C60.8335 328.678 64.243 328.128 68.3123 327.029C71.3023 326.163 73.7293 325.269 75.5934 324.348C76.335 323.981 76.9875 323.61 77.5509 323.234L111.641 383.165L131.854 418.701L134.137 422.714H157.526H188.744L162.99 380.263L157.557 371.307L145.355 351.193L135.127 334.335L125.595 318.623L113.68 298.983C116.87 296.673 121.599 291.779 127.868 284.3C134.247 276.711 139.746 269.287 144.366 262.029L183.135 200.163H132.817L103.782 248.666C90.7586 270.514 78.6364 283.852 67.4153 288.68C64.2323 290.049 61.1219 290.734 58.0839 290.734V200.163H9.58134V422.714H58.0839V328.678Z" fill="#02C3BF"/>
<path d="M388.368 213.708C382.054 202.827 334.652 121.143 333.023 120.138C331.052 123.139 329.271 126.275 327.494 129.405L327.488 129.415C326.704 130.796 325.92 132.176 325.121 133.543L310.223 158.85L290.471 192.846C288.76 195.759 287.041 198.67 285.32 201.582C279.328 211.726 273.327 221.885 267.684 232.212C263.834 234.471 260.08 236.954 256.323 239.438L256.322 239.439L256.322 239.439C251.196 242.829 246.066 246.222 240.683 249.052C235.11 241.27 229.782 233.33 224.454 225.39L224.453 225.389C220.635 219.699 216.818 214.01 212.911 208.38C203.745 226.698 194.443 244.947 185.004 263.125C183.138 266.755 181.327 270.417 179.517 274.079C176.727 279.72 173.938 285.362 170.944 290.888C168.462 289.006 165.853 287.31 163.243 285.614C161.87 284.722 160.497 283.829 159.142 282.909C153.432 289.727 147.119 296.214 140.857 302.649L140.856 302.65L140.854 302.651C138.726 304.839 136.603 307.02 134.512 309.206C133.756 310.001 133 310.797 132.245 311.593L141.758 327.273C148.447 320.1 155.063 312.858 161.605 305.545C162.831 306.28 164.078 307.053 165.341 307.836C169.873 310.647 174.619 313.591 179.414 315.382C184.011 305.396 188.922 295.529 193.828 285.671L193.829 285.669L193.831 285.666C195.887 281.535 197.942 277.405 199.973 273.269C201.447 270.269 202.894 267.227 204.345 264.177C207.71 257.103 211.098 249.983 214.886 243.225C217.728 246.791 220.483 250.415 223.24 254.041L223.24 254.042L223.242 254.043L223.243 254.045C224.74 256.015 226.238 257.985 227.75 259.946C228.727 261.213 229.73 262.466 230.732 263.72L230.734 263.722C232.355 265.749 233.978 267.778 235.496 269.869C241.561 266.575 247.728 263.46 253.894 260.345L253.895 260.345C258.276 258.131 262.658 255.918 267.003 253.64C267.98 253.128 269.042 252.616 270.132 252.09L270.134 252.089C273.069 250.673 276.212 249.156 278.478 247.271C280.653 245.462 289.846 229.987 294.718 221.786L294.719 221.785C295.755 220.041 296.595 218.626 297.131 217.742C300.378 212.385 303.615 207.018 306.853 201.651L306.853 201.65L306.86 201.638C315.626 187.105 324.396 172.564 333.386 158.182C338.01 175.912 342.361 193.718 346.711 211.522L346.714 211.534L346.72 211.557C348.498 218.834 350.276 226.11 352.073 233.381C353.334 238.485 354.674 243.564 356.014 248.643C357.807 255.439 359.601 262.234 361.203 269.086C362.856 262.585 364.067 255.83 365.281 249.061C366.684 241.238 368.089 233.397 370.184 225.907C375.658 239.243 381.218 252.544 386.866 265.807C387.331 266.915 387.888 268.339 388.497 269.897C390.179 274.201 392.258 279.518 393.892 281.945C395.266 283.983 397.39 285.764 399.388 287.44C400.015 287.966 400.63 288.482 401.206 288.992C402.879 290.475 404.533 291.979 406.187 293.482L406.191 293.486L406.194 293.489L406.198 293.492C408.045 295.172 409.892 296.851 411.767 298.501C412.508 299.153 413.269 299.799 414.034 300.448L414.035 300.449C415.984 302.102 417.954 303.773 419.662 305.612C421.874 307.996 423.683 310.914 425.442 313.752L425.443 313.753L425.445 313.757C425.99 314.636 426.53 315.507 427.076 316.352C428.484 318.533 429.882 320.723 431.281 322.913L431.284 322.917C434.305 327.649 437.327 332.382 440.459 337.035C444.79 343.419 449.19 349.754 453.659 356.042C454.343 357.005 455.05 357.963 455.76 358.924L455.762 358.927C457.777 361.654 459.81 364.407 461.36 367.386C459.001 365.258 456.701 363.068 454.401 360.879L454.4 360.878L454.398 360.876L454.394 360.873L454.393 360.871C452.568 359.134 450.744 357.397 448.889 355.691C442.504 349.862 436.006 344.162 429.395 338.591C424.71 334.64 419.895 330.841 415.081 327.042L415.079 327.041L415.076 327.038C409.735 322.825 404.396 318.612 399.236 314.193C402.711 324.157 405.971 334.199 409.232 344.242L409.233 344.245L409.234 344.246C413.357 356.945 417.481 369.645 422.038 382.191C415.063 376.417 407.923 370.822 400.784 365.228L400.782 365.226L400.775 365.22L400.771 365.218L400.762 365.21C396.399 361.791 392.037 358.373 387.714 354.915C356.985 330.66 326.535 306.059 296.364 281.112C270.997 312.375 245.863 343.824 220.963 375.46C222.928 366.878 224.642 358.236 226.356 349.595L226.356 349.592C227.431 344.176 228.505 338.759 229.641 333.358C224.743 336.921 219.772 340.379 214.8 343.838L214.797 343.84L214.786 343.847C211.757 345.954 208.729 348.061 205.716 350.191L170.639 374.88L203.634 429.268C207.68 428.394 211.735 427.12 215.807 425.445C237.664 416.452 259.815 416.452 281.672 425.445C298.696 432.449 315.425 432.449 332.449 425.445C354.305 416.452 376.457 416.452 398.314 425.445C413.573 431.723 428.595 432.374 443.805 427.397L473.3 344.159C466.15 330.28 459.077 316.362 452.083 302.403C448.018 294.392 444.007 286.353 440.051 278.288C439.457 277.079 438.842 275.872 438.225 274.663L438.224 274.661C436.977 272.214 435.725 269.758 434.636 267.263C439.646 259.948 438.18 262.24 442.792 254.656C443.275 253.863 443.757 253.07 444.239 252.278C447.778 258.955 451.095 265.74 454.413 272.526L454.414 272.527L454.415 272.53C456.025 275.823 457.636 279.117 459.272 282.399C461.072 286.011 462.931 289.596 464.789 293.181L464.79 293.183L464.792 293.188L464.796 293.195L464.797 293.197C466.341 296.175 467.884 299.153 469.395 302.147C470.125 303.594 470.854 305.05 471.584 306.509L471.6 306.542L471.613 306.566L471.625 306.59L471.634 306.608L471.635 306.611L471.637 306.615L471.639 306.619C473.074 309.486 476.799 316.267 480.701 323.272L486.528 306.826C483.05 302.4 479.733 297.214 476.547 291.361L476.508 291.289L476.471 291.217C472.207 283.045 468.74 274.274 466.051 264.927L459.63 243.118L452.216 228.533C451.764 227.638 451.318 226.725 450.869 225.807L450.864 225.795L450.857 225.782C449.508 223.02 448.135 220.208 446.486 217.693C442.252 224.032 438.171 230.464 434.089 236.897L434.088 236.899L434.086 236.902C430.641 242.331 433.296 237.847 429.759 243.223C429.047 244.305 428.343 245.396 427.638 246.488L427.636 246.491L427.634 246.494C425.898 249.185 424.157 251.882 422.286 254.462C418.265 251.314 414.28 248.12 410.332 244.881C409.719 244.386 409.077 243.895 408.428 243.399C406.522 241.944 404.556 240.442 403.104 238.642C401.555 236.722 400.282 234.416 399.045 232.175L399.045 232.174L399.044 232.173C398.6 231.368 398.16 230.571 397.713 229.803L388.368 213.708Z" fill="#02C3BF"/>
<path d="M513.712 446.409C513.778 446.335 513.844 446.262 513.91 446.189C511.741 445.475 509.575 444.673 507.411 443.782C490.387 436.778 473.659 436.778 456.635 443.782C434.778 452.775 412.626 452.775 390.769 443.782C373.746 436.778 357.017 436.778 339.993 443.782C318.136 452.775 295.985 452.775 274.128 443.782C257.104 436.778 240.375 436.778 223.351 443.782C201.495 452.775 179.343 452.775 157.486 443.782C154.15 442.41 150.825 441.306 147.507 440.472C148.486 441.641 149.476 442.801 150.477 443.951C151.478 445.101 152.489 446.242 153.512 447.373C154.534 448.505 155.567 449.626 156.611 450.738C157.655 451.85 158.709 452.951 159.773 454.043C160.837 455.135 161.912 456.217 162.997 457.289C164.082 458.36 165.177 459.421 166.282 460.472C167.386 461.523 168.501 462.563 169.625 463.593C170.75 464.623 171.884 465.643 173.028 466.651C174.172 467.659 175.325 468.657 176.487 469.644C177.65 470.63 178.822 471.606 180.003 472.571C181.184 473.535 182.374 474.489 183.573 475.431C184.772 476.373 185.98 477.304 187.196 478.223C187.686 478.593 188.177 478.961 188.669 479.327C197.691 479.586 206.707 477.843 215.807 474.099C237.664 465.107 259.815 465.107 281.672 474.099C298.696 481.103 315.425 481.103 332.449 474.099C354.305 465.107 376.457 465.107 398.314 474.099C415.338 481.103 432.067 481.103 449.09 474.099C463.25 468.274 477.533 466.222 491.779 467.944C491.963 467.785 492.147 467.625 492.331 467.465C493.841 466.151 495.334 464.818 496.811 463.467C498.288 462.115 499.749 460.746 501.193 459.359C502.636 457.972 504.062 456.567 505.471 455.145C506.88 453.723 508.272 452.284 509.645 450.828C511.019 449.371 512.375 447.898 513.712 446.409Z" fill="#02C3BF"/>
<path d="M458.416 492.219C459.083 491.814 459.749 491.407 460.412 490.996C459.154 491.438 457.895 491.918 456.635 492.437C434.778 501.43 412.626 501.43 390.769 492.437C373.746 485.433 357.017 485.433 339.993 492.437C318.136 501.43 295.985 501.43 274.128 492.437C257.104 485.433 240.375 485.433 223.351 492.437C220.205 493.731 217.053 494.84 213.897 495.761C213.912 495.77 213.927 495.779 213.943 495.787C215.269 496.538 216.603 497.277 217.945 498.002C219.285 498.728 220.633 499.442 221.988 500.142C223.717 501.043 225.458 501.923 227.209 502.781C228.96 503.639 230.722 504.476 232.493 505.292C234.265 506.108 236.046 506.902 237.837 507.674C239.628 508.446 241.428 509.197 243.237 509.925C245.046 510.654 246.863 511.36 248.69 512.044C250.516 512.729 252.35 513.391 254.193 514.031C256.035 514.67 257.885 515.287 259.742 515.882C261.599 516.477 263.464 517.049 265.335 517.599C267.206 518.148 269.084 518.675 270.968 519.178C272.852 519.682 274.742 520.163 276.638 520.621C278.534 521.079 280.435 521.514 282.341 521.925C284.248 522.337 286.159 522.725 288.075 523.09C289.99 523.455 291.91 523.797 293.834 524.115C295.759 524.434 297.686 524.729 299.617 525.001C301.549 525.272 303.483 525.52 305.42 525.745C307.357 525.969 309.297 526.171 311.24 526.348C313.182 526.525 315.126 526.679 317.072 526.809C319.018 526.94 320.965 527.046 322.913 527.129C324.862 527.211 326.811 527.271 328.761 527.306C330.711 527.342 332.661 527.353 334.612 527.342C336.562 527.329 338.511 527.294 340.461 527.234C342.41 527.175 344.358 527.092 346.306 526.985C348.253 526.878 350.199 526.748 352.143 526.593C354.087 526.44 356.029 526.262 357.969 526.061C359.909 525.859 361.846 525.634 363.781 525.386C365.715 525.138 367.646 524.866 369.574 524.571C371.502 524.276 373.426 523.957 375.346 523.614C377.266 523.272 379.181 522.907 381.093 522.518C383.004 522.13 384.91 521.718 386.811 521.283C388.712 520.848 390.608 520.389 392.497 519.908C394.388 519.427 396.272 518.923 398.15 518.396C400.027 517.869 401.898 517.32 403.762 516.747C405.675 516.157 407.581 515.544 409.479 514.907C411.377 514.27 413.267 513.611 415.148 512.928C417.03 512.244 418.904 511.538 420.768 510.809C422.633 510.08 424.488 509.328 426.334 508.554C428.18 507.779 430.016 506.981 431.842 506.162C433.669 505.342 435.485 504.5 437.291 503.636C439.097 502.771 440.891 501.885 442.676 500.976C444.46 500.068 446.232 499.138 447.993 498.186C449.754 497.234 451.504 496.261 453.241 495.266C454.978 494.272 456.703 493.256 458.416 492.219Z" fill="#02C3BF"/>
<path d="M67.8556 431.943C104.955 542.837 209.665 622.756 333.042 622.756C431.757 622.756 518.522 571.594 568.267 494.339C580.694 475.039 590.811 454.111 598.227 431.945C583.184 456.841 564.735 479.448 543.524 499.119C488.286 550.348 414.321 581.668 333.042 581.668C247.093 581.668 169.324 546.646 113.226 490.094C108.61 485.44 104.14 480.64 99.8243 475.702C87.947 462.111 77.2385 447.472 67.8556 431.943Z" fill="#02C3BF"/>
<path d="M162.622 357.778C167.698 344.122 173.541 328.404 176.826 321.602L152.305 344.659L161.726 360.188C162.022 359.394 162.321 358.59 162.622 357.778Z" fill="#02C3BF"/>
<path d="M626.952 286.901C622.993 294.379 618.923 300.374 614.744 304.883L656.483 422.675H614.249L584.719 323.36C580.875 325.282 577.993 326.504 576.074 327.027C575.357 327.222 574.774 327.319 574.325 327.319V422.675H537.536V327.319C537.257 327.319 536.683 327.193 535.813 326.939C534.964 326.692 533.834 326.324 532.422 325.835C529.562 324.845 527.802 324.02 527.142 323.36L497.612 422.675H494.093H455.378L479.174 355.519L486.766 334.094L495.107 310.555L497.117 304.883C492.938 300.374 488.813 294.379 484.744 286.901C480.784 279.312 477.54 271.118 475.01 262.319L456.698 200.124H496.292L510.81 251.926C514.769 265.894 518.674 276.012 522.523 282.281C524.224 284.975 526.118 287.252 528.204 289.113C530.975 291.583 534.085 293.321 537.536 294.324V200.124H574.325V294.324C577.768 293.304 580.879 291.545 583.656 289.046C585.67 287.235 587.509 285.035 589.173 282.446C593.132 276.287 597.092 266.114 601.051 251.926L615.569 200.124H655.163L636.851 262.319C634.321 271.228 631.021 279.422 626.952 286.901Z" fill="#02C3BF"/>
<path d="M1972.37 420.828L1963.47 391.748H1919L1910.1 420.828H1882.22L1925.33 298.18H1956.97L2000.25 420.828H1972.37ZM1948.42 341.628C1947.85 339.69 1947.11 337.238 1946.19 334.273C1945.28 331.308 1944.37 328.286 1943.46 325.207C1942.55 322.128 1941.8 319.448 1941.23 317.167C1940.66 319.448 1939.87 322.299 1938.84 325.72C1937.93 329.027 1937.01 332.22 1936.1 335.299C1935.3 338.264 1934.68 340.374 1934.22 341.628L1925.5 370.024H1957.31L1948.42 341.628Z" fill="#1B1B1B"/>
<path d="M1866.88 420.83H1841.05V368.144H1792.64V420.83H1766.81V298.695H1792.64V346.591H1841.05V298.695H1866.88V420.83Z" fill="#1B1B1B"/>
<path d="M1626 298.695H1649.26V357.71C1649.26 360.561 1649.2 363.754 1649.09 367.289C1648.97 370.824 1648.86 374.302 1648.75 377.723C1648.63 381.03 1648.52 383.938 1648.4 386.447C1648.29 388.842 1648.18 390.496 1648.06 391.408H1648.58L1705.02 298.695H1735.99V420.83H1712.89V362.157C1712.89 359.078 1712.95 355.714 1713.06 352.065C1713.18 348.301 1713.29 344.709 1713.41 341.288C1713.63 337.867 1713.81 334.902 1713.92 332.393C1714.15 329.77 1714.32 328.06 1714.43 327.261H1713.75L1657.13 420.83H1626V298.695Z" fill="#1B1B1B"/>
<path d="M1492.68 357.368L1451.62 298.695H1478.31L1517.82 357.881V298.695H1541.94V357.881L1581.46 298.695H1608.14L1567.09 357.368L1610.54 420.83H1582.82L1541.94 358.907V420.83H1517.82V358.907L1476.94 420.83H1449.23L1492.68 357.368Z" fill="#1B1B1B"/>
<path d="M1411.41 385.079C1407.99 392.833 1404.34 399.562 1400.46 405.264C1396.7 410.852 1391.85 415.128 1385.92 418.093C1379.99 421.058 1372.24 422.54 1362.66 422.54C1359.69 422.54 1356.44 422.312 1352.91 421.856C1349.37 421.4 1346.12 420.773 1343.16 419.975V397.737C1345.9 398.877 1348.92 399.676 1352.22 400.132C1355.53 400.588 1358.61 400.816 1361.46 400.816C1365.22 400.816 1368.25 400.189 1370.53 398.935C1372.92 397.68 1374.8 395.97 1376.17 393.803C1377.66 391.522 1378.85 389.07 1379.76 386.447L1337.51 298.695H1364.88L1387.63 351.552C1388.2 352.692 1388.89 354.174 1389.69 355.999C1390.48 357.824 1391.28 359.705 1392.08 361.644C1392.88 363.583 1393.51 365.293 1393.96 366.776H1394.82C1395.27 365.407 1395.84 363.754 1396.53 361.815C1397.33 359.762 1398.13 357.71 1398.92 355.657C1399.84 353.49 1400.63 351.609 1401.32 350.012L1422.53 298.695H1449.21L1411.41 385.079Z" fill="#1B1B1B"/>
<path d="M1320.48 420.83H1294.66V373.618C1287.47 376.127 1280.86 378.008 1274.81 379.263C1268.88 380.517 1262.9 381.145 1256.85 381.145C1245.45 381.145 1236.5 378.408 1230 372.934C1223.61 367.346 1220.42 359.42 1220.42 349.157V298.695H1246.25V341.801C1246.25 347.731 1247.61 352.179 1250.35 355.144C1253.09 358.109 1257.71 359.591 1264.21 359.591C1269 359.591 1273.79 359.078 1278.58 358.052C1283.37 357.025 1288.73 355.486 1294.66 353.433V298.695H1320.48V420.83Z" fill="#1B1B1B"/>
<path d="M1117.03 420.83L1087.61 325.038H1086.93C1087.04 327.318 1087.21 330.74 1087.44 335.301C1087.67 339.863 1087.9 344.766 1088.12 350.012C1088.35 355.144 1088.47 359.819 1088.47 364.039V420.83H1065.37V298.695H1100.61L1129.52 392.092H1130.03L1160.65 298.695H1195.89V420.83H1171.77V363.012C1171.77 359.135 1171.83 354.688 1171.94 349.67C1172.17 344.652 1172.34 339.92 1172.45 335.472C1172.68 330.911 1172.85 327.489 1172.97 325.209H1172.28L1140.81 420.83H1117.03Z" fill="#1B1B1B"/>
<path d="M1039.96 420.83H969.66V298.695H1039.96V319.906H995.49V346.762H1036.89V367.973H995.49V399.448H1039.96V420.83Z" fill="#1B1B1B"/>
<path d="M836.347 357.368L795.293 298.695H821.978L861.492 357.881V298.695H885.612V357.881L925.126 298.695H951.811L910.757 357.368L954.206 420.83H926.494L885.612 358.907V420.83H861.492V358.907L820.61 420.83H792.898L836.347 357.368Z" fill="#1B1B1B"/>
<path d="M1852.95 201.608L1824.39 248.477H1795.65L1830.37 194.765C1827.07 193.397 1823.76 191.401 1820.45 188.778C1817.14 186.041 1814.41 182.449 1812.24 178.002C1810.07 173.44 1808.99 167.852 1808.99 161.238C1808.99 149.948 1813.04 141.338 1821.14 135.408C1829.23 129.364 1840.58 126.342 1855.18 126.342H1894.86V248.477H1869.03V201.608H1852.95ZM1856.2 147.553C1851.76 147.553 1847.94 148.067 1844.74 149.093C1841.66 150.119 1839.27 151.773 1837.56 154.054C1835.96 156.334 1835.16 159.356 1835.16 163.12C1835.16 168.479 1836.93 172.756 1840.47 175.949C1844.11 179.028 1849.59 180.568 1856.89 180.568H1869.03V147.553H1856.2Z" fill="#1B1B1B"/>
<path d="M1768.55 248.474L1759.65 219.395H1715.18L1706.28 248.474H1678.4L1721.51 125.826H1753.15L1796.43 248.474H1768.55ZM1744.6 169.275C1744.03 167.336 1743.29 164.884 1742.38 161.919C1741.47 158.954 1740.55 155.932 1739.64 152.853C1738.73 149.774 1737.99 147.094 1737.42 144.814C1736.85 147.094 1736.05 149.945 1735.02 153.366C1734.11 156.674 1733.2 159.867 1732.29 162.946C1731.49 165.911 1730.86 168.02 1730.4 169.275L1721.68 197.67H1753.5L1744.6 169.275Z" fill="#1B1B1B"/>
<path d="M1678.42 248.477H1649L1604.69 186.555V248.477H1578.87V126.342H1604.69V185.528L1648.49 126.342H1676.03L1631.55 185.015L1678.42 248.477Z" fill="#1B1B1B"/>
<path d="M1521.78 146.186C1516.88 146.186 1512.49 147.155 1508.61 149.094C1504.85 151.033 1501.65 153.827 1499.03 157.476C1496.41 161.011 1494.41 165.344 1493.04 170.476C1491.79 175.608 1491.16 181.367 1491.16 187.753C1491.16 196.42 1492.19 203.832 1494.24 209.99C1496.41 216.035 1499.77 220.653 1504.33 223.846C1508.89 227.039 1514.71 228.636 1521.78 228.636C1526.8 228.636 1531.76 228.066 1536.66 226.925C1541.68 225.785 1547.1 224.188 1552.91 222.136V243.86C1547.55 246.027 1542.25 247.623 1537 248.649C1531.76 249.676 1525.89 250.189 1519.39 250.189C1506.84 250.189 1496.46 247.623 1488.25 242.491C1480.16 237.246 1474.17 229.947 1470.29 220.596C1466.42 211.131 1464.48 200.126 1464.48 187.582C1464.48 178.345 1465.73 169.906 1468.24 162.265C1470.75 154.511 1474.4 147.84 1479.19 142.252C1484.09 136.664 1490.08 132.33 1497.15 129.251C1504.33 126.172 1512.54 124.633 1521.78 124.633C1527.82 124.633 1533.87 125.431 1539.91 127.028C1546.07 128.51 1551.94 130.563 1557.53 133.186L1549.15 154.226C1544.59 152.059 1539.97 150.177 1535.29 148.581C1530.73 146.984 1526.23 146.186 1521.78 146.186Z" fill="#1B1B1B"/>
<path d="M1439.22 248.477H1413.39V195.792H1364.98V248.477H1339.15V126.342H1364.98V174.238H1413.39V126.342H1439.22V248.477Z" fill="#1B1B1B"/>
<path d="M1198.32 126.342H1221.58V185.357C1221.58 188.208 1221.53 191.401 1221.41 194.936C1221.3 198.472 1221.18 201.95 1221.07 205.371C1220.96 208.678 1220.84 211.586 1220.73 214.095C1220.61 216.49 1220.5 218.143 1220.39 219.055H1220.9L1277.35 126.342H1308.31V248.477H1285.22V189.805C1285.22 186.726 1285.27 183.361 1285.39 179.712C1285.5 175.949 1285.62 172.357 1285.73 168.936C1285.96 165.514 1286.13 162.549 1286.24 160.041C1286.47 157.418 1286.64 155.707 1286.76 154.909H1286.07L1229.45 248.477H1198.32V126.342Z" fill="#1B1B1B"/>
<path d="M1129.91 126.342C1145.65 126.342 1157.11 129.763 1164.3 136.606C1171.59 143.334 1175.24 152.628 1175.24 164.488C1175.24 169.848 1174.45 174.98 1172.85 179.883C1171.25 184.673 1168.57 189.006 1164.81 192.884C1161.16 196.647 1156.31 199.612 1150.27 201.779C1144.23 203.945 1136.76 205.029 1127.86 205.029H1116.74V248.477H1090.91V126.342H1129.91ZM1128.54 147.553H1116.74V183.818H1125.29C1130.2 183.818 1134.42 183.19 1137.95 181.936C1141.49 180.682 1144.23 178.686 1146.16 175.949C1148.1 173.212 1149.07 169.677 1149.07 165.343C1149.07 159.299 1147.42 154.852 1144.11 152.001C1140.8 149.036 1135.62 147.553 1128.54 147.553Z" fill="#1B1B1B"/>
<path d="M1065.54 187.237C1065.54 196.702 1064.46 205.312 1062.29 213.067C1060.13 220.707 1056.76 227.322 1052.2 232.909C1047.75 238.497 1042.11 242.774 1035.27 245.739C1028.42 248.704 1020.38 250.186 1011.15 250.186C999.743 250.186 990.164 247.962 982.409 243.515C974.769 238.953 968.839 232.624 964.619 224.528C960.514 216.317 958.005 206.738 957.093 195.79H933.658V248.476H907.828V126.341H933.658V174.237H957.606C958.86 164.087 961.597 155.306 965.817 147.894C970.15 140.367 976.08 134.608 983.607 130.617C991.133 126.512 1000.37 124.459 1011.32 124.459C1023.63 124.459 1033.78 127.082 1041.77 132.328C1049.86 137.459 1055.85 144.758 1059.73 154.223C1063.6 163.574 1065.54 174.579 1065.54 187.237ZM983.607 187.237C983.607 195.79 984.576 203.145 986.515 209.303C988.453 215.462 991.475 220.194 995.581 223.501C999.686 226.808 1004.87 228.462 1011.15 228.462C1017.65 228.462 1022.95 226.808 1027.06 223.501C1031.16 220.194 1034.13 215.462 1035.95 209.303C1037.89 203.145 1038.86 195.79 1038.86 187.237C1038.86 178.684 1037.89 171.329 1035.95 165.171C1034.13 159.013 1031.16 154.28 1027.06 150.973C1023.06 147.666 1017.88 146.012 1011.49 146.012C1005.1 146.012 999.8 147.666 995.581 150.973C991.475 154.28 988.453 159.013 986.515 165.171C984.576 171.329 983.607 178.684 983.607 187.237Z" fill="#1B1B1B"/>
<path d="M892.454 248.477H863.032L818.728 186.555V248.477H792.898V126.342H818.728V185.528L862.519 126.342H890.059L845.584 185.015L892.454 248.477Z" fill="#1B1B1B"/>
<path d="M1887.8 487.327C1885.53 487.327 1883.49 486.862 1881.7 485.933C1879.94 485.004 1878.54 483.563 1877.52 481.609C1876.53 479.655 1876.03 477.157 1876.03 474.114C1876.03 470.943 1876.56 468.365 1877.61 466.379C1878.67 464.393 1880.1 462.936 1881.89 462.007C1883.72 461.078 1885.78 460.614 1888.09 460.614C1889.4 460.614 1890.67 460.758 1891.88 461.046C1893.1 461.302 1894.09 461.623 1894.86 462.007L1893.57 465.514C1892.8 465.226 1891.9 464.954 1890.88 464.698C1889.85 464.441 1888.89 464.313 1887.99 464.313C1886.26 464.313 1884.84 464.682 1883.72 465.418C1882.6 466.155 1881.76 467.244 1881.22 468.685C1880.67 470.127 1880.4 471.92 1880.4 474.066C1880.4 476.116 1880.67 477.862 1881.22 479.303C1881.76 480.744 1882.58 481.834 1883.67 482.57C1884.76 483.307 1886.12 483.675 1887.75 483.675C1889.16 483.675 1890.39 483.531 1891.45 483.243C1892.54 482.955 1893.53 482.602 1894.43 482.186V485.933C1893.57 486.382 1892.6 486.718 1891.55 486.942C1890.52 487.198 1889.27 487.327 1887.8 487.327Z" fill="#1B1B1B"/>
<path d="M1868.21 461.095H1872.82L1861.82 473.49L1873.74 486.847H1868.84L1857.21 473.779V486.847H1852.98V461.095H1857.21V473.586L1868.21 461.095Z" fill="#1B1B1B"/>
<path d="M1835.8 460.614C1838.01 460.614 1839.9 461.094 1841.47 462.055C1843.07 463.016 1844.29 464.377 1845.12 466.139C1845.99 467.869 1846.42 469.902 1846.42 472.241V474.787H1828.79C1828.85 477.702 1829.59 479.928 1831 481.465C1832.44 482.971 1834.44 483.723 1837 483.723C1838.64 483.723 1840.08 483.579 1841.33 483.291C1842.61 482.971 1843.92 482.522 1845.27 481.946V485.645C1843.95 486.222 1842.66 486.638 1841.38 486.894C1840.09 487.182 1838.57 487.327 1836.81 487.327C1834.38 487.327 1832.22 486.83 1830.33 485.837C1828.47 484.844 1827.01 483.371 1825.95 481.417C1824.93 479.431 1824.42 477.013 1824.42 474.162C1824.42 471.344 1824.88 468.925 1825.81 466.908C1826.77 464.89 1828.1 463.336 1829.8 462.247C1831.53 461.158 1833.53 460.614 1835.8 460.614ZM1835.75 464.073C1833.74 464.073 1832.14 464.73 1830.95 466.043C1829.8 467.324 1829.11 469.118 1828.88 471.424H1842C1842 469.95 1841.78 468.669 1841.33 467.58C1840.88 466.491 1840.19 465.642 1839.26 465.034C1838.36 464.393 1837.2 464.073 1835.75 464.073Z" fill="#1B1B1B"/>
<path d="M1817.69 486.847H1813.41V464.602H1805.82C1805.5 468.67 1805.1 472.145 1804.62 475.028C1804.14 477.878 1803.53 480.201 1802.79 481.994C1802.06 483.788 1801.17 485.101 1800.15 485.934C1799.12 486.767 1797.92 487.183 1796.55 487.183C1796.13 487.183 1795.71 487.151 1795.3 487.087C1794.91 487.055 1794.59 486.975 1794.34 486.847V483.676C1794.53 483.74 1794.74 483.788 1794.96 483.82C1795.18 483.852 1795.41 483.868 1795.63 483.868C1796.34 483.868 1796.98 483.58 1797.55 483.003C1798.13 482.427 1798.64 481.546 1799.09 480.361C1799.57 479.176 1800.01 477.686 1800.39 475.892C1800.77 474.067 1801.11 471.921 1801.4 469.455C1801.69 466.988 1801.94 464.202 1802.17 461.095H1817.69V486.847Z" fill="#1B1B1B"/>
<path d="M1789.87 461.095V486.847H1785.64V464.698H1772.33V486.847H1768.1V461.095H1789.87Z" fill="#1B1B1B"/>
<path d="M1759.89 461.095V486.847H1756.09V470.415C1756.09 469.743 1756.11 469.038 1756.14 468.301C1756.2 467.565 1756.27 466.844 1756.33 466.139H1756.19L1747.78 486.847H1744.22L1736.06 466.139H1735.91C1735.98 466.844 1736.01 467.565 1736.01 468.301C1736.04 469.038 1736.06 469.791 1736.06 470.56V486.847H1732.26V461.095H1737.88L1746 481.802L1754.27 461.095H1759.89Z" fill="#1B1B1B"/>
<path d="M1725.55 473.922C1725.55 476.068 1725.27 477.974 1724.69 479.639C1724.15 481.273 1723.34 482.666 1722.29 483.819C1721.26 484.972 1720 485.853 1718.49 486.462C1717.02 487.038 1715.37 487.327 1713.54 487.327C1711.85 487.327 1710.28 487.038 1708.84 486.462C1707.39 485.853 1706.14 484.972 1705.09 483.819C1704.03 482.666 1703.2 481.273 1702.59 479.639C1702.01 477.974 1701.72 476.068 1701.72 473.922C1701.72 471.071 1702.21 468.669 1703.17 466.715C1704.13 464.73 1705.5 463.224 1707.3 462.199C1709.09 461.142 1711.22 460.614 1713.69 460.614C1716.03 460.614 1718.08 461.142 1719.84 462.199C1721.63 463.224 1723.02 464.73 1724.02 466.715C1725.04 468.669 1725.55 471.071 1725.55 473.922ZM1706.1 473.922C1706.1 475.94 1706.35 477.702 1706.87 479.207C1707.41 480.68 1708.24 481.817 1709.36 482.618C1710.48 483.419 1711.91 483.819 1713.64 483.819C1715.37 483.819 1716.79 483.419 1717.92 482.618C1719.04 481.817 1719.85 480.68 1720.37 479.207C1720.91 477.702 1721.18 475.94 1721.18 473.922C1721.18 471.872 1720.91 470.127 1720.37 468.685C1719.82 467.244 1718.99 466.139 1717.87 465.37C1716.78 464.569 1715.35 464.169 1713.59 464.169C1710.97 464.169 1709.06 465.034 1707.87 466.763C1706.69 468.493 1706.1 470.879 1706.1 473.922Z" fill="#1B1B1B"/>
<path d="M1693.91 461.095H1698.52L1687.52 473.49L1699.43 486.847H1694.53L1682.91 473.779V486.847H1678.68V461.095H1682.91V473.586L1693.91 461.095Z" fill="#1B1B1B"/>
<path d="M1658.66 450.428C1658.54 452.03 1658.14 453.375 1657.46 454.464C1656.82 455.553 1655.86 456.37 1654.58 456.914C1653.3 457.459 1651.63 457.731 1649.58 457.731C1647.5 457.731 1645.82 457.459 1644.54 456.914C1643.29 456.37 1642.38 455.569 1641.8 454.512C1641.22 453.423 1640.87 452.062 1640.74 450.428H1644.68C1644.84 452.158 1645.29 453.327 1646.03 453.935C1646.8 454.512 1648.01 454.8 1649.68 454.8C1651.15 454.8 1652.31 454.496 1653.14 453.887C1654 453.247 1654.52 452.094 1654.68 450.428H1658.66ZM1641.8 476.805C1641.8 477.093 1641.78 477.509 1641.75 478.054C1641.75 478.566 1641.74 479.127 1641.7 479.735C1641.67 480.312 1641.64 480.873 1641.61 481.417C1641.58 481.93 1641.54 482.346 1641.51 482.666L1655.3 461.094H1660.49V486.846H1656.55V471.664C1656.55 471.152 1656.55 470.479 1656.55 469.646C1656.58 468.813 1656.61 467.997 1656.65 467.196C1656.68 466.363 1656.71 465.738 1656.74 465.322L1643.05 486.846H1637.81V461.094H1641.8V476.805Z" fill="#1B1B1B"/>
<path d="M1600.41 486.847V461.095H1604.64V471.665H1611.32C1613.56 471.665 1615.4 471.937 1616.85 472.481C1618.29 473.026 1619.36 473.843 1620.06 474.932C1620.77 475.989 1621.12 477.334 1621.12 478.967C1621.12 480.569 1620.77 481.962 1620.06 483.147C1619.39 484.332 1618.32 485.245 1616.85 485.886C1615.4 486.526 1613.5 486.847 1611.13 486.847H1600.41ZM1610.74 483.436C1612.57 483.436 1614.06 483.131 1615.21 482.523C1616.36 481.882 1616.94 480.777 1616.94 479.208C1616.94 477.638 1616.41 476.581 1615.36 476.037C1614.3 475.46 1612.78 475.172 1610.79 475.172H1604.64V483.436H1610.74ZM1625.4 486.847V461.095H1629.63V486.847H1625.4Z" fill="#1B1B1B"/>
<path d="M1574.05 461.095V471.809H1588.03V461.095H1592.26V486.847H1588.03V475.364H1574.05V486.847H1569.82V461.095H1574.05Z" fill="#1B1B1B"/>
<path d="M1553.16 471.665C1555.4 471.665 1557.26 471.937 1558.73 472.481C1560.21 473.026 1561.31 473.843 1562.05 474.932C1562.82 475.989 1563.2 477.334 1563.2 478.967C1563.2 480.569 1562.83 481.962 1562.1 483.147C1561.39 484.332 1560.29 485.245 1558.78 485.886C1557.28 486.526 1555.34 486.847 1552.97 486.847H1541.29V461.095H1545.52V471.665H1553.16ZM1558.97 479.208C1558.97 477.638 1558.41 476.581 1557.29 476.037C1556.2 475.46 1554.67 475.172 1552.68 475.172H1545.52V483.436H1552.78C1554.57 483.436 1556.04 483.115 1557.2 482.475C1558.38 481.834 1558.97 480.745 1558.97 479.208Z" fill="#1B1B1B"/>
<path d="M1533.13 486.847H1528.85V464.602H1521.26C1520.94 468.67 1520.54 472.145 1520.06 475.028C1519.58 477.878 1518.97 480.201 1518.23 481.994C1517.49 483.788 1516.61 485.101 1515.59 485.934C1514.56 486.767 1513.36 487.183 1511.99 487.183C1511.57 487.183 1511.15 487.151 1510.74 487.087C1510.35 487.055 1510.03 486.975 1509.78 486.847V483.676C1509.97 483.74 1510.18 483.788 1510.4 483.82C1510.62 483.852 1510.85 483.868 1511.07 483.868C1511.78 483.868 1512.42 483.58 1512.99 483.003C1513.57 482.427 1514.08 481.546 1514.53 480.361C1515.01 479.176 1515.44 477.686 1515.83 475.892C1516.21 474.067 1516.55 471.921 1516.84 469.455C1517.13 466.988 1517.38 464.202 1517.61 461.095H1533.13V486.847Z" fill="#1B1B1B"/>
<path d="M1496.35 460.614C1498.56 460.614 1500.45 461.094 1502.02 462.055C1503.62 463.016 1504.84 464.377 1505.67 466.139C1506.53 467.869 1506.97 469.902 1506.97 472.241V474.787H1489.33C1489.4 477.702 1490.13 479.928 1491.54 481.465C1492.98 482.971 1494.99 483.723 1497.55 483.723C1499.18 483.723 1500.62 483.579 1501.87 483.291C1503.15 482.971 1504.47 482.522 1505.81 481.946V485.645C1504.5 486.222 1503.2 486.638 1501.92 486.894C1500.64 487.182 1499.12 487.327 1497.36 487.327C1494.92 487.327 1492.76 486.83 1490.87 485.837C1489.01 484.844 1487.56 483.371 1486.5 481.417C1485.47 479.431 1484.96 477.013 1484.96 474.162C1484.96 471.344 1485.43 468.925 1486.35 466.908C1487.32 464.89 1488.64 463.336 1490.34 462.247C1492.07 461.158 1494.07 460.614 1496.35 460.614ZM1496.3 464.073C1494.28 464.073 1492.68 464.73 1491.5 466.043C1490.34 467.324 1489.65 469.118 1489.43 471.424H1502.55C1502.55 469.95 1502.32 468.669 1501.87 467.58C1501.42 466.491 1500.74 465.642 1499.81 465.034C1498.91 464.393 1497.74 464.073 1496.3 464.073Z" fill="#1B1B1B"/>
<path d="M1481.8 464.65H1473.4V486.847H1469.22V464.65H1460.9V461.095H1481.8V464.65Z" fill="#1B1B1B"/>
<path d="M1437.14 476.805C1437.14 477.094 1437.13 477.51 1437.09 478.055C1437.09 478.567 1437.08 479.128 1437.05 479.736C1437.01 480.313 1436.98 480.873 1436.95 481.418C1436.92 481.93 1436.89 482.346 1436.85 482.667L1450.64 461.095H1455.83V486.847H1451.89V471.665C1451.89 471.152 1451.89 470.479 1451.89 469.647C1451.92 468.814 1451.96 467.997 1451.99 467.196C1452.02 466.364 1452.05 465.739 1452.08 465.323L1438.39 486.847H1433.15V461.095H1437.14V476.805Z" fill="#1B1B1B"/>
<path d="M1426.18 467.581C1426.18 469.182 1425.7 470.431 1424.73 471.328C1423.77 472.225 1422.54 472.834 1421.04 473.154V473.346C1422.64 473.57 1424.03 474.147 1425.22 475.076C1426.4 475.973 1426.99 477.382 1426.99 479.304C1426.99 480.393 1426.78 481.402 1426.37 482.33C1425.98 483.259 1425.38 484.06 1424.54 484.733C1423.71 485.405 1422.64 485.934 1421.32 486.318C1420.01 486.671 1418.42 486.847 1416.57 486.847H1405.47V461.095H1416.52C1418.34 461.095 1419.98 461.303 1421.42 461.719C1422.89 462.104 1424.05 462.776 1424.88 463.737C1425.74 464.666 1426.18 465.947 1426.18 467.581ZM1422.62 479.304C1422.62 477.83 1422.06 476.773 1420.94 476.133C1419.82 475.492 1418.17 475.172 1415.99 475.172H1409.7V483.436H1416.09C1418.2 483.436 1419.82 483.131 1420.94 482.523C1422.06 481.882 1422.62 480.809 1422.62 479.304ZM1421.9 468.109C1421.9 466.892 1421.45 466.011 1420.55 465.467C1419.69 464.89 1418.26 464.602 1416.28 464.602H1409.7V471.665H1415.51C1417.59 471.665 1419.18 471.376 1420.27 470.8C1421.36 470.223 1421.9 469.326 1421.9 468.109Z" fill="#1B1B1B"/>
<path d="M1398.76 473.922C1398.76 476.068 1398.48 477.974 1397.9 479.639C1397.35 481.273 1396.55 482.666 1395.5 483.819C1394.47 484.972 1393.21 485.853 1391.7 486.462C1390.23 487.038 1388.58 487.327 1386.75 487.327C1385.05 487.327 1383.49 487.038 1382.04 486.462C1380.6 485.853 1379.35 484.972 1378.3 483.819C1377.24 482.666 1376.41 481.273 1375.8 479.639C1375.22 477.974 1374.93 476.068 1374.93 473.922C1374.93 471.071 1375.41 468.669 1376.37 466.715C1377.34 464.73 1378.71 463.224 1380.51 462.199C1382.3 461.142 1384.43 460.614 1386.9 460.614C1389.23 460.614 1391.28 461.142 1393.05 462.199C1394.84 463.224 1396.23 464.73 1397.23 466.715C1398.25 468.669 1398.76 471.071 1398.76 473.922ZM1379.31 473.922C1379.31 475.94 1379.56 477.702 1380.07 479.207C1380.62 480.68 1381.45 481.817 1382.57 482.618C1383.69 483.419 1385.12 483.819 1386.85 483.819C1388.58 483.819 1390 483.419 1391.12 482.618C1392.25 481.817 1393.06 480.68 1393.57 479.207C1394.12 477.702 1394.39 475.94 1394.39 473.922C1394.39 471.872 1394.12 470.127 1393.57 468.685C1393.03 467.244 1392.2 466.139 1391.08 465.37C1389.99 464.569 1388.56 464.169 1386.8 464.169C1384.17 464.169 1382.27 465.034 1381.08 466.763C1379.9 468.493 1379.31 470.879 1379.31 473.922Z" fill="#1B1B1B"/>
<path d="M1359.07 460.614C1362.24 460.614 1364.79 461.719 1366.71 463.929C1368.66 466.139 1369.64 469.47 1369.64 473.922C1369.64 476.837 1369.19 479.303 1368.29 481.321C1367.43 483.307 1366.2 484.812 1364.59 485.837C1363.03 486.83 1361.17 487.327 1359.02 487.327C1357.71 487.327 1356.54 487.15 1355.51 486.798C1354.49 486.446 1353.61 485.997 1352.87 485.453C1352.17 484.876 1351.56 484.252 1351.05 483.579H1350.76C1350.82 484.124 1350.89 484.812 1350.95 485.645C1351.01 486.478 1351.05 487.199 1351.05 487.807V498.377H1346.82V461.094H1350.28L1350.85 464.601H1351.05C1351.56 463.865 1352.17 463.192 1352.87 462.584C1353.61 461.975 1354.47 461.495 1355.47 461.142C1356.49 460.79 1357.69 460.614 1359.07 460.614ZM1358.3 464.169C1356.57 464.169 1355.18 464.505 1354.12 465.178C1353.06 465.819 1352.3 466.796 1351.82 468.109C1351.33 469.422 1351.08 471.088 1351.05 473.105V473.922C1351.05 476.036 1351.27 477.83 1351.72 479.303C1352.17 480.777 1352.92 481.898 1353.98 482.666C1355.07 483.435 1356.54 483.819 1358.4 483.819C1359.97 483.819 1361.25 483.387 1362.24 482.522C1363.27 481.657 1364.02 480.488 1364.5 479.015C1365.01 477.509 1365.27 475.796 1365.27 473.874C1365.27 470.927 1364.69 468.573 1363.54 466.812C1362.42 465.05 1360.67 464.169 1358.3 464.169Z" fill="#1B1B1B"/>
<path d="M1340.12 473.922C1340.12 476.068 1339.83 477.974 1339.25 479.639C1338.71 481.273 1337.91 482.666 1336.85 483.819C1335.83 484.972 1334.56 485.853 1333.05 486.462C1331.58 487.038 1329.93 487.327 1328.11 487.327C1326.41 487.327 1324.84 487.038 1323.4 486.462C1321.96 485.853 1320.71 484.972 1319.65 483.819C1318.59 482.666 1317.76 481.273 1317.15 479.639C1316.58 477.974 1316.29 476.068 1316.29 473.922C1316.29 471.071 1316.77 468.669 1317.73 466.715C1318.69 464.73 1320.07 463.224 1321.86 462.199C1323.65 461.142 1325.78 460.614 1328.25 460.614C1330.59 460.614 1332.64 461.142 1334.4 462.199C1336.19 463.224 1337.59 464.73 1338.58 466.715C1339.6 468.669 1340.12 471.071 1340.12 473.922ZM1320.66 473.922C1320.66 475.94 1320.92 477.702 1321.43 479.207C1321.97 480.68 1322.81 481.817 1323.93 482.618C1325.05 483.419 1326.47 483.819 1328.2 483.819C1329.93 483.819 1331.36 483.419 1332.48 482.618C1333.6 481.817 1334.42 480.68 1334.93 479.207C1335.47 477.702 1335.75 475.94 1335.75 473.922C1335.75 471.872 1335.47 470.127 1334.93 468.685C1334.38 467.244 1333.55 466.139 1332.43 465.37C1331.34 464.569 1329.92 464.169 1328.15 464.169C1325.53 464.169 1323.62 465.034 1322.44 466.763C1321.25 468.493 1320.66 470.879 1320.66 473.922Z" fill="#1B1B1B"/>
<path d="M1308.94 461.095V483.291H1312.69V495.783H1308.6V486.847H1290.68V495.783H1286.65V483.291H1288.71C1290.19 481.241 1291.4 479.015 1292.36 476.613C1293.36 474.179 1294.09 471.649 1294.57 469.022C1295.09 466.364 1295.36 463.721 1295.39 461.095H1308.94ZM1299.14 464.41C1299.01 466.588 1298.67 468.846 1298.13 471.184C1297.58 473.49 1296.88 475.7 1296.02 477.814C1295.18 479.928 1294.21 481.754 1293.08 483.291H1304.86V464.41H1299.14Z" fill="#1B1B1B"/>
<path d="M1273.04 460.614C1274.99 460.614 1276.69 460.886 1278.13 461.431C1279.57 461.943 1280.69 462.712 1281.49 463.737C1282.29 464.73 1282.69 465.947 1282.69 467.388C1282.69 468.958 1282.26 470.207 1281.4 471.136C1280.53 472.032 1279.35 472.689 1277.84 473.105V473.298C1278.87 473.586 1279.81 473.986 1280.68 474.499C1281.54 475.011 1282.23 475.684 1282.74 476.517C1283.29 477.349 1283.56 478.422 1283.56 479.736C1283.56 481.145 1283.16 482.426 1282.36 483.579C1281.59 484.732 1280.39 485.645 1278.75 486.318C1277.15 486.99 1275.09 487.327 1272.56 487.327C1271.34 487.327 1270.17 487.263 1269.05 487.134C1267.96 487.006 1266.97 486.814 1266.07 486.558C1265.21 486.302 1264.44 485.997 1263.76 485.645V481.85C1264.85 482.362 1266.13 482.826 1267.61 483.243C1269.11 483.659 1270.75 483.867 1272.51 483.867C1273.79 483.867 1274.94 483.723 1275.97 483.435C1277.02 483.147 1277.86 482.698 1278.47 482.09C1279.07 481.449 1279.38 480.584 1279.38 479.495C1279.38 478.502 1279.11 477.702 1278.56 477.093C1278.02 476.453 1277.2 475.972 1276.11 475.652C1275.05 475.331 1273.69 475.171 1272.03 475.171H1268.57V471.712H1271.35C1273.56 471.712 1275.33 471.424 1276.64 470.847C1277.98 470.239 1278.66 469.214 1278.66 467.772C1278.66 466.555 1278.15 465.642 1277.12 465.034C1276.13 464.425 1274.69 464.121 1272.8 464.121C1271.39 464.121 1270.14 464.265 1269.05 464.553C1267.99 464.81 1266.82 465.21 1265.54 465.755L1264.05 462.391C1265.43 461.783 1266.87 461.334 1268.38 461.046C1269.88 460.758 1271.43 460.614 1273.04 460.614Z" fill="#1B1B1B"/>
<path d="M1259.56 473.922C1259.56 476.068 1259.27 477.974 1258.7 479.639C1258.15 481.273 1257.35 482.666 1256.29 483.819C1255.27 484.972 1254 485.853 1252.5 486.462C1251.02 487.038 1249.38 487.327 1247.55 487.327C1245.85 487.327 1244.28 487.038 1242.84 486.462C1241.4 485.853 1240.15 484.972 1239.09 483.819C1238.04 482.666 1237.2 481.273 1236.6 479.639C1236.02 477.974 1235.73 476.068 1235.73 473.922C1235.73 471.071 1236.21 468.669 1237.17 466.715C1238.13 464.73 1239.51 463.224 1241.3 462.199C1243.1 461.142 1245.23 460.614 1247.69 460.614C1250.03 460.614 1252.08 461.142 1253.84 462.199C1255.64 463.224 1257.03 464.73 1258.02 466.715C1259.05 468.669 1259.56 471.071 1259.56 473.922ZM1240.1 473.922C1240.1 475.94 1240.36 477.702 1240.87 479.207C1241.42 480.68 1242.25 481.817 1243.37 482.618C1244.49 483.419 1245.92 483.819 1247.65 483.819C1249.38 483.819 1250.8 483.419 1251.92 482.618C1253.04 481.817 1253.86 480.68 1254.37 479.207C1254.92 477.702 1255.19 475.94 1255.19 473.922C1255.19 471.872 1254.92 470.127 1254.37 468.685C1253.83 467.244 1252.99 466.139 1251.87 465.37C1250.78 464.569 1249.36 464.169 1247.6 464.169C1244.97 464.169 1243.07 465.034 1241.88 466.763C1240.7 468.493 1240.1 470.879 1240.1 473.922Z" fill="#1B1B1B"/>
<path d="M1222.07 478.442V475.239H1232.08V478.442H1222.07Z" fill="#1B1B1B"/>
<path d="M1218.45 473.922C1218.45 476.068 1218.16 477.974 1217.59 479.639C1217.04 481.273 1216.24 482.666 1215.19 483.819C1214.16 484.972 1212.9 485.853 1211.39 486.462C1209.92 487.038 1208.27 487.327 1206.44 487.327C1204.74 487.327 1203.17 487.038 1201.73 486.462C1200.29 485.853 1199.04 484.972 1197.99 483.819C1196.93 482.666 1196.1 481.273 1195.49 479.639C1194.91 477.974 1194.62 476.068 1194.62 473.922C1194.62 471.071 1195.1 468.669 1196.06 466.715C1197.03 464.73 1198.4 463.224 1200.2 462.199C1201.99 461.142 1204.12 460.614 1206.59 460.614C1208.92 460.614 1210.97 461.142 1212.74 462.199C1214.53 463.224 1215.92 464.73 1216.92 466.715C1217.94 468.669 1218.45 471.071 1218.45 473.922ZM1199 473.922C1199 475.94 1199.25 477.702 1199.76 479.207C1200.31 480.68 1201.14 481.817 1202.26 482.618C1203.38 483.419 1204.81 483.819 1206.54 483.819C1208.27 483.819 1209.69 483.419 1210.81 482.618C1211.94 481.817 1212.75 480.68 1213.26 479.207C1213.81 477.702 1214.08 475.94 1214.08 473.922C1214.08 471.872 1213.81 470.127 1213.26 468.685C1212.72 467.244 1211.89 466.139 1210.77 465.37C1209.68 464.569 1208.25 464.169 1206.49 464.169C1203.86 464.169 1201.96 465.034 1200.77 466.763C1199.59 468.493 1199 470.879 1199 473.922Z" fill="#1B1B1B"/>
<path d="M1169.71 461.095V471.809H1183.69V461.095H1187.92V486.847H1183.69V475.364H1169.71V486.847H1165.48V461.095H1169.71Z" fill="#1B1B1B"/>
<path d="M1139.12 461.095V471.809H1153.1V461.095H1157.33V486.847H1153.1V475.364H1139.12V486.847H1134.89V461.095H1139.12Z" fill="#1B1B1B"/>
<path d="M1128.19 473.922C1128.19 476.068 1127.9 477.974 1127.32 479.639C1126.78 481.273 1125.98 482.666 1124.92 483.819C1123.9 484.972 1122.63 485.853 1121.13 486.462C1119.65 487.038 1118 487.327 1116.18 487.327C1114.48 487.327 1112.91 487.038 1111.47 486.462C1110.03 485.853 1108.78 484.972 1107.72 483.819C1106.67 482.666 1105.83 481.273 1105.22 479.639C1104.65 477.974 1104.36 476.068 1104.36 473.922C1104.36 471.071 1104.84 468.669 1105.8 466.715C1106.76 464.73 1108.14 463.224 1109.93 462.199C1111.73 461.142 1113.86 460.614 1116.32 460.614C1118.66 460.614 1120.71 461.142 1122.47 462.199C1124.27 463.224 1125.66 464.73 1126.65 466.715C1127.68 468.669 1128.19 471.071 1128.19 473.922ZM1108.73 473.922C1108.73 475.94 1108.99 477.702 1109.5 479.207C1110.04 480.68 1110.88 481.817 1112 482.618C1113.12 483.419 1114.54 483.819 1116.27 483.819C1118 483.819 1119.43 483.419 1120.55 482.618C1121.67 481.817 1122.49 480.68 1123 479.207C1123.55 477.702 1123.82 475.94 1123.82 473.922C1123.82 471.872 1123.55 470.127 1123 468.685C1122.46 467.244 1121.62 466.139 1120.5 465.37C1119.41 464.569 1117.99 464.169 1116.23 464.169C1113.6 464.169 1111.69 465.034 1110.51 466.763C1109.32 468.493 1108.73 470.879 1108.73 473.922Z" fill="#1B1B1B"/>
<path d="M1078.92 476.805C1078.92 477.094 1078.9 477.51 1078.87 478.055C1078.87 478.567 1078.85 479.128 1078.82 479.736C1078.79 480.313 1078.76 480.873 1078.72 481.418C1078.69 481.93 1078.66 482.346 1078.63 482.667L1092.42 461.095H1097.6V486.847H1093.67V471.665C1093.67 471.152 1093.67 470.479 1093.67 469.647C1093.7 468.814 1093.73 467.997 1093.76 467.196C1093.79 466.364 1093.83 465.739 1093.86 465.323L1080.16 486.847H1074.93V461.095H1078.92V476.805Z" fill="#1B1B1B"/>
<path d="M1069.99 495.783H1065.85V486.847H1044.57V461.095H1048.8V483.291H1062.11V461.095H1066.33V483.339H1069.99V495.783Z" fill="#1B1B1B"/>
<path d="M1027.39 460.661C1030.53 460.661 1032.85 461.35 1034.36 462.727C1035.86 464.104 1036.62 466.298 1036.62 469.309V486.845H1033.54L1032.73 483.194H1032.53C1031.8 484.123 1031.03 484.908 1030.23 485.548C1029.46 486.157 1028.56 486.605 1027.54 486.894C1026.54 487.182 1025.33 487.326 1023.89 487.326C1022.35 487.326 1020.95 487.054 1019.71 486.509C1018.49 485.965 1017.53 485.132 1016.82 484.011C1016.12 482.858 1015.77 481.416 1015.77 479.687C1015.77 477.124 1016.77 475.155 1018.79 473.777C1020.81 472.368 1023.92 471.599 1028.11 471.471L1032.49 471.327V469.79C1032.49 467.644 1032.02 466.154 1031.09 465.321C1030.16 464.489 1028.85 464.072 1027.15 464.072C1025.81 464.072 1024.53 464.28 1023.31 464.697C1022.09 465.081 1020.95 465.53 1019.9 466.042L1018.6 462.871C1019.72 462.263 1021.05 461.75 1022.59 461.334C1024.13 460.885 1025.73 460.661 1027.39 460.661ZM1028.64 474.402C1025.44 474.53 1023.21 475.043 1021.96 475.939C1020.75 476.836 1020.14 478.101 1020.14 479.735C1020.14 481.176 1020.57 482.233 1021.43 482.906C1022.33 483.578 1023.47 483.915 1024.85 483.915C1027.02 483.915 1028.83 483.322 1030.28 482.137C1031.72 480.92 1032.44 479.062 1032.44 476.564V474.258L1028.64 474.402Z" fill="#1B1B1B"/>
<path d="M1012.57 464.65H1004.16V486.847H999.984V464.65H991.672V461.095H1012.57V464.65Z" fill="#1B1B1B"/>
<path d="M967.906 476.805C967.906 477.094 967.89 477.51 967.858 478.055C967.858 478.567 967.842 479.128 967.81 479.736C967.778 480.313 967.746 480.873 967.713 481.418C967.681 481.93 967.649 482.346 967.617 482.667L981.406 461.095H986.595V486.847H982.655V471.665C982.655 471.152 982.655 470.479 982.655 469.647C982.687 468.814 982.719 467.997 982.751 467.196C982.784 466.364 982.816 465.739 982.848 465.323L969.155 486.847H963.918V461.095H967.906V476.805Z" fill="#1B1B1B"/>
<path d="M955.742 486.847H951.466V464.602H943.875C943.555 468.67 943.155 472.145 942.674 475.028C942.194 477.878 941.585 480.201 940.848 481.994C940.112 483.788 939.231 485.101 938.206 485.934C937.181 486.767 935.98 487.183 934.603 487.183C934.186 487.183 933.77 487.151 933.353 487.087C932.969 487.055 932.649 486.975 932.393 486.847V483.676C932.585 483.74 932.793 483.788 933.017 483.82C933.241 483.852 933.466 483.868 933.69 483.868C934.394 483.868 935.035 483.58 935.612 483.003C936.188 482.427 936.701 481.546 937.149 480.361C937.629 479.176 938.062 477.686 938.446 475.892C938.831 474.067 939.167 471.921 939.455 469.455C939.743 466.988 940 464.202 940.224 461.095H955.742V486.847Z" fill="#1B1B1B"/>
<path d="M909.255 476.805C909.255 477.094 909.239 477.51 909.207 478.055C909.207 478.567 909.191 479.128 909.159 479.736C909.127 480.313 909.095 480.873 909.063 481.418C909.031 481.93 908.999 482.346 908.967 482.667L922.756 461.095H927.945V486.847H924.005V471.665C924.005 471.152 924.005 470.479 924.005 469.647C924.037 468.814 924.069 467.997 924.101 467.196C924.133 466.364 924.165 465.739 924.197 465.323L910.504 486.847H905.268V461.095H909.255V476.805Z" fill="#1B1B1B"/>
<path d="M875.16 471.378C875.16 467.63 875.529 464.443 876.265 461.817C877.034 459.158 878.203 457.044 879.772 455.475C881.374 453.873 883.424 452.8 885.922 452.256C888.004 451.807 890.038 451.407 892.024 451.055C894.01 450.702 895.867 450.382 897.597 450.094L898.318 453.793C897.485 453.921 896.556 454.081 895.531 454.274C894.506 454.434 893.465 454.61 892.408 454.802C891.351 454.962 890.326 455.138 889.333 455.331C888.372 455.491 887.524 455.651 886.787 455.811C885.73 456.035 884.785 456.42 883.952 456.964C883.12 457.477 882.399 458.181 881.79 459.078C881.214 459.975 880.749 461.08 880.397 462.393C880.045 463.706 879.837 465.26 879.772 467.054H880.061C880.509 466.445 881.118 465.82 881.886 465.18C882.687 464.539 883.632 463.995 884.721 463.546C885.842 463.098 887.107 462.874 888.517 462.874C890.759 462.874 892.616 463.37 894.09 464.363C895.595 465.324 896.716 466.669 897.453 468.399C898.222 470.128 898.606 472.146 898.606 474.452C898.606 477.303 898.11 479.689 897.117 481.611C896.124 483.533 894.746 484.974 892.985 485.935C891.223 486.864 889.173 487.328 886.835 487.328C885.073 487.328 883.472 486.992 882.031 486.319C880.589 485.615 879.356 484.59 878.331 483.245C877.306 481.899 876.521 480.234 875.977 478.248C875.432 476.262 875.16 473.972 875.16 471.378ZM887.171 483.821C888.581 483.821 889.798 483.533 890.823 482.956C891.88 482.38 892.696 481.435 893.273 480.122C893.85 478.808 894.138 477.063 894.138 474.885C894.138 472.258 893.641 470.192 892.648 468.687C891.688 467.15 890.086 466.381 887.844 466.381C886.435 466.381 885.153 466.701 884 467.342C882.847 467.95 881.886 468.655 881.118 469.456C880.349 470.257 879.804 470.929 879.484 471.474C879.484 473.043 879.596 474.565 879.82 476.038C880.045 477.511 880.429 478.84 880.974 480.026C881.55 481.179 882.335 482.108 883.328 482.812C884.353 483.485 885.634 483.821 887.171 483.821Z" fill="#1B1B1B"/>
<path d="M859.328 460.661C862.467 460.661 864.789 461.35 866.294 462.727C867.8 464.104 868.553 466.298 868.553 469.309V486.845H865.478L864.661 483.194H864.469C863.732 484.123 862.963 484.908 862.163 485.548C861.394 486.157 860.497 486.605 859.472 486.894C858.479 487.182 857.262 487.326 855.821 487.326C854.283 487.326 852.89 487.054 851.641 486.509C850.424 485.965 849.463 485.132 848.758 484.011C848.054 482.858 847.701 481.416 847.701 479.687C847.701 477.124 848.71 475.155 850.728 473.777C852.746 472.368 855.853 471.599 860.049 471.471L864.421 471.327V469.79C864.421 467.644 863.956 466.154 863.027 465.321C862.099 464.489 860.785 464.072 859.088 464.072C857.743 464.072 856.461 464.28 855.244 464.697C854.027 465.081 852.89 465.53 851.833 466.042L850.536 462.871C851.657 462.263 852.986 461.75 854.524 461.334C856.061 460.885 857.662 460.661 859.328 460.661ZM860.577 474.402C857.374 474.53 855.148 475.043 853.899 475.939C852.682 476.836 852.073 478.101 852.073 479.735C852.073 481.176 852.506 482.233 853.37 482.906C854.267 483.578 855.404 483.915 856.782 483.915C858.96 483.915 860.769 483.322 862.211 482.137C863.652 480.92 864.373 479.062 864.373 476.564V474.258L860.577 474.402Z" fill="#1B1B1B"/>
<path d="M832.408 460.614C834.618 460.614 836.508 461.094 838.077 462.055C839.679 463.016 840.896 464.377 841.729 466.139C842.594 467.869 843.026 469.902 843.026 472.241V474.787H825.394C825.458 477.702 826.194 479.928 827.604 481.465C829.045 482.971 831.047 483.723 833.609 483.723C835.243 483.723 836.684 483.579 837.933 483.291C839.214 482.971 840.528 482.522 841.873 481.946V485.645C840.56 486.222 839.262 486.638 837.981 486.894C836.7 487.182 835.179 487.327 833.417 487.327C830.983 487.327 828.821 486.83 826.931 485.837C825.073 484.844 823.616 483.371 822.559 481.417C821.534 479.431 821.021 477.013 821.021 474.162C821.021 471.344 821.486 468.925 822.415 466.908C823.376 464.89 824.705 463.336 826.402 462.247C828.132 461.158 830.134 460.614 832.408 460.614ZM832.36 464.073C830.342 464.073 828.741 464.73 827.556 466.043C826.402 467.324 825.714 469.118 825.49 471.424H838.606C838.606 469.95 838.382 468.669 837.933 467.58C837.485 466.491 836.796 465.642 835.867 465.034C834.97 464.393 833.801 464.073 832.36 464.073Z" fill="#1B1B1B"/>
<path d="M805.15 460.614C808.321 460.614 810.867 461.719 812.789 463.929C814.743 466.139 815.72 469.47 815.72 473.922C815.72 476.837 815.271 479.303 814.374 481.321C813.51 483.307 812.276 484.812 810.675 485.837C809.106 486.83 807.248 487.327 805.102 487.327C803.789 487.327 802.619 487.15 801.595 486.798C800.57 486.446 799.689 485.997 798.952 485.453C798.247 484.876 797.639 484.252 797.126 483.579H796.838C796.902 484.124 796.966 484.812 797.03 485.645C797.094 486.478 797.126 487.199 797.126 487.807V498.377H792.898V461.094H796.358L796.934 464.601H797.126C797.639 463.865 798.247 463.192 798.952 462.584C799.689 461.975 800.554 461.495 801.546 461.142C802.571 460.79 803.773 460.614 805.15 460.614ZM804.381 464.169C802.652 464.169 801.258 464.505 800.201 465.178C799.144 465.819 798.376 466.796 797.895 468.109C797.415 469.422 797.158 471.088 797.126 473.105V473.922C797.126 476.036 797.351 477.83 797.799 479.303C798.247 480.777 799 481.898 800.057 482.666C801.146 483.435 802.619 483.819 804.477 483.819C806.047 483.819 807.328 483.387 808.321 482.522C809.346 481.657 810.098 480.488 810.579 479.015C811.091 477.509 811.348 475.796 811.348 473.874C811.348 470.927 810.771 468.573 809.618 466.812C808.497 465.05 806.751 464.169 804.381 464.169Z" fill="#1B1B1B"/>
</svg>
